<svg width="40" height="32" viewBox="0 0 40 32" fill="none" xmlns="http://www.w3.org/2000/svg">
<path d="M15.7812 15.7275H13.8281V13.7744C13.8281 13.6294 13.7705 13.4903 13.6679 13.3877C13.5654 13.2852 13.4263 13.2275 13.2812 13.2275H10.7812C10.6362 13.2275 10.4971 13.2852 10.3946 13.3877C10.292 13.4903 10.2344 13.6294 10.2344 13.7744V15.7275H8.28125C8.13621 15.7275 7.99711 15.7852 7.89455 15.8877C7.79199 15.9903 7.73438 16.1294 7.73438 16.2744V18.7744C7.73438 18.9195 7.79199 19.0586 7.89455 19.1611C7.99711 19.2637 8.13621 19.3213 8.28125 19.3213H10.2344V21.2744C10.2344 21.4195 10.292 21.5586 10.3946 21.6611C10.4971 21.7637 10.6362 21.8213 10.7812 21.8213H13.2812C13.4263 21.8213 13.5654 21.7637 13.6679 21.6611C13.7705 21.5586 13.8281 21.4195 13.8281 21.2744V19.3213H15.7812C15.9263 19.3213 16.0654 19.2637 16.1679 19.1611C16.2705 19.0586 16.3281 18.9195 16.3281 18.7744V16.2744C16.3281 16.1294 16.2705 15.9903 16.1679 15.8877C16.0654 15.7852 15.9263 15.7275 15.7812 15.7275ZM15.2344 18.2275H13.2812C13.1362 18.2275 12.9971 18.2852 12.8946 18.3877C12.792 18.4903 12.7344 18.6294 12.7344 18.7744V20.7275H11.3281V18.7744C11.3281 18.6294 11.2705 18.4903 11.1679 18.3877C11.0654 18.2852 10.9263 18.2275 10.7812 18.2275H8.82812V16.8213H10.7812C10.9263 16.8213 11.0654 16.7637 11.1679 16.6611C11.2705 16.5586 11.3281 16.4195 11.3281 16.2744V14.3213H12.7344V16.2744C12.7344 16.4195 12.792 16.5586 12.8946 16.6611C12.9971 16.7637 13.1362 16.8213 13.2812 16.8213H15.2344V18.2275Z" fill="#14387F"/>
<path d="M36.3281 3.61816H19.6094C19.4643 3.61816 19.3252 3.67578 19.2227 3.77834C19.1201 3.8809 19.0625 4.02 19.0625 4.16504C19.0625 4.31008 19.1201 4.44918 19.2227 4.55174C19.3252 4.6543 19.4643 4.71191 19.6094 4.71191H36.3281C36.4732 4.71191 36.6123 4.6543 36.7148 4.55174C36.8174 4.44918 36.875 4.31008 36.875 4.16504C36.875 4.02 36.8174 3.8809 36.7148 3.77834C36.6123 3.67578 36.4732 3.61816 36.3281 3.61816Z" fill="#14387F"/>
<path d="M36.3281 6.53418H19.6094C19.4643 6.53418 19.3252 6.5918 19.2227 6.69436C19.1201 6.79692 19.0625 6.93601 19.0625 7.08105C19.0625 7.22609 19.1201 7.3652 19.2227 7.46775C19.3252 7.57031 19.4643 7.62793 19.6094 7.62793H36.3281C36.4732 7.62793 36.6123 7.57031 36.7148 7.46775C36.8174 7.3652 36.875 7.22609 36.875 7.08105C36.875 6.93601 36.8174 6.79692 36.7148 6.69436C36.6123 6.5918 36.4732 6.53418 36.3281 6.53418Z" fill="#14387F"/>
<path d="M36.3295 9.4502H26.6445C26.4995 9.4502 26.3604 9.50781 26.2578 9.61037C26.1553 9.71293 26.0977 9.85203 26.0977 9.99707C26.0977 10.1421 26.1553 10.2812 26.2578 10.3838C26.3604 10.4863 26.4995 10.5439 26.6445 10.5439H36.3295C36.4746 10.5439 36.6137 10.4863 36.7162 10.3838C36.8188 10.2812 36.8764 10.1421 36.8764 9.99707C36.8764 9.85203 36.8188 9.71293 36.7162 9.61037C36.6137 9.50781 36.4746 9.4502 36.3295 9.4502Z" fill="#14387F"/>
<path d="M36.3295 12.3662H26.6445C26.4995 12.3662 26.3604 12.4238 26.2578 12.5264C26.1553 12.6289 26.0977 12.768 26.0977 12.9131C26.0977 13.0581 26.1553 13.1972 26.2578 13.2998C26.3604 13.4023 26.4995 13.46 26.6445 13.46H36.3295C36.4746 13.46 36.6137 13.4023 36.7162 13.2998C36.8188 13.1972 36.8764 13.0581 36.8764 12.9131C36.8764 12.768 36.8188 12.6289 36.7162 12.5264C36.6137 12.4238 36.4746 12.3662 36.3295 12.3662Z" fill="#14387F"/>
<path d="M37.8906 0.493164H18.0469C17.4876 0.493826 16.9515 0.716275 16.5561 1.11172C16.1606 1.50716 15.9382 2.0433 15.9375 2.60254V9.47754H2.10938C1.55008 9.4782 1.01389 9.70069 0.618442 10.0962C0.222992 10.4917 0.000578929 11.0279 0 11.5872V23.4607C0.000579076 24.0199 0.223002 24.5561 0.618461 24.9516C1.01392 25.347 1.55011 25.5695 2.10938 25.57H7.00187V30.96C7.00189 31.0589 7.02868 31.1558 7.07941 31.2407C7.13013 31.3255 7.20289 31.395 7.28995 31.4417C7.37701 31.4885 7.47512 31.5108 7.57384 31.5063C7.67257 31.5017 7.76822 31.4705 7.85063 31.416L16.6784 25.57H21.9531C22.5124 25.5695 23.0486 25.347 23.444 24.9516C23.8395 24.5561 24.0619 24.0199 24.0625 23.4607V17.0585L32.1484 22.4307C32.2308 22.4854 32.3265 22.5168 32.4253 22.5215C32.5241 22.5262 32.6224 22.504 32.7095 22.4573C32.7967 22.4106 32.8696 22.3411 32.9204 22.2562C32.9713 22.1713 32.9981 22.0743 32.9981 21.9754V16.5854H37.8906C38.4499 16.5848 38.9861 16.3623 39.3815 15.9669C39.777 15.5714 39.9994 15.0352 40 14.476V2.60254C39.9993 2.0433 39.7769 1.50716 39.3814 1.11172C38.986 0.716275 38.4499 0.493826 37.8906 0.493164ZM21.9531 24.4763H16.5138C16.4063 24.4763 16.3013 24.5081 16.2119 24.5675L8.09562 29.9425V25.0232C8.09562 24.8781 8.03801 24.739 7.93545 24.6365C7.83289 24.5339 7.69379 24.4763 7.54875 24.4763H2.10938C1.84009 24.476 1.58191 24.369 1.39149 24.1785C1.20108 23.9881 1.094 23.7299 1.09375 23.4607V11.5872C1.09408 11.318 1.20119 11.0598 1.39158 10.8694C1.58198 10.679 1.84012 10.5719 2.10938 10.5716H21.9531C22.2224 10.5719 22.4805 10.679 22.6709 10.8694C22.8613 11.0598 22.9684 11.318 22.9688 11.5872V23.4607C22.9685 23.7299 22.8614 23.9881 22.671 24.1785C22.4806 24.369 22.2224 24.476 21.9531 24.4763ZM38.9062 14.4763C38.906 14.7456 38.7989 15.0038 38.6085 15.1942C38.4181 15.3846 38.1599 15.4917 37.8906 15.4919H32.4513C32.3062 15.4919 32.1671 15.5495 32.0645 15.6521C31.962 15.7546 31.9044 15.8937 31.9044 16.0388V20.9554L24.0625 15.7454V11.5872C24.0618 11.028 23.8394 10.4918 23.4439 10.0964C23.0485 9.70096 22.5124 9.47851 21.9531 9.47785H17.0312V2.60285C17.0316 2.33359 17.1387 2.07546 17.3291 1.88506C17.5195 1.69467 17.7776 1.58756 18.0469 1.58723H37.8906C38.1599 1.58756 38.418 1.69467 38.6084 1.88506C38.7988 2.07546 38.9059 2.33359 38.9062 2.60285V14.4763Z" fill="#14387F"/>
</svg>
