<svg width="34" height="40" viewBox="0 0 34 40" fill="none" xmlns="http://www.w3.org/2000/svg">
<path d="M16.1761 29.4442C15.712 29.4411 15.2496 29.3854 14.7979 29.2782C12.5307 28.762 11.6235 27.816 10.8319 26.9828C10.2701 26.3969 9.78592 25.8923 8.84896 25.5172C8.20118 25.2566 7.55506 25.0492 6.98495 24.8666C5.33246 24.3371 3.76424 23.8359 4.03195 22.3039C4.30956 20.7288 5.63156 20.8317 6.4231 20.8915C6.64974 20.9157 6.87787 20.9229 7.10558 20.9131C7.52956 20.8568 7.94587 20.7527 8.3466 20.6027C9.06802 20.3464 9.81576 20.1722 10.5758 20.0832C10.8828 20.0491 11.1926 20.0491 11.4996 20.0832C11.0626 19.634 10.6521 19.1596 10.2701 18.6624C10.0536 18.601 9.77435 18.523 9.58597 18.4782C9.37198 18.4096 9.16413 18.323 8.96463 18.2193C8.46888 17.9836 7.70543 17.6284 7.11715 17.5803C6.60983 17.5371 6.48424 17.6948 6.40823 18.04C6.35535 18.279 6.41814 18.5977 7.28735 19.1554C7.41664 19.2386 7.50773 19.37 7.54058 19.5206C7.57343 19.6713 7.54535 19.8288 7.46252 19.9587C7.37968 20.0886 7.24888 20.18 7.09889 20.213C6.9489 20.246 6.792 20.2178 6.66271 20.1346C6.20662 19.8409 4.997 19.0624 5.27792 17.7877C5.49275 16.8201 6.18018 16.3355 7.21299 16.4218C8.00784 16.4882 8.87705 16.8965 9.45377 17.167L9.68842 17.2765C9.55127 16.6923 9.52317 16.0384 9.85367 15.5753C10.0189 15.3396 10.4188 14.9645 11.2318 15.1006C12.3522 15.2882 13.1471 15.9305 13.7288 16.3919C13.9438 16.582 14.1781 16.7488 14.4278 16.8898C14.6062 16.9695 14.8012 17.0707 15.0061 17.177C15.3581 17.3579 16.0786 17.733 16.3281 17.7014C16.417 17.616 16.4869 17.5128 16.5333 17.3984C16.5798 17.284 16.6016 17.161 16.5975 17.0375C16.5066 17.016 16.3546 16.9977 16.2455 16.9844C15.6638 16.9131 14.707 16.7969 14.3765 15.884C14.3307 15.7559 14.2927 15.6251 14.2625 15.4923C13.8452 15.1008 13.4827 14.6541 13.1851 14.1645C13.1717 14.142 13.1595 14.1187 13.1487 14.0948C13.0665 13.937 12.9457 13.8028 12.7978 13.7047C12.6498 13.6066 12.4794 13.5478 12.3027 13.5338C12.2067 13.5356 12.1135 13.5663 12.035 13.6218C12.0217 13.64 11.9788 13.718 12.0102 14.0118C12.0264 14.1659 11.981 14.3201 11.884 14.4406C11.787 14.561 11.6463 14.6379 11.4929 14.6541C11.3395 14.6704 11.186 14.6248 11.0661 14.5274C10.9461 14.43 10.8696 14.2887 10.8534 14.1346C10.8171 13.7911 10.8072 13.2898 11.131 12.8898C11.2686 12.7321 11.437 12.6044 11.6258 12.5148C11.8145 12.4251 12.0196 12.3754 12.2283 12.3687H12.2861C12.687 12.3767 13.0779 12.4952 13.4162 12.7112C13.7546 12.9272 14.0273 13.2324 14.2047 13.5936C14.2741 13.7081 14.3484 13.816 14.4212 13.9255C14.422 13.9217 14.422 13.9177 14.4212 13.9139C14.4798 13.8125 14.5673 13.731 14.6723 13.6799C14.4224 13.4044 14.2682 13.055 14.2328 12.684C14.2258 12.5485 14.2475 12.413 14.2965 12.2866C14.3455 12.1601 14.4207 12.0455 14.517 11.9504C14.7039 11.7652 14.9298 11.6246 15.178 11.5388C15.3234 11.4824 15.3234 11.4824 15.3813 11.3263C15.4223 11.1912 15.4554 11.0538 15.4804 10.9147C15.6886 9.92883 16.1199 7.87572 18.5193 7.31306C21.1253 6.70227 24.4435 7.78277 25.2351 10.3637C25.9886 12.8234 25.2351 14.3471 24.4088 15.5189C24.0452 16.0045 23.6034 16.4258 23.1017 16.7653C22.6439 17.0973 22.4688 17.2516 22.449 17.4757C22.4324 17.6566 22.4341 18.0882 22.439 18.5877C22.4506 20.5313 22.4721 23.7844 21.631 25.2633L21.6062 25.3064C20.7469 26.8118 19.2497 29.4425 16.1761 29.4442ZM5.81498 22.0268C5.30602 22.0268 5.23 22.1529 5.16721 22.5081C5.08293 22.9894 5.7621 23.2599 7.33197 23.7629C7.92026 23.9504 8.58786 24.1645 9.27365 24.44C10.4304 24.9081 11.0567 25.5537 11.6565 26.1778C12.4117 26.9645 13.1239 27.7064 15.0541 28.1479C18.2401 28.8749 19.6017 26.4882 20.5949 24.7355L20.6196 24.6907C21.3071 23.484 21.2806 20.3073 21.2806 18.601C21.2806 18.0268 21.2806 17.6052 21.2955 17.3745C21.3649 16.6093 21.8987 16.2126 22.4159 15.8342C22.8178 15.5671 23.1724 15.2344 23.4652 14.85C24.275 13.7114 24.698 12.5712 24.1262 10.7106C23.5875 8.96285 21.089 7.90725 18.7755 8.44999C17.0932 8.84335 16.7925 10.2375 16.6057 11.1604C16.5704 11.3567 16.5213 11.5503 16.4587 11.7396C16.3959 11.9464 16.2844 12.1349 16.1337 12.2892C15.983 12.4435 15.7974 12.559 15.5928 12.6259C15.5311 12.6473 15.4719 12.6751 15.416 12.7089C15.4968 12.8542 15.6012 12.9849 15.725 13.0956C15.7992 13.1574 15.8561 13.2375 15.8902 13.328L16.2207 14.2409C16.2581 14.3436 16.2659 14.4549 16.2431 14.5618C16.2203 14.6688 16.1679 14.7671 16.0919 14.8455C16.016 14.9239 15.9195 14.9791 15.8137 15.0049C15.7078 15.0306 15.5969 15.0258 15.4936 14.9911L15.368 14.9479C15.3651 14.9999 15.3651 15.052 15.368 15.1039C15.3869 15.2331 15.419 15.3599 15.4639 15.4824C15.5465 15.7097 15.8902 15.7678 16.3661 15.8259C16.7611 15.8741 17.1329 15.9205 17.3956 16.1844C17.5172 16.3179 17.6094 16.4755 17.6663 16.6471C17.7233 16.8186 17.7436 17.0003 17.7261 17.1803C17.711 17.4568 17.6404 17.7273 17.5185 17.9758C17.3967 18.2242 17.2262 18.4453 17.0172 18.6259C16.3364 19.1969 15.335 18.6774 14.4509 18.2209C14.2609 18.123 14.0807 18.0301 13.9337 17.9637C13.5913 17.7877 13.2717 17.5703 12.9818 17.3164C12.4464 16.8865 11.84 16.4002 11.017 16.2624C10.8319 16.2326 10.7725 16.2624 10.7725 16.2624C10.6469 16.4068 10.7725 17.2583 11.1211 17.8956C11.3541 18.3155 12.8067 19.8442 14.0758 21.0807C14.1787 21.1818 14.2403 21.3178 14.2487 21.4621C14.2571 21.6064 14.2116 21.7486 14.1211 21.861C14.0307 21.9735 13.9018 22.048 13.7595 22.07C13.6173 22.0921 13.472 22.0601 13.352 21.9803C12.9868 21.7363 11.7937 21.1272 10.6766 21.245C10.0005 21.3276 9.33556 21.4846 8.69362 21.7131C8.21341 21.8908 7.71435 22.0122 7.20638 22.0749C6.9138 22.0919 6.62032 22.0846 6.32891 22.0533C6.11408 22.0367 5.94884 22.0268 5.81498 22.0268Z" fill="#14387F"/>
<path d="M27.4007 40.0004C27.2473 40.0004 27.1002 39.9392 26.9918 39.8302C26.8833 39.7213 26.8224 39.5735 26.8224 39.4195C26.8224 38.1365 28.1543 35.9921 29.5638 33.7215C30.21 32.6809 30.8181 31.7 31.2692 30.8485C32.3946 28.7207 33.4174 25.8112 32.4491 20.3506C31.9368 17.451 30.9833 15.9821 29.9704 14.4269C29.2482 13.3132 28.498 12.1614 27.9262 10.4784C26.5381 6.38047 29.734 0.544781 29.8695 0.299138C29.9064 0.232442 29.9561 0.173697 30.0155 0.126257C30.075 0.0788177 30.1433 0.0436126 30.2163 0.022652C30.2893 0.00169135 30.3658 -0.00461427 30.4412 0.00409513C30.5167 0.0128045 30.5897 0.0363584 30.6561 0.0734118C30.7225 0.110465 30.781 0.160293 30.8283 0.220049C30.8755 0.279806 30.9105 0.348321 30.9314 0.421683C30.9523 0.495045 30.9586 0.571818 30.9499 0.647617C30.9412 0.723416 30.9178 0.796757 30.8809 0.863453C29.6349 3.1091 28.113 7.42113 29.0218 10.1033C29.5457 11.6485 30.2232 12.6892 30.9404 13.7913C31.9699 15.3763 33.0357 17.0145 33.5844 20.1481C34.399 24.7672 34.0107 28.1298 32.2855 31.3929C31.8162 32.2809 31.1965 33.2784 30.5405 34.3357C29.3969 36.178 27.9741 38.4701 27.9741 39.4195C27.9741 39.5727 27.9139 39.7197 27.8065 39.8285C27.6991 39.9373 27.5533 39.9991 27.4007 40.0004ZM14.1891 40.0004C14.0357 40.0004 13.8886 39.9392 13.7801 39.8302C13.6716 39.7213 13.6107 39.5735 13.6107 39.4195C13.6145 39.1927 13.6338 38.9664 13.6685 38.7423C13.7512 38.1282 13.8106 37.6834 12.7696 36.5846C12.4391 36.2294 12.0177 36.0552 11.3286 35.768C10.0397 35.2303 8.09137 34.4153 4.71864 31.5672C-1.4121 26.3904 -0.369379 19.7 1.22858 14.4518C2.66294 8.59789 10.461 3.98379 13.0257 2.46677C13.3661 2.26428 13.6619 2.09001 13.7578 2.0203C13.7214 1.85432 13.376 1.42445 12.8555 1.0676C12.7924 1.02412 12.7384 0.968569 12.6966 0.904123C12.6548 0.839677 12.6261 0.767598 12.612 0.692002C12.598 0.616405 12.5989 0.53877 12.6147 0.463531C12.6306 0.388292 12.661 0.316922 12.7043 0.253495C12.7476 0.190068 12.8029 0.135827 12.8671 0.0938685C12.9312 0.0519101 13.003 0.0230561 13.0783 0.00895394C13.1535 -0.00514823 13.2308 -0.0042224 13.3057 0.0116786C13.3806 0.0275795 13.4517 0.0581443 13.5148 0.101628C13.8453 0.325694 14.9129 1.12735 14.9261 2.02196C14.9272 2.20728 14.8826 2.38999 14.796 2.55368C14.7095 2.71736 14.5838 2.85689 14.4303 2.95972C14.2882 3.06262 14.0304 3.21532 13.6041 3.4676C11.1419 4.92486 3.64783 9.35806 2.34071 14.744C2.34071 14.7539 2.34071 14.7655 2.33244 14.7771C0.0784458 22.1664 1.01045 26.9215 5.45565 30.6759C8.69949 33.4095 10.5486 34.1913 11.7731 34.6892C12.5167 34.9996 13.0951 35.2452 13.609 35.7796C14.931 37.1738 14.931 37.9821 14.8154 38.895C14.7873 39.0674 14.7713 39.2415 14.7674 39.4162C14.7679 39.4927 14.7532 39.5686 14.7244 39.6395C14.6955 39.7103 14.653 39.7748 14.5992 39.8291C14.5455 39.8834 14.4816 39.9264 14.4112 39.9558C14.3408 39.9852 14.2653 40.0004 14.1891 40.0004Z" fill="#14387F"/>
<path d="M14.8308 32.0786C12.6274 32.0535 10.4572 31.5371 8.47693 30.5665C4.32752 28.5748 2.20903 24.3674 2.94934 19.579C3.61034 15.3001 5.34215 9.89267 12.9271 6.03873C18.6298 3.13915 22.8701 4.82711 24.3144 6.12338C25.4992 7.18728 28.1548 10.0669 27.2178 13.8346C26.8769 15.1514 26.3775 16.4216 25.7306 17.6172C25.1952 18.6794 24.7391 19.5972 24.4929 21.0113C24.4169 21.4528 24.3541 21.9192 24.2863 22.4155C23.9145 25.1541 23.4518 28.5566 20.4377 30.5284C18.8612 31.5624 16.9145 32.0786 14.8308 32.0786ZM13.4493 7.07442C6.33365 10.691 4.7109 15.7516 4.09287 19.7516C3.43187 24.0122 5.3058 27.7516 8.97598 29.5109C12.0133 30.9665 16.4552 31.7416 19.813 29.5491C22.3843 27.8694 22.7875 24.8852 23.1477 22.2462C23.2155 21.7483 23.2799 21.2636 23.3593 20.8039C23.6303 19.2172 24.1525 18.1798 24.7044 17.0811C25.2001 16.0985 25.7108 15.0894 26.0941 13.5408C26.8791 10.3873 24.5722 7.89765 23.5443 6.97815C22.3017 5.86446 18.5951 4.44703 13.4493 7.0628V7.07442Z" fill="#14387F"/>
</svg>
