<svg width="16" height="15" viewBox="0 0 16 15" fill="none" xmlns="http://www.w3.org/2000/svg">
<path d="M14.4788 0.372513C14.2882 0.386381 14.1011 0.431098 13.9249 0.504919H13.9225C13.7533 0.572013 12.9487 0.910451 11.7256 1.42345L7.34256 3.26942C4.19747 4.59348 1.10581 5.89736 1.10581 5.89736L1.14262 5.88311C1.14262 5.88311 0.929468 5.95317 0.706812 6.10576C0.569256 6.1933 0.45089 6.30782 0.358874 6.44242C0.249624 6.60273 0.161749 6.84795 0.194406 7.10148C0.247843 7.53017 0.525718 7.78726 0.725218 7.92917C0.927093 8.07286 1.11947 8.13995 1.11947 8.13995H1.12422L4.0235 9.11667C4.15353 9.53408 4.907 12.0112 5.08809 12.5818C5.19497 12.9226 5.29887 13.1358 5.42891 13.2985C5.49184 13.3816 5.56547 13.451 5.65394 13.5069C5.69993 13.5336 5.74897 13.5547 5.8 13.5698L5.77031 13.5627C5.77922 13.565 5.78634 13.5722 5.79287 13.5745C5.81662 13.5811 5.83266 13.5835 5.86294 13.5882C6.32191 13.7271 6.69062 13.4421 6.69062 13.4421L6.71141 13.4255L8.42319 11.8669L11.2922 14.068L11.3575 14.0959C11.9554 14.3583 12.561 14.2122 12.8811 13.9545C13.2035 13.6951 13.3287 13.3632 13.3287 13.3632L13.3495 13.3097L15.5666 1.95189C15.6295 1.67164 15.6456 1.4092 15.5761 1.15448C15.5044 0.896691 15.3391 0.674974 15.1124 0.532826C14.922 0.417113 14.7013 0.361261 14.4788 0.372513ZM14.4189 1.5897C14.4165 1.62711 14.4236 1.62295 14.407 1.69479V1.70133L12.2107 12.941C12.2012 12.957 12.1852 12.9921 12.1412 13.0271C12.0949 13.0639 12.0581 13.0871 11.8652 13.0105L8.35609 10.3202L6.23641 12.2523L6.68172 9.4082L12.415 4.06445C12.6513 3.84476 12.5723 3.79845 12.5723 3.79845C12.5889 3.52889 12.2155 3.71948 12.2155 3.71948L4.98597 8.19814L4.98359 8.18626L1.51847 7.01955V7.01717L1.50956 7.01539C1.51564 7.01337 1.52158 7.01099 1.52737 7.00826L1.54637 6.99876L1.56478 6.99223C1.56478 6.99223 4.65881 5.68836 7.80391 4.36429C9.37853 3.70108 10.965 3.03311 12.1852 2.51773C13.4053 2.00533 14.3072 1.62948 14.3583 1.60929C14.407 1.59029 14.3838 1.59029 14.4189 1.59029V1.5897Z" fill="white"/>
</svg>
