<svg width="40" height="40" viewBox="0 0 40 40" fill="none" xmlns="http://www.w3.org/2000/svg">
<path d="M34.3254 9.79535L33.6306 3.19663C34.5756 2.51349 35.4771 1.75711 36.3249 0.926841L35.4175 0C31.2726 4.0606 25.7971 6.29669 20.0015 6.29669C14.2058 6.29669 8.7303 4.0606 4.58544 0L3.67804 0.926841C4.52581 1.75711 5.42738 2.51349 6.37301 3.19663L5.67756 9.79535C5.34571 12.946 3.29629 15.5949 0.329102 16.7078L0.784744 17.9217C4.2147 16.6358 6.58301 13.5734 6.96606 9.93081L7.58892 4.01393C11.2768 6.34076 15.5481 7.59297 20.0015 7.59297C24.4548 7.59297 28.7261 6.34076 32.4134 4.01393L33.0362 9.93081C33.4193 13.5734 35.7876 16.6358 39.2175 17.9217L39.6732 16.7078C36.706 15.5956 34.6566 12.9466 34.3254 9.79535Z" fill="#14387F"/>
<path d="M27.4635 18.5649L26.5016 14.7163C27.0998 12.0699 27.6592 11.2105 27.6592 11.2092L26.6034 10.4587C26.5813 10.4898 26.5029 10.6058 26.3862 10.8391C25.4257 10.8644 24.4924 11.2604 23.8118 11.941L21.7559 13.9969C21.2938 14.4583 20.6547 14.7228 20.0014 14.7228C19.3481 14.7228 18.709 14.4583 18.2469 13.9962L16.191 11.9403C15.5104 11.2598 14.5771 10.8637 13.6166 10.8385C13.4999 10.6058 13.4221 10.4898 13.3994 10.458L12.3378 11.2014C12.3436 11.2092 12.903 12.0693 13.5012 14.7156L12.5394 18.5643C12.3631 19.2669 12.0539 19.917 11.6197 20.4964C10.755 21.6501 10.2793 23.0779 10.2793 24.5181V25.1779C10.2793 26.9681 10.9767 28.6513 12.2425 29.9178L12.4882 30.1634C12.8278 30.503 13.1214 30.8874 13.3599 31.3041L15.4644 34.9875V40.0002H16.7607V38.7039H23.2421V40.0002H24.5384V34.9875L26.6429 31.3035C26.8814 30.8867 27.1744 30.503 27.5147 30.1628L27.7603 29.9171C29.0261 28.6513 29.7235 26.9681 29.7235 25.1779V24.5181C29.7235 23.0773 29.2478 21.6494 28.3832 20.497C27.9489 19.9176 27.6391 19.2675 27.4635 18.5649ZM15.2745 12.8568L17.3304 14.9127C18.0337 15.6159 19.0072 16.019 20.0014 16.019C20.9957 16.019 21.9692 15.6159 22.6724 14.9127L24.7283 12.8568C25.0336 12.5509 25.4199 12.3422 25.8334 12.2287C25.6441 12.801 25.4361 13.5393 25.2254 14.4778L22.3905 19.2034C21.8901 20.0375 20.9743 20.556 20.0014 20.556C19.0286 20.556 18.1127 20.0375 17.6117 19.2034L14.7767 14.4778C14.5661 13.5393 14.358 12.8017 14.1688 12.2287C14.5823 12.3422 14.9686 12.5509 15.2745 12.8568ZM23.2421 37.4077H16.7607V36.1114H23.2421V37.4077ZM22.1578 30.9263L22.5117 32.2225H17.4918L17.845 30.9263H22.1578ZM18.208 29.63C18.4653 28.8632 19.1848 28.3337 20.0014 28.3337C20.8181 28.3337 21.5369 28.8632 21.7948 29.63H18.208ZM22.8649 33.5188L23.2188 34.8151H16.7847L17.1379 33.5188H22.8649ZM28.4272 25.1779C28.4272 26.6213 27.8647 27.9792 26.8438 29.0006L26.5982 29.2463C26.1769 29.6676 25.8133 30.1433 25.5177 30.6605L24.1035 33.1345L23.0827 29.3915C22.7048 28.0051 21.4377 27.0374 20.0014 27.0374C18.5651 27.0374 17.298 28.0051 16.9201 29.3915L15.8993 33.1345L14.4851 30.6605C14.1895 30.1433 13.8259 29.6682 13.4046 29.2463L13.159 29.0006C12.1382 27.9792 11.5756 26.6213 11.5756 25.1779V24.5181C11.5756 23.356 11.9599 22.2042 12.6567 21.2742C13.1959 20.556 13.5796 19.7497 13.7968 18.8786L14.4177 16.3982L16.5008 19.8703C17.2345 21.0927 18.5761 21.8523 20.0014 21.8523C21.4267 21.8523 22.7683 21.0927 23.502 19.8703L25.5851 16.3982L26.2061 18.8786C26.4232 19.7504 26.8069 20.556 27.3461 21.2742C28.0429 22.2042 28.4272 23.356 28.4272 24.5181V25.1779Z" fill="#14387F"/>
<path d="M18.0562 22.5001C17.5047 22.5001 17.0088 22.7334 16.6543 23.1035C16.7172 22.9123 16.7599 22.712 16.7599 22.5001C16.7599 21.4281 15.8875 20.5557 14.8155 20.5557C13.7435 20.5557 12.8711 21.4281 12.8711 22.5001C12.8711 23.5721 13.7435 24.4445 14.8155 24.4445C15.3671 24.4445 15.8629 24.2112 16.2175 23.8411C16.1546 24.0323 16.1118 24.2326 16.1118 24.4445C16.1118 24.6564 16.1546 24.8567 16.2175 25.0479C15.8629 24.6778 15.3671 24.4445 14.8155 24.4445C13.7435 24.4445 12.8711 25.3169 12.8711 26.3889C12.8711 27.4609 13.7435 28.3333 14.8155 28.3333C15.8875 28.3333 16.7599 27.4609 16.7599 26.3889C16.7599 26.177 16.7172 25.9767 16.6543 25.7855C17.0088 26.1556 17.5047 26.3889 18.0562 26.3889C19.1283 26.3889 20.0007 25.5165 20.0007 24.4445C20.0007 23.3725 19.1283 22.5001 18.0562 22.5001ZM14.8155 23.1482C14.4577 23.1482 14.1674 22.8579 14.1674 22.5001C14.1674 22.1423 14.4577 21.8519 14.8155 21.8519C15.1733 21.8519 15.4637 22.1423 15.4637 22.5001C15.4637 22.8579 15.1733 23.1482 14.8155 23.1482ZM14.8155 27.0371C14.4577 27.0371 14.1674 26.7467 14.1674 26.3889C14.1674 26.0311 14.4577 25.7408 14.8155 25.7408C15.1733 25.7408 15.4637 26.0311 15.4637 26.3889C15.4637 26.7467 15.1733 27.0371 14.8155 27.0371ZM18.0562 25.0926C17.6985 25.0926 17.4081 24.8023 17.4081 24.4445C17.4081 24.0867 17.6985 23.7964 18.0562 23.7964C18.414 23.7964 18.7044 24.0867 18.7044 24.4445C18.7044 24.8023 18.414 25.0926 18.0562 25.0926Z" fill="#14387F"/>
<path d="M27.1305 22.5001C27.1305 21.4281 26.2581 20.5557 25.1861 20.5557C24.1141 20.5557 23.2417 21.4281 23.2417 22.5001C23.2417 22.712 23.2844 22.9123 23.3473 23.1035C22.9928 22.7334 22.497 22.5001 21.9454 22.5001C20.8734 22.5001 20.001 23.3725 20.001 24.4445C20.001 25.5165 20.8734 26.3889 21.9454 26.3889C22.497 26.3889 22.9928 26.1556 23.3473 25.7855C23.2844 25.9767 23.2417 26.177 23.2417 26.3889C23.2417 27.4609 24.1141 28.3333 25.1861 28.3333C26.2581 28.3333 27.1305 27.4609 27.1305 26.3889C27.1305 25.3169 26.2581 24.4445 25.1861 24.4445C24.6345 24.4445 24.1387 24.6778 23.7842 25.0479C23.847 24.8567 23.8898 24.6564 23.8898 24.4445C23.8898 24.2326 23.847 24.0323 23.7842 23.8411C24.1387 24.2112 24.6345 24.4445 25.1861 24.4445C26.2581 24.4445 27.1305 23.5721 27.1305 22.5001ZM21.9454 25.0926C21.5876 25.0926 21.2973 24.8023 21.2973 24.4445C21.2973 24.0867 21.5876 23.7964 21.9454 23.7964C22.3032 23.7964 22.5935 24.0867 22.5935 24.4445C22.5935 24.8023 22.3032 25.0926 21.9454 25.0926ZM25.1861 25.7408C25.5439 25.7408 25.8342 26.0311 25.8342 26.3889C25.8342 26.7467 25.5439 27.0371 25.1861 27.0371C24.8283 27.0371 24.5379 26.7467 24.5379 26.3889C24.5379 26.0311 24.8283 25.7408 25.1861 25.7408ZM25.1861 23.1482C24.8283 23.1482 24.5379 22.8579 24.5379 22.5001C24.5379 22.1423 24.8283 21.8519 25.1861 21.8519C25.5439 21.8519 25.8342 22.1423 25.8342 22.5001C25.8342 22.8579 25.5439 23.1482 25.1861 23.1482Z" fill="#14387F"/>
</svg>
