<svg width="13" height="14" viewBox="0 0 13 14" fill="none" xmlns="http://www.w3.org/2000/svg">
<path d="M6.5 0.5C2.92119 0.5 0 3.42096 0 7C0 10.5788 2.92096 13.5 6.5 13.5C8.22943 13.5 9.85987 12.822 11.0909 11.5909C12.322 10.3599 13 8.72943 13 7C13 3.42119 10.079 0.5 6.5 0.5ZM6.5 12.7383C3.3359 12.7383 0.761719 10.1641 0.761719 7C0.761719 3.8359 3.3359 1.26172 6.5 1.26172C9.6641 1.26172 12.2383 3.8359 12.2383 7C12.2383 10.1641 9.6641 12.7383 6.5 12.7383ZM6.5 2.04883C6.28966 2.04883 6.11914 2.21935 6.11914 2.42969V6.84225L3.53892 9.42247C3.39018 9.57121 3.39018 9.81234 3.53892 9.96108C3.68766 10.1098 3.92882 10.1098 4.07753 9.96108L6.76929 7.26929C6.84072 7.19787 6.88086 7.101 6.88086 7V2.42969C6.88086 2.21935 6.71034 2.04883 6.5 2.04883ZM11.0703 6.61914H10.3086C10.0983 6.61914 9.92773 6.78966 9.92773 7C9.92773 7.21034 10.0983 7.38086 10.3086 7.38086H11.0703C11.2806 7.38086 11.4512 7.21034 11.4512 7C11.4512 6.78966 11.2806 6.61914 11.0703 6.61914ZM2.69141 6.61914H1.92969C1.71935 6.61914 1.54883 6.78966 1.54883 7C1.54883 7.21034 1.71935 7.38086 1.92969 7.38086H2.69141C2.90174 7.38086 3.07227 7.21034 3.07227 7C3.07227 6.78966 2.90174 6.61914 2.69141 6.61914ZM6.5 10.4277C6.28966 10.4277 6.11914 10.5983 6.11914 10.8086V11.5703C6.11914 11.7806 6.28966 11.9512 6.5 11.9512C6.71034 11.9512 6.88086 11.7806 6.88086 11.5703V10.8086C6.88086 10.5983 6.71034 10.4277 6.5 10.4277Z" fill="#AEB2BE"/>
</svg>
