<svg width="30" height="40" viewBox="0 0 30 40" fill="none" xmlns="http://www.w3.org/2000/svg">
<path d="M26.1475 40.0004H3.85246C2.83099 39.9995 1.85161 39.5994 1.12932 38.8878C0.40703 38.1763 0.000868228 37.2114 0 36.2051L0 5.92413C0.000868228 4.91783 0.40703 3.953 1.12932 3.24145C1.85161 2.52989 2.83099 2.12976 3.85246 2.12891H9.01639C9.16857 2.12891 9.31451 2.18846 9.42211 2.29446C9.52971 2.40047 9.59016 2.54424 9.59016 2.69415C9.59016 2.84406 9.52971 2.98784 9.42211 3.09384C9.31451 3.19984 9.16857 3.2594 9.01639 3.2594H3.85246C3.13534 3.26025 2.44783 3.54127 1.94075 4.04082C1.43367 4.54037 1.14841 5.21766 1.14754 5.92413V36.2051C1.14841 36.9116 1.43367 37.5889 1.94075 38.0884C2.44783 38.588 3.13534 38.869 3.85246 38.8699H26.1475C26.8647 38.869 27.5522 38.588 28.0592 38.0884C28.5663 37.5889 28.8516 36.9116 28.8525 36.2051V5.92413C28.8516 5.21766 28.5663 4.54037 28.0592 4.04082C27.5522 3.54127 26.8647 3.26025 26.1475 3.2594H20.7377C20.5855 3.2594 20.4396 3.19984 20.332 3.09384C20.2244 2.98784 20.1639 2.84406 20.1639 2.69415C20.1639 2.54424 20.2244 2.40047 20.332 2.29446C20.4396 2.18846 20.5855 2.12891 20.7377 2.12891H26.1475C27.169 2.12976 28.1484 2.52989 28.8707 3.24145C29.593 3.953 29.9991 4.91783 30 5.92413V36.2051C29.9991 37.2114 29.593 38.1763 28.8707 38.8878C28.1484 39.5994 27.169 39.9995 26.1475 40.0004Z" fill="#14387F"/>
<path d="M24.8044 37.7273H5.19783C4.39375 37.7264 3.62285 37.4114 3.05428 36.8513C2.48571 36.2911 2.16591 35.5317 2.16504 34.7396V7.22503C2.16591 6.4329 2.48571 5.67346 3.05428 5.11333C3.62285 4.55321 4.39375 4.23816 5.19783 4.2373H8.92733C9.07951 4.2373 9.22545 4.29686 9.33305 4.40286C9.44065 4.50887 9.5011 4.65264 9.5011 4.80255C9.5011 4.95246 9.44065 5.09624 9.33305 5.20224C9.22545 5.30824 9.07951 5.3678 8.92733 5.3678H5.19783C4.69796 5.36822 4.21869 5.56403 3.86524 5.91224C3.51178 6.26045 3.31301 6.73259 3.31258 7.22503V34.7396C3.31301 35.232 3.51178 35.7042 3.86524 36.0524C4.21869 36.4006 4.69796 36.5964 5.19783 36.5968H24.8044C25.3042 36.5964 25.7835 36.4006 26.137 36.0524C26.4904 35.7042 26.6892 35.232 26.6896 34.7396V7.22503C26.6892 6.73259 26.4904 6.26045 26.137 5.91224C25.7835 5.56403 25.3042 5.36822 24.8044 5.3678H20.6978C20.6225 5.3678 20.5479 5.35318 20.4783 5.32477C20.4086 5.29636 20.3454 5.25473 20.2921 5.20224C20.2388 5.14975 20.1966 5.08744 20.1677 5.01886C20.1389 4.95028 20.1241 4.87678 20.1241 4.80255C20.1241 4.72832 20.1389 4.65482 20.1677 4.58624C20.1966 4.51766 20.2388 4.45535 20.2921 4.40286C20.3454 4.35037 20.4086 4.30874 20.4783 4.28033C20.5479 4.25193 20.6225 4.2373 20.6978 4.2373H24.8044C25.6085 4.23816 26.3794 4.55321 26.9479 5.11333C27.5165 5.67346 27.8363 6.4329 27.8372 7.22503V34.7396C27.8363 35.5317 27.5165 36.2911 26.9479 36.8513C26.3794 37.4114 25.6085 37.7264 24.8044 37.7273Z" fill="#14387F"/>
<path d="M8.54471 31.6673C8.41704 31.667 8.29309 31.625 8.19225 31.5478L6.71685 30.4173C6.59663 30.3252 6.51847 30.1899 6.49956 30.041C6.48065 29.8921 6.52255 29.742 6.61603 29.6235C6.7095 29.5051 6.84691 29.4281 6.99801 29.4095C7.14912 29.3909 7.30155 29.4321 7.42176 29.5242L8.42504 30.2946L10.1267 27.9464C10.2152 27.8243 10.3492 27.7419 10.4994 27.7172C10.6496 27.6925 10.8036 27.7276 10.9275 27.8148C11.0514 27.9019 11.1351 28.034 11.1602 28.182C11.1852 28.3299 11.1496 28.4816 11.0611 28.6037L9.01193 31.4299C8.96681 31.492 8.90943 31.5444 8.84323 31.5841C8.77703 31.6238 8.70337 31.6499 8.62668 31.6609C8.59962 31.6655 8.57218 31.6676 8.54471 31.6673ZM23.6267 30.1331H12.9709C12.8188 30.1331 12.6728 30.0735 12.5652 29.9675C12.4576 29.8615 12.3972 29.7177 12.3972 29.5678C12.3972 29.4179 12.4576 29.2741 12.5652 29.1681C12.6728 29.0621 12.8188 29.0026 12.9709 29.0026H23.6267C23.7788 29.0026 23.9248 29.0621 24.0324 29.1681C24.14 29.2741 24.2004 29.4179 24.2004 29.5678C24.2004 29.7177 24.14 29.8615 24.0324 29.9675C23.9248 30.0735 23.7788 30.1331 23.6267 30.1331ZM8.54471 22.7041C8.41704 22.7038 8.29309 22.6618 8.19225 22.5846L6.71685 21.4541C6.59663 21.362 6.51847 21.2267 6.49956 21.0778C6.48065 20.929 6.52255 20.7788 6.61603 20.6604C6.7095 20.5419 6.84691 20.4649 6.99801 20.4463C7.14912 20.4277 7.30155 20.469 7.42176 20.561L8.4316 21.3362L10.1316 19.0575C10.2218 18.9367 10.357 18.8562 10.5075 18.8336C10.658 18.811 10.8114 18.8483 10.9341 18.9372C11.0567 19.0261 11.1384 19.1593 11.1613 19.3075C11.1842 19.4558 11.1464 19.6069 11.0562 19.7277L9.00701 22.4732C8.96196 22.5337 8.90512 22.5847 8.83981 22.6232C8.77451 22.6617 8.70205 22.6871 8.62668 22.6977C8.59964 22.7024 8.57218 22.7046 8.54471 22.7041ZM23.6267 21.1699H12.9709C12.8188 21.1699 12.6728 21.1103 12.5652 21.0043C12.4576 20.8983 12.3972 20.7546 12.3972 20.6047C12.3972 20.4547 12.4576 20.311 12.5652 20.205C12.6728 20.099 12.8188 20.0394 12.9709 20.0394H23.6267C23.7788 20.0394 23.9248 20.099 24.0324 20.205C24.14 20.311 24.2004 20.4547 24.2004 20.6047C24.2004 20.7546 24.14 20.8983 24.0324 21.0043C23.9248 21.1103 23.7788 21.1699 23.6267 21.1699ZM8.54471 13.6602C8.41704 13.6599 8.29309 13.6178 8.19225 13.5407L6.71685 12.4102C6.59663 12.3181 6.51847 12.1828 6.49956 12.0339C6.48065 11.885 6.52255 11.7349 6.61603 11.6164C6.7095 11.498 6.84691 11.421 6.99801 11.4024C7.14912 11.3838 7.30155 11.425 7.42176 11.5171L8.41848 12.2826L10.1234 9.86014C10.1665 9.79917 10.2213 9.74715 10.2847 9.70705C10.3482 9.66695 10.4191 9.63955 10.4933 9.62643C10.5675 9.61331 10.6436 9.61471 10.7173 9.63057C10.7909 9.64642 10.8607 9.67641 10.9226 9.71883C10.9845 9.76125 11.0373 9.81526 11.078 9.87778C11.1187 9.9403 11.1465 10.0101 11.1598 10.0832C11.1731 10.1563 11.1717 10.2313 11.1556 10.3039C11.1395 10.3764 11.1091 10.4452 11.066 10.5061L9.01684 13.4131C8.97191 13.4773 8.91412 13.5318 8.84702 13.5732C8.77992 13.6146 8.70494 13.642 8.62668 13.6537C8.59949 13.6573 8.57213 13.6595 8.54471 13.6602ZM23.6267 12.0452H12.9709C12.8188 12.0452 12.6728 11.9857 12.5652 11.8797C12.4576 11.7737 12.3972 11.6299 12.3972 11.48C12.3972 11.3301 12.4576 11.1863 12.5652 11.0803C12.6728 10.9743 12.8188 10.9147 12.9709 10.9147H23.6267C23.7788 10.9147 23.9248 10.9743 24.0324 11.0803C24.14 11.1863 24.2004 11.3301 24.2004 11.48C24.2004 11.6299 24.14 11.7737 24.0324 11.8797C23.9248 11.9857 23.7788 12.0452 23.6267 12.0452ZM17.889 5.66602H12.0693C11.6999 5.66559 11.3457 5.52083 11.0845 5.26348C10.8232 5.00614 10.6763 4.65722 10.6759 4.29328V3.24354C10.6763 2.8796 10.8232 2.53069 11.0845 2.27334C11.3457 2.01599 11.6999 1.87123 12.0693 1.8708H12.7611C12.9644 0.307494 14.007 -0.5 15.0382 -0.5C16.0218 -0.5 17.0824 0.246124 17.2824 1.8708H17.889C18.2584 1.87123 18.6126 2.01599 18.8738 2.27334C19.135 2.53069 19.282 2.8796 19.2824 3.24354V4.29328C19.282 4.65722 19.135 5.00614 18.8738 5.26348C18.6126 5.52083 18.2584 5.66559 17.889 5.66602ZM12.0693 3.00129C12.0041 3.00129 11.9415 3.02681 11.8954 3.07224C11.8493 3.11768 11.8234 3.17929 11.8234 3.24354V4.29328C11.8234 4.35753 11.8493 4.41915 11.8954 4.46458C11.9415 4.51001 12.0041 4.53553 12.0693 4.53553H17.889C17.9542 4.53553 18.0167 4.51001 18.0629 4.46458C18.109 4.41915 18.1349 4.35753 18.1349 4.29328V3.24354C18.1349 3.17929 18.109 3.11768 18.0629 3.07224C18.0167 3.02681 17.9542 3.00129 17.889 3.00129H16.7414C16.5893 3.00129 16.4433 2.94174 16.3357 2.83574C16.2281 2.72973 16.1677 2.58596 16.1677 2.43605C16.1677 1.19574 15.5824 0.630491 15.0382 0.630491C14.4595 0.630491 13.8726 1.25065 13.8726 2.43605C13.8726 2.58596 13.8121 2.72973 13.7045 2.83574C13.5969 2.94174 13.451 3.00129 13.2988 3.00129H12.0693Z" fill="#14387F"/>
</svg>
