<svg width="32" height="40" viewBox="0 0 32 40" fill="none" xmlns="http://www.w3.org/2000/svg">
<path d="M29.4743 24.8209L27.4955 24.1113C27.8614 23.3498 28.0174 22.5064 27.9478 21.6663C27.7649 19.9036 26.4049 18.7053 25.2816 17.9247C25.5135 8.17227 25.0237 2.52434 21.8776 0.645462C19.6588 -0.678624 16.3265 0.000353052 11.1135 2.85496C10.1796 2.70175 9.37959 2.89044 8.73633 3.41782C6.48653 5.26606 6.65306 11.0495 6.84408 17.7409V17.886C6.07674 18.3698 5.20163 19.3375 4.73959 20.789C4.41602 21.8617 4.3473 22.9936 4.53878 24.0968L2.52898 24.8129C1.78728 25.08 1.14675 25.5661 0.694327 26.2051C0.241901 26.8442 -0.000508969 27.6053 8.02363e-07 28.3852V37.0135C0.000865128 37.8045 0.319363 38.5629 0.885612 39.1223C1.45186 39.6816 2.21961 39.9963 3.02041 39.9971H16C16 39.9971 16 39.9971 16.0131 39.9971H28.9796C29.7804 39.9963 30.5481 39.6816 31.1144 39.1223C31.6806 38.5629 31.9991 37.8045 32 37.0135V28.3852C31.9986 27.6072 31.7557 26.8484 31.3041 26.211C30.8524 25.5737 30.2138 25.0885 29.4743 24.8209ZM25.2457 19.3165C26.2253 20.1229 26.7151 20.9051 26.8098 21.7809C26.8554 22.4492 26.719 23.1175 26.4147 23.7162L25.1086 23.2485C25.169 21.7067 25.2131 20.4406 25.2457 19.3165ZM9.46939 4.29194C9.88571 3.95326 10.4163 3.85811 11.102 4.00487L11.3127 4.05003L11.502 3.9452C16.3592 1.26638 19.4727 0.526117 21.298 1.61635C23.982 3.21784 24.3739 8.9077 24.142 18.194V18.2118C24.1094 19.5181 24.062 20.9712 23.9935 22.8485L21.2506 21.8647C20.5127 20.7455 20.3249 19.7778 20.1714 18.0505C23.2082 16.2329 22.8996 11.7913 22.7135 9.09962C22.7004 8.91899 22.689 8.74481 22.6775 8.58192L22.6449 8.05938H22.1159C18.5241 8.011 17.262 7.32396 15.489 5.41927L14.9404 4.829L14.5633 5.53862C12.9502 8.54805 11.8971 9.39314 9.42857 9.67699L8.91592 9.73505V10.2447C8.91592 10.3511 8.91592 10.464 8.91592 10.5801C8.93061 12.6187 8.95674 16.191 11.9804 18.0666C11.8269 19.6117 11.6539 20.5245 10.8245 21.8744L8.08816 22.8421C8.07837 21.3083 8.03755 19.7778 7.99347 18.2134C7.99347 18.2053 7.99347 18.1973 7.99347 18.1876L7.98041 17.715C7.81061 11.5801 7.64408 5.78537 9.46939 4.29194ZM13.4873 18.7521C15.4825 19.4198 17.6359 18.9843 19.0612 18.515C19.2245 20.1616 19.4661 21.2212 20.2514 22.4292L18.9388 27.0611C18.1233 26.4162 17.1099 26.0647 16.0653 26.0644H16.0457C14.9897 26.0625 13.9645 26.415 13.138 27.0643L11.8318 22.4211C12.6906 21.0293 12.9241 20.0294 13.0841 18.6053C13.2114 18.6569 13.3453 18.7085 13.4841 18.7521H13.4873ZM10.0686 10.7221C12.3804 10.3576 13.698 9.3367 15.1837 6.73852C16.9616 8.47064 18.5649 9.06898 21.551 9.16897C21.7257 11.672 22.0163 15.8555 19.3143 17.2103C18.3445 17.5893 15.9184 18.3714 13.84 17.6747C10.1992 16.4587 10.0865 12.93 10.0686 10.7221ZM5.83674 21.1357C6.04378 20.4607 6.4033 19.8408 6.88816 19.323C6.92408 20.6422 6.95184 21.947 6.95674 23.2485L5.65061 23.7162C5.52362 22.8528 5.58711 21.9726 5.83674 21.1357ZM3.02041 38.8682C2.52315 38.8678 2.04633 38.6727 1.69441 38.3256C1.34249 37.9786 1.14415 37.5079 1.14286 37.0167V28.3852C1.14472 27.8386 1.31638 27.3058 1.63464 26.8588C1.9529 26.4117 2.40242 26.0719 2.92245 25.8854L4.79184 25.2193C5.05038 26.0982 5.40628 26.9463 5.85306 27.7481C4.54694 29.3996 5.63429 30.8592 7.09714 32.8316L7.72408 33.6799L9.00245 32.7993C9.1213 32.7117 9.20099 32.5818 9.22468 32.4372C9.24837 32.2925 9.21421 32.1445 9.12941 32.0243C9.04461 31.9041 8.91582 31.8211 8.77026 31.793C8.62471 31.7649 8.47378 31.7938 8.34939 31.8736L7.98857 32.122C6.39347 29.9705 5.96735 29.2754 6.92082 28.2513C7.05009 28.1606 7.1964 28.0963 7.35116 28.0623C7.50593 28.0282 7.66602 28.025 7.82204 28.0529C8.8702 28.2529 9.89225 29.7802 10.4343 30.6011C10.3151 30.6769 10.1992 30.7463 10.1159 30.7914C10.0483 30.8259 9.98838 30.8733 9.93959 30.9309C9.8908 30.9886 9.85415 31.0553 9.83179 31.1271C9.80942 31.1989 9.8018 31.2744 9.80936 31.3491C9.81691 31.4239 9.8395 31.4964 9.8758 31.5624C9.9121 31.6285 9.96138 31.6867 10.0207 31.7336C10.0801 31.7806 10.1484 31.8154 10.2215 31.8359C10.2947 31.8565 10.3712 31.8624 10.4467 31.8534C10.5223 31.8444 10.5952 31.8205 10.6612 31.7833C11.0054 31.6037 11.3262 31.3832 11.6163 31.1269L11.9608 30.785L11.6735 30.3963C11.6 30.2979 11.5102 30.1528 11.3927 29.985C10.7053 28.9593 9.55755 27.2433 8.03755 26.9514C7.6147 26.8672 7.17618 26.9065 6.77551 27.0643C6.39587 26.356 6.09481 25.6092 5.87755 24.8371L7.71755 24.1807H7.74367L10.8261 23.063L12.2857 28.2787C12.2857 28.2787 12.2857 28.2868 12.2857 28.2916L15.249 38.8682H3.02041ZM16 37.3344L13.471 28.2836C13.802 27.9359 14.2021 27.6594 14.6463 27.4716C15.0905 27.2837 15.5691 27.1884 16.0522 27.1917C16.5269 27.1921 16.9965 27.2887 17.4318 27.4757C17.8671 27.6627 18.2589 27.936 18.5829 28.2787L16 37.3344ZM30.8571 37.0119C30.8571 37.5039 30.6594 37.9758 30.3073 38.3239C29.9553 38.672 29.4777 38.8678 28.9796 38.8682H16.7543L19.7649 28.2965C19.7643 28.2922 19.7643 28.2878 19.7649 28.2836L21.2506 23.0662L24.3135 24.1678H24.338L25.8433 24.708C25.4401 25.3079 24.9874 25.8737 24.4898 26.3998C23.9663 26.111 23.3536 26.022 22.7681 26.1496C22.1825 26.2773 21.6647 26.6127 21.3128 27.0923C20.9609 27.5719 20.7994 28.1624 20.8588 28.7518C20.9183 29.3412 21.1946 29.8886 21.6354 30.2902C22.0762 30.6918 22.6508 30.9197 23.2503 30.9307C23.8499 30.9417 24.4327 30.735 24.8882 30.3498C25.3438 29.9647 25.6404 29.4278 25.722 28.8409C25.8035 28.2541 25.6643 27.6581 25.3306 27.1659C25.9394 26.5353 26.486 25.8489 26.9633 25.1161L29.0955 25.8821C29.6127 26.0718 30.0587 26.4133 30.3737 26.8608C30.6886 27.3082 30.8573 27.8402 30.8571 28.3852V37.0119ZM24.1714 27.553C24.3961 27.7562 24.5418 28.0307 24.5833 28.3288C24.6248 28.627 24.5595 28.9301 24.3986 29.1856C24.2378 29.4412 23.9915 29.6333 23.7025 29.7285C23.4135 29.8237 23.0999 29.8161 22.8159 29.707C22.532 29.5979 22.2956 29.3942 22.1476 29.1311C21.9996 28.8681 21.9494 28.5622 22.0057 28.2664C22.0619 27.9706 22.221 27.7035 22.4555 27.5114C22.69 27.3193 22.9851 27.2142 23.2898 27.2143C23.617 27.2148 23.932 27.3375 24.1714 27.5578V27.553Z" fill="#74B8E6"/>
</svg>
