<svg width="36" height="40" viewBox="0 0 36 40" fill="none" xmlns="http://www.w3.org/2000/svg">
<path d="M35.7128 37.9518L33.9433 27.5922C33.7526 26.476 32.9608 25.5794 31.8766 25.2523L27.1038 23.8123C27.005 22.6455 26.5266 21.5448 25.7305 20.6736C25.0937 19.9767 24.2928 19.4693 23.4099 19.1893C23.561 19.0216 23.7011 18.8545 23.8296 18.6911C24.9646 17.2476 25.5723 15.6573 25.7269 14.572H26.0952C27.0528 14.572 27.8319 13.793 27.8319 12.8352V11.9449C27.8319 11.3058 27.4724 10.7266 26.9317 10.4261V8.28516C26.9317 7.96164 26.6694 7.69938 26.3459 7.69938C26.0224 7.69938 25.7602 7.96156 25.7602 8.28516V10.6886C25.5321 10.7282 25.2599 10.7966 24.9815 10.9139C24.953 10.9243 24.9252 10.9363 24.899 10.9508C24.8361 10.9795 24.7731 11.0097 24.7104 11.0437V6.32328C24.7104 5.01914 23.6494 3.9582 22.3453 3.9582H20.7285C20.1709 3.9582 19.6261 4.1525 19.1944 4.50547L19.0357 4.63516C18.7443 4.87344 18.3765 5.00469 18 5.00469C17.6235 5.00469 17.2556 4.87344 16.9642 4.63516L16.8056 4.50547C16.3739 4.15258 15.8291 3.9582 15.2715 3.9582H13.6545C12.3504 3.9582 11.2894 5.01914 11.2894 6.32328V11.0437C11.2267 11.0097 11.1637 10.9795 11.1009 10.9508C11.0746 10.9363 11.047 10.9243 11.0184 10.9139C10.74 10.7966 10.4677 10.7282 10.2397 10.6886V4.61133C10.2397 2.71461 11.7828 1.17148 13.6795 1.17148H22.3202C24.217 1.17148 25.7601 2.71461 25.7601 4.61133L25.7602 8.28516C25.7602 8.60867 26.0225 8.87094 26.3459 8.87094C26.6694 8.87094 26.9317 8.60875 26.9317 8.28516L26.9316 4.61133C26.9316 2.06867 24.8629 0 22.3202 0H13.6795C11.1368 0 9.0682 2.06867 9.0682 4.61133V10.4262C8.5275 10.7267 8.16796 11.3058 8.16796 11.945V12.8353C8.16796 13.793 8.94711 14.5721 9.90476 14.5721H10.273C10.4276 15.6573 11.0353 17.2477 12.1703 18.6912C12.2987 18.8545 12.4387 19.0214 12.5896 19.1889C10.5599 19.8336 9.07976 21.6584 8.89609 23.8123L4.12312 25.2523C3.03898 25.5794 2.24711 26.476 2.05648 27.5922L0.870856 34.533C0.816403 34.8519 1.03078 35.1545 1.34961 35.2089C1.66836 35.2635 1.97109 35.0491 2.02562 34.7302L3.21125 27.7894C3.32656 27.1141 3.80562 26.5717 4.46148 26.3739L8.87593 25.042V26.2006C7.86406 26.3869 7.00304 27.082 6.64843 28.045C6.55429 28.3006 6.49578 28.5683 6.47453 28.8405L6.04789 34.3166C6.0157 34.7291 6.15843 35.1399 6.43929 35.4434C6.72015 35.747 7.11851 35.9212 7.53218 35.9212H8.2625C8.58601 35.9212 8.84828 35.6591 8.84828 35.3355C8.84828 35.0119 8.58601 34.7498 8.2625 34.7498H7.53218C7.44398 34.7498 7.35914 34.7127 7.29922 34.6479C7.23937 34.5832 7.20898 34.4957 7.21586 34.4078L7.6425 28.9316C7.65539 28.7666 7.69078 28.6045 7.74781 28.4498C7.99453 27.7798 8.66078 27.3262 9.40586 27.3209L9.50234 27.3202C9.50687 27.3202 9.51133 27.3202 9.51578 27.3202C10.2399 27.3202 10.8809 27.7308 11.1513 28.3691C11.2272 28.5481 11.2733 28.7373 11.2884 28.9316L11.7152 34.4079C11.722 34.4957 11.6916 34.5832 11.6318 34.648C11.5719 34.7127 11.487 34.7498 11.3988 34.7498H10.6685C10.345 34.7498 10.0827 35.012 10.0827 35.3355C10.0827 35.659 10.345 35.9212 10.6685 35.9212H11.3988C11.8125 35.9212 12.2109 35.7471 12.4917 35.4434C12.7727 35.1398 12.9154 34.7291 12.8832 34.3167L12.4564 28.8405C12.4314 28.52 12.3552 28.2076 12.23 27.912C11.8441 27.0013 11.0191 26.3681 10.0473 26.1968V24.6885L12.0609 24.0809C12.2441 24.4668 12.6072 25.3006 13.3263 27.098C14.0511 28.9116 14.952 31.2362 15.8159 33.4961C15.8221 33.5151 15.8292 33.5336 15.8372 33.5517C16.4137 35.0604 16.973 36.538 17.4514 37.8127C17.5372 38.0413 17.7557 38.1927 17.9998 38.1927C18.244 38.1927 18.4625 38.0413 18.5483 37.8127C19.0266 36.538 19.5859 35.0604 20.1625 33.5517C20.1705 33.5336 20.1776 33.515 20.1837 33.4961C21.0471 31.2376 21.9475 28.9145 22.6719 27.1014C23.392 25.3016 23.7554 24.4671 23.9387 24.0809L25.9523 24.6885V28.1483C24.5571 28.4193 23.5003 29.6498 23.5003 31.123C23.5003 32.7942 24.8599 34.1539 26.5312 34.1539C28.2024 34.1539 29.562 32.7943 29.562 31.123C29.562 29.6546 28.5122 28.4271 27.1237 28.1508V25.042L31.5383 26.374C32.1941 26.5718 32.6731 27.1141 32.7885 27.7895L34.558 38.1491C34.5874 38.3209 34.5417 38.4888 34.4293 38.622C34.3169 38.7552 34.1591 38.8286 33.9848 38.8286H2.01492C1.84062 38.8286 1.68281 38.7552 1.57039 38.622C1.45804 38.4888 1.41226 38.3209 1.44164 38.1491L2.02562 34.7302C2.08007 34.4113 1.8657 34.1087 1.54687 34.0542C1.22812 33.9995 0.925387 34.2141 0.870856 34.533L0.286872 37.9519C0.199762 38.4622 0.341247 38.9818 0.674997 39.3775C1.0089 39.7731 1.49726 40 2.01492 40H33.9848C34.5024 40 34.9909 39.7731 35.3247 39.3774C35.6584 38.9817 35.7999 38.4621 35.7128 37.9518ZM25.7671 11.882C26.0792 11.8041 26.3298 11.8055 26.3326 11.8056C26.4335 11.807 26.5316 11.7834 26.6188 11.7377C26.6449 11.8026 26.6603 11.8723 26.6603 11.945V12.8353C26.6603 13.147 26.4067 13.4006 26.095 13.4006H25.7671V11.882ZM10.2326 13.4006H9.90468C9.59297 13.4006 9.33937 13.147 9.33937 12.8353V11.945C9.33937 11.8723 9.35484 11.8026 9.38086 11.7377C9.46797 11.7834 9.56609 11.807 9.66711 11.8056C9.67156 11.8064 9.9214 11.805 10.2326 11.8823V13.4006ZM11.4041 14.0574V12.5185C11.5816 12.5717 11.7757 12.5645 11.9549 12.4897C12.2623 12.3614 12.4609 12.0635 12.4609 11.7306V6.32328C12.4609 5.66516 12.9964 5.12969 13.6545 5.12969H15.2713C15.5594 5.12969 15.8409 5.23008 16.064 5.41242L16.2226 5.54211C16.7227 5.95102 17.3538 6.17609 17.9998 6.17609C18.6459 6.17609 19.277 5.95094 19.7771 5.54211L19.9357 5.41242C20.1587 5.23008 20.4402 5.12969 20.7284 5.12969H22.3452C23.0033 5.12969 23.5387 5.66516 23.5387 6.32328V11.7307C23.5387 12.0635 23.7373 12.3615 24.0448 12.4898C24.1474 12.5326 24.2549 12.5534 24.3615 12.5534C24.4409 12.5534 24.5198 12.5417 24.5956 12.5191V14.0574C24.5956 14.9127 24.0044 16.5734 22.9086 17.967C22.5456 18.4287 22.0791 18.9246 21.5046 19.358C21.4864 19.3702 21.469 19.3834 21.4523 19.3975C20.5624 20.0555 19.4181 20.5595 17.9998 20.5595C16.5816 20.5595 15.4373 20.0555 14.5473 19.3974C14.5306 19.3834 14.5133 19.3702 14.4952 19.3581C13.9207 18.9246 13.4541 18.4287 13.0911 17.967C11.9954 16.5735 11.4041 14.9127 11.4041 14.0574ZM21.8373 23.5211L17.9998 26.3894L14.1623 23.5211C14.5429 23.0374 14.7561 22.4166 14.7561 21.8625V20.9183C15.6585 21.4036 16.7353 21.7311 17.9998 21.7311C19.2644 21.7311 20.3412 21.4036 21.2436 20.9183V21.8625C21.2436 22.4166 21.4568 23.0374 21.8373 23.5211ZM13.1848 22.8673C12.872 22.7481 12.5252 22.7286 12.1971 22.8176C12.1827 22.8209 12.1687 22.8248 12.155 22.8288L10.1313 23.4395C10.4736 21.7565 11.8402 20.417 13.5846 20.1575V21.8625C13.5846 22.23 13.4205 22.6099 13.1848 22.8673ZM14.7745 27.5695C14.7734 27.5667 14.7723 27.564 14.7713 27.5613C14.7416 27.4862 14.7123 27.4122 14.6833 27.339C14.678 27.3257 14.6728 27.3125 14.6676 27.2994C14.6391 27.2277 14.6109 27.1566 14.5831 27.0867C14.5812 27.0818 14.5792 27.077 14.5773 27.072C14.4905 26.8538 14.4068 26.6445 14.3263 26.4439C14.3205 26.4294 14.3146 26.4146 14.3087 26.4002C14.2856 26.3427 14.2629 26.286 14.2403 26.2301C14.232 26.2095 14.2238 26.1892 14.2156 26.1689C14.1937 26.1147 14.172 26.0608 14.1506 26.008C14.1442 25.9923 14.138 25.977 14.1316 25.9612C14.0928 25.8655 14.0548 25.7721 14.0178 25.6811C14.0078 25.6565 13.9976 25.6314 13.9877 25.6071C13.9731 25.5716 13.959 25.5371 13.9448 25.5023C13.9295 25.4648 13.9141 25.4277 13.8991 25.3911C13.8935 25.3774 13.8877 25.363 13.882 25.3494C13.8775 25.3384 13.8734 25.3284 13.8689 25.3175C13.8012 25.1531 13.737 24.9982 13.6759 24.8525L13.6744 24.849C13.6419 24.7714 13.6102 24.6956 13.5796 24.6234C13.5637 24.586 13.5481 24.5492 13.5328 24.5131L16.8332 26.9798L15.4541 27.5657C15.4517 27.5667 15.4492 27.5677 15.4468 27.5688L14.871 27.8134C14.8384 27.7309 14.8064 27.6499 14.7745 27.5695ZM16.1722 31.156C16.0565 30.8558 15.9399 30.5538 15.8231 30.2522C15.6405 29.7804 15.466 29.3318 15.2991 28.9045L15.5177 28.8116L16.4108 29.8498L16.1722 31.156ZM18.0112 35.9168C17.9944 35.882 17.9744 35.8491 17.9512 35.8184C17.6866 35.1188 17.3506 34.2336 16.9788 33.2596L17.5257 30.2655H18.474L19.0209 33.2596C18.6312 34.28 18.2813 35.2027 18.0112 35.9168ZM18.6937 29.0941H17.306L16.6494 28.3308L17.9998 27.7571L19.3503 28.3308L18.6937 29.0941ZM20.1766 30.2522C20.0598 30.5538 19.9432 30.8558 19.8275 31.156L19.5889 29.8497L20.482 28.8115L20.7006 28.9044C20.5337 29.3317 20.3592 29.7804 20.1766 30.2522ZM22.4202 24.6234C22.3912 24.6919 22.361 24.7637 22.3303 24.837C22.3263 24.8465 22.3223 24.8561 22.3183 24.8657C22.2879 24.9384 22.2569 25.0126 22.2249 25.0898C22.2228 25.0949 22.2206 25.1003 22.2185 25.1055C22.1909 25.1721 22.1625 25.2409 22.1337 25.3109C22.1283 25.3241 22.1232 25.3362 22.1178 25.3494C22.1114 25.3651 22.1045 25.3817 22.098 25.3976C22.0852 25.4288 22.0722 25.4607 22.0591 25.4926C22.043 25.5319 22.0269 25.571 22.0105 25.6112C22.0052 25.6241 21.9998 25.6374 21.9945 25.6503C21.9537 25.7502 21.9119 25.8532 21.8691 25.959C21.8623 25.9755 21.8557 25.9918 21.849 26.0086C21.8278 26.0609 21.8062 26.1142 21.7846 26.1679C21.7762 26.1889 21.7677 26.2098 21.7591 26.2311C21.7368 26.2865 21.7142 26.3426 21.6914 26.3995C21.685 26.4153 21.6785 26.4316 21.6721 26.4475C21.5927 26.6453 21.5102 26.8516 21.4247 27.0666C21.4219 27.0737 21.4191 27.0807 21.4162 27.0879C21.3886 27.1573 21.3606 27.228 21.3323 27.2991C21.3271 27.3124 21.3218 27.3257 21.3165 27.3391C21.2873 27.4127 21.2578 27.487 21.228 27.5626L21.2263 27.5667C21.1941 27.6481 21.1618 27.73 21.1288 27.8136L20.5525 27.5688C20.5505 27.5679 20.5484 27.567 20.5465 27.5662L19.1666 26.98L22.467 24.5133C22.4516 24.5492 22.4359 24.5859 22.4202 24.6234ZM23.8447 22.8289L23.8429 22.8284C23.503 22.7264 23.1405 22.7433 22.815 22.8673C22.5791 22.6099 22.4152 22.23 22.4152 21.8625V20.1566C24.1705 20.4154 25.533 21.7423 25.8708 23.4402L23.8447 22.8289ZM28.3905 31.123C28.3905 32.1484 27.5564 32.9824 26.5312 32.9824C25.5059 32.9824 24.6718 32.1484 24.6718 31.123C24.6718 30.0977 25.5059 29.2637 26.5312 29.2637C27.5564 29.2637 28.3905 30.0977 28.3905 31.123Z" fill="#14387F"/>
</svg>
