<svg width="36" height="40" viewBox="0 0 36 40" fill="none" xmlns="http://www.w3.org/2000/svg">
<path d="M22.8456 40H0.753346C0.606674 40 0.465786 39.9432 0.360731 39.8415C0.255676 39.7398 0.194768 39.6013 0.190997 39.4557C0.0496059 34.132 1.15502 31.5316 7.98355 30.4972V28.173C7.07109 27.6568 6.2306 27.0241 5.48351 26.291C3.93785 24.7825 2.86778 22.9723 2.59142 21.4622C2.25333 21.4549 1.92948 21.3255 1.68042 21.0983C-0.236389 19.4525 -1.11205 11.8206 2.3697 6.49214C4.94044 2.55407 8.78852 0.0111741 12.1755 0H12.1964C13.9445 0 15.3809 0.716737 16.2453 2.01932L16.2581 2.04007C16.9008 3.09522 17.2945 4.053 17.4824 4.9581C20.4324 6.17448 21.8206 7.51217 22.0294 11.6019C23.1654 12.6331 23.5944 14.3555 23.4755 15.9837C23.3148 18.019 22.3829 19.5227 21.1184 19.8835C21.1247 20.1713 21.1124 20.4592 21.0815 20.7455C21.0735 20.8188 21.051 20.8899 21.0153 20.9547C20.9796 21.0194 20.9315 21.0765 20.8736 21.1228C20.8157 21.169 20.7492 21.2035 20.6779 21.2242C20.6066 21.2449 20.5319 21.2515 20.4581 21.2435C20.3842 21.2355 20.3127 21.2132 20.2475 21.1778C20.1824 21.1423 20.1249 21.0945 20.0783 21.037C20.0318 20.9795 19.9971 20.9134 19.9762 20.8426C19.9554 20.7717 19.9488 20.6975 19.9568 20.6242C19.9946 20.2656 19.9995 19.9044 19.9712 19.5451C19.9595 19.5002 19.9536 19.4541 19.9536 19.4078C19.9528 19.3945 19.9528 19.3812 19.9536 19.3679C19.6194 16.1386 16.888 12.515 13.7709 11.4023C12.9129 11.9339 11.9875 12.4272 11.0106 12.946C7.47583 14.8264 3.81574 16.7771 3.64382 20.7008C3.62775 22.0193 4.68176 23.9444 6.26919 25.4897C8.08959 27.2679 10.2828 28.2544 12.2944 28.1874C14.4988 28.0405 15.2957 27.4068 17.2189 25.8776L17.272 25.8361C17.3884 25.7449 17.5364 25.7032 17.6837 25.7199C17.831 25.7367 17.9657 25.8105 18.0585 25.9254C18.1513 26.0403 18.1946 26.187 18.1791 26.3335C18.1636 26.4799 18.0905 26.6144 17.9757 26.7076L17.9211 26.7507C17.1964 27.327 16.602 27.7995 16.0171 28.1746V30.4893C19.29 30.9059 21.2341 31.7791 22.2833 33.2956C23.3325 34.812 23.408 36.8952 23.408 39.4493C23.4055 39.5959 23.3452 39.7358 23.24 39.8387C23.1349 39.9417 22.9933 39.9996 22.8456 40ZM1.30445 38.8826H22.2833C22.2833 34.314 21.782 32.2324 15.3937 31.5396C15.2561 31.5243 15.1289 31.4593 15.0365 31.3568C14.944 31.2544 14.8927 31.1217 14.8924 30.9841V28.7717C14.0838 29.0889 13.2273 29.2686 12.3586 29.3032H12.3393C11.2324 29.332 10.1316 29.1297 9.10825 28.7094V30.9793C9.10814 31.1137 9.0594 31.2437 8.97092 31.3453C8.88243 31.447 8.7601 31.5137 8.62624 31.5332C2.10298 32.4192 1.24821 34.48 1.30445 38.8826ZM12.1964 1.11741H12.1787C9.70755 1.11741 6.0073 2.97869 3.31284 7.10033C0.0688864 12.0648 1.02488 19.0598 2.40987 20.2522C2.44669 20.2874 2.48972 20.3155 2.5368 20.3352C2.90955 15.9853 6.92473 13.8495 10.4772 11.9611C11.5199 11.4055 12.5032 10.882 13.3853 10.3185C15.805 8.77963 16.7096 7.31902 16.4284 5.45295C16.4284 5.45295 16.4284 5.44177 16.4284 5.43539C16.2983 4.59893 15.9191 3.65392 15.3037 2.62431C14.4682 1.3808 13.1588 1.11741 12.1964 1.11741ZM14.8844 10.6537C17.9371 12.0904 20.4516 15.4793 21.0011 18.7309C21.7675 18.3494 22.256 17.0931 22.3476 15.8991C22.4488 14.579 22.1178 13.1854 21.2229 12.4048C21.1521 12.3692 21.0897 12.3192 21.0397 12.258C20.7175 12.0244 20.3432 11.8716 19.9487 11.8126C19.8013 11.7902 19.6689 11.7104 19.5806 11.591C19.4923 11.4716 19.4554 11.3222 19.478 11.1757C19.5006 11.0292 19.5808 10.8976 19.701 10.8099C19.8212 10.7222 19.9716 10.6855 20.1191 10.708C20.3686 10.7457 20.614 10.8072 20.8517 10.8915C20.593 8.22891 19.6997 7.18333 17.6013 6.22556C17.5483 8.23849 16.2742 9.62567 14.8844 10.6537Z" fill="#14387F"/>
<path d="M35.7493 36.4754L32.5552 39.735C32.3913 39.9015 32.1678 39.9967 31.9335 39.9997C31.6991 40.0026 31.4732 39.9132 31.3051 39.751L30.6142 39.0837C30.4471 38.9208 30.3515 38.6987 30.3485 38.4661C30.3455 38.2334 30.4353 38.009 30.5982 37.8418L31.8032 36.6127L31.2859 36.1114L28.8469 38.5984C28.7967 38.6562 28.7352 38.7031 28.6661 38.7364C28.597 38.7696 28.5218 38.7885 28.4451 38.7917C28.3685 38.795 28.2919 38.7827 28.2202 38.7554C28.1485 38.7282 28.0832 38.6867 28.0282 38.6334C27.9733 38.5801 27.9299 38.5162 27.9008 38.4457C27.8716 38.3751 27.8573 38.2994 27.8588 38.2231C27.8602 38.1469 27.8773 38.0717 27.9091 38.0023C27.9409 37.9329 27.9866 37.8706 28.0435 37.8195L28.8838 36.9606L20.9981 29.3335C20.8307 29.1708 20.7349 28.9489 20.7315 28.7162C20.7282 28.4835 20.8177 28.259 20.9804 28.0916L20.32 27.4531C20.142 27.2807 20.0224 27.0576 19.9778 26.8146L19.8702 26.2527C19.8667 26.2362 19.8583 26.2212 19.8461 26.2096L19.3014 25.6828C19.1388 25.5249 19.0434 25.3109 19.035 25.0851C19.0267 24.8594 19.1059 24.639 19.2564 24.4696L17.1837 22.4647C17.0844 22.3597 17.0298 22.2206 17.0313 22.0765C17.0327 21.9324 17.0902 21.7945 17.1916 21.6915C17.293 21.5885 17.4305 21.5284 17.5754 21.5237C17.7204 21.5191 17.8615 21.5702 17.9694 21.6665L20.0421 23.6715C20.2079 23.5168 20.4274 23.4317 20.6549 23.4338C20.8823 23.4359 21.1002 23.525 21.2632 23.6826L21.7918 24.1951C21.8052 24.2072 21.822 24.215 21.84 24.2174L22.4152 24.2733C22.6876 24.2989 22.9428 24.4167 23.1382 24.6069L23.7809 25.2327C23.9484 25.0905 24.1632 25.0155 24.3833 25.0223C24.6035 25.0291 24.8132 25.1172 24.9715 25.2694L32.8572 32.8981L33.5867 32.1542C33.6928 32.0587 33.8315 32.007 33.9747 32.0097C34.1178 32.0123 34.2545 32.0691 34.357 32.1685C34.4594 32.2678 34.5199 32.4022 34.526 32.5443C34.5321 32.6864 34.4835 32.8255 34.39 32.9332L32.0699 35.3101L32.5873 35.8113L33.7923 34.5822C33.9561 34.4158 34.1795 34.3207 34.4137 34.3174C34.6479 34.3141 34.8739 34.403 35.0423 34.5646L35.7332 35.2335C35.9008 35.3962 35.9966 35.6183 35.9996 35.8511C36.0026 36.0839 35.9126 36.3084 35.7493 36.4754ZM31.9173 38.79L34.7756 35.8736L34.4302 35.5399L31.5718 38.45L31.9173 38.79ZM30.8713 34.9381L32.0764 33.7074L26.7228 28.5306L24.3127 30.9889L25.4631 32.1063L26.3597 31.1916C26.4658 31.0962 26.6045 31.0445 26.7477 31.0471C26.8908 31.0498 27.0275 31.1066 27.13 31.2059C27.2324 31.3052 27.2929 31.4397 27.299 31.5817C27.3052 31.7238 27.2565 31.8629 27.163 31.9706L26.2713 32.8837L27.5374 34.1081L28.4339 33.1934C28.54 33.0979 28.6788 33.0462 28.8219 33.0489C28.9651 33.0515 29.1018 33.1083 29.2042 33.2077C29.3067 33.307 29.3671 33.4414 29.3733 33.5835C29.3794 33.7256 29.3308 33.8647 29.2373 33.9724L28.3407 34.8887L29.6647 36.1657L30.8713 34.9381ZM23.5078 30.2099L25.9178 27.75L24.3625 26.2479L21.9525 28.7062L23.5078 30.2099ZM21.7645 27.2967L22.9968 26.0388L22.3541 25.4146C22.3412 25.4018 22.3241 25.3939 22.3059 25.3923L21.7307 25.3364C21.4586 25.31 21.2036 25.1924 21.0077 25.0028L20.651 24.658L20.2574 25.0618L20.6301 25.4226C20.8088 25.5945 20.9285 25.8179 20.9724 26.0611L21.08 26.623C21.0831 26.6391 21.0916 26.6538 21.1041 26.6645L21.7645 27.2967Z" fill="#14387F"/>
</svg>
