<svg width="195" height="42" viewBox="0 0 195 42" fill="none" xmlns="http://www.w3.org/2000/svg">
<path fill-rule="evenodd" clip-rule="evenodd" d="M15.315 26.69C14.6229 25.9937 13.7995 25.4415 12.8926 25.0656C11.9856 24.6897 11.013 24.4974 10.0312 24.5C5.91562 24.5 2.5625 27.85 2.5625 31.9657C2.55938 33.2761 2.9031 34.5641 3.55875 35.6988L2.5 39.5682L6.46 38.5282C7.55499 39.1246 8.78183 39.4377 10.0287 39.4388H10.0319C14.1481 39.4388 17.4975 36.0894 17.5 31.9707C17.5 29.9763 16.7237 28.1013 15.315 26.6894V26.69ZM10.0312 38.1769H10.0287C8.91722 38.1769 7.82609 37.8784 6.86938 37.3125L6.6425 37.1782L4.29125 37.7938L4.91875 35.5032L4.7725 35.2688C4.15037 34.2795 3.82101 33.1343 3.8225 31.9657C3.8225 28.5457 6.60813 25.7625 10.0338 25.7625C10.849 25.7605 11.6566 25.9202 12.4097 26.2324C13.1628 26.5446 13.8465 27.003 14.4212 27.5813C14.9988 28.1567 15.4566 28.8409 15.7682 29.5943C16.0799 30.3477 16.2392 31.1554 16.2369 31.9707C16.2369 35.3938 13.4512 38.1769 10.0306 38.1769H10.0312ZM13.4344 33.5282C13.2488 33.4357 12.3306 32.9844 12.16 32.9232C11.9894 32.8594 11.8644 32.83 11.74 33.0157C11.615 33.2032 11.2588 33.6238 11.1494 33.7482C11.0419 33.87 10.9319 33.8875 10.7463 33.7944C10.5588 33.7019 9.95812 33.5038 9.245 32.8669C8.69062 32.3732 8.315 31.7607 8.2075 31.575C8.0975 31.3875 8.195 31.2875 8.28812 31.1938C8.37312 31.1113 8.47563 30.9769 8.56875 30.8669C8.66125 30.76 8.69375 30.6819 8.75625 30.5569C8.8175 30.4325 8.78625 30.3225 8.73937 30.23C8.69312 30.1375 8.32 29.2169 8.16375 28.8432C8.01188 28.4794 7.85813 28.5307 7.74375 28.5238C7.63625 28.5188 7.51187 28.5188 7.3875 28.5188C7.2625 28.5188 7.06 28.565 6.88875 28.7532C6.71813 28.9388 6.23688 29.3907 6.23688 30.3082C6.23688 31.2263 6.90563 32.1144 6.99938 32.2394C7.09188 32.3613 8.315 34.2457 10.1869 35.0544C10.6319 35.2469 10.9781 35.3619 11.2494 35.4475C11.6963 35.5888 12.1037 35.5694 12.4262 35.5225C12.785 35.4694 13.5294 35.0713 13.6856 34.6344C13.84 34.2 13.84 33.8263 13.7931 33.7482C13.7469 33.67 13.6225 33.6232 13.4344 33.5282V33.5282Z" fill="white"/>
<path d="M50.4788 25.3725C50.2882 25.3864 50.1011 25.4311 49.9249 25.5049H49.9225C49.7533 25.572 48.9487 25.9105 47.7256 26.4235L43.3426 28.2694C40.1975 29.5935 37.1058 30.8974 37.1058 30.8974L37.1426 30.8831C37.1426 30.8831 36.9295 30.9532 36.7068 31.1058C36.5693 31.1933 36.4509 31.3078 36.3589 31.4424C36.2496 31.6027 36.1617 31.848 36.1944 32.1015C36.2478 32.5302 36.5257 32.7873 36.7252 32.9292C36.9271 33.0729 37.1195 33.14 37.1195 33.14H37.1242L40.0235 34.1167C40.1535 34.5341 40.907 37.0112 41.0881 37.5818C41.195 37.9226 41.2989 38.1358 41.4289 38.2985C41.4918 38.3816 41.5655 38.451 41.6539 38.5069C41.6999 38.5336 41.749 38.5547 41.8 38.5698L41.7703 38.5627C41.7792 38.565 41.7863 38.5722 41.7929 38.5745C41.8166 38.5811 41.8327 38.5835 41.8629 38.5882C42.3219 38.7271 42.6906 38.4421 42.6906 38.4421L42.7114 38.4255L44.4232 36.8669L47.2922 39.068L47.3575 39.0959C47.9554 39.3583 48.561 39.2122 48.8811 38.9545C49.2035 38.6951 49.3287 38.3632 49.3287 38.3632L49.3495 38.3097L51.5666 26.9519C51.6295 26.6716 51.6456 26.4092 51.5761 26.1545C51.5044 25.8967 51.3391 25.675 51.1124 25.5328C50.922 25.4171 50.7013 25.3613 50.4788 25.3725V25.3725ZM50.4189 26.5897C50.4165 26.6271 50.4236 26.623 50.407 26.6948V26.7013L48.2107 37.941C48.2012 37.957 48.1852 37.9921 48.1412 38.0271C48.0949 38.0639 48.0581 38.0871 47.8652 38.0105L44.3561 35.3202L42.2364 37.2523L42.6817 34.4082L48.415 29.0645C48.6513 28.8448 48.5723 28.7985 48.5723 28.7985C48.5889 28.5289 48.2155 28.7195 48.2155 28.7195L40.986 33.1981L40.9836 33.1863L37.5185 32.0195V32.0172L37.5096 32.0154C37.5156 32.0134 37.5216 32.011 37.5274 32.0083L37.5464 31.9988L37.5648 31.9922C37.5648 31.9922 40.6588 30.6884 43.8039 29.3643C45.3785 28.7011 46.965 28.0331 48.1852 27.5177C49.4053 27.0053 50.3072 26.6295 50.3583 26.6093C50.407 26.5903 50.3838 26.5903 50.4189 26.5903V26.5897Z" fill="white"/>
<path d="M81.164 39.4974V32.6674H83.4682L83.8107 29.9932H81.164V28.2899C81.164 27.5182 81.379 26.9899 82.4865 26.9899H83.8899V24.6057C83.2071 24.5326 82.5207 24.4972 81.834 24.4999C79.7974 24.4999 78.399 25.7432 78.399 28.0257V29.9882H76.1099V32.6624H78.404V39.4974H81.164Z" stroke="white" stroke-width="1.3"/>
<path d="M150 27.9942C147.783 27.9942 145.994 29.7833 145.994 32.0001C145.994 34.2169 147.783 36.006 150 36.006C152.217 36.006 154.006 34.2169 154.006 32.0001C154.006 29.7833 152.217 27.9942 150 27.9942ZM150 34.6036C148.566 34.6036 147.397 33.4337 147.397 32.0001C147.397 30.5665 148.566 29.3966 150 29.3966C151.434 29.3966 152.604 30.5665 152.604 32.0001C152.604 33.4337 151.434 34.6036 150 34.6036ZM154.17 26.8966C153.652 26.8966 153.234 27.3145 153.234 27.8321C153.234 28.3497 153.652 28.7677 154.17 28.7677C154.688 28.7677 155.106 28.3517 155.106 27.8321C155.106 27.7092 155.082 27.5875 155.035 27.4739C154.988 27.3603 154.919 27.2572 154.832 27.1702C154.745 27.0833 154.642 27.0144 154.528 26.9675C154.415 26.9205 154.293 26.8964 154.17 26.8966V26.8966ZM157.809 32.0001C157.809 30.922 157.818 29.8536 157.758 28.7774C157.697 27.5274 157.412 26.4181 156.498 25.504C155.582 24.588 154.475 24.3048 153.225 24.2442C152.147 24.1837 151.078 24.1935 150.002 24.1935C148.924 24.1935 147.856 24.1837 146.779 24.2442C145.529 24.3048 144.42 24.5899 143.506 25.504C142.59 26.42 142.307 27.5274 142.246 28.7774C142.186 29.8556 142.195 30.9239 142.195 32.0001C142.195 33.0763 142.186 34.1466 142.246 35.2227C142.307 36.4727 142.592 37.5821 143.506 38.4962C144.422 39.4122 145.529 39.6954 146.779 39.756C147.858 39.8165 148.926 39.8067 150.002 39.8067C151.08 39.8067 152.149 39.8165 153.225 39.756C154.475 39.6954 155.584 39.4102 156.498 38.4962C157.414 37.5802 157.697 36.4727 157.758 35.2227C157.82 34.1466 157.809 33.0782 157.809 32.0001V32.0001ZM156.09 36.6056C155.947 36.961 155.775 37.2267 155.5 37.5001C155.225 37.7755 154.961 37.9474 154.606 38.0899C153.578 38.4981 151.139 38.4063 150 38.4063C148.861 38.4063 146.42 38.4981 145.393 38.0919C145.037 37.9493 144.772 37.7774 144.498 37.502C144.223 37.2267 144.051 36.963 143.908 36.6075C143.502 35.5782 143.594 33.1388 143.594 32.0001C143.594 30.8614 143.502 28.42 143.908 27.3927C144.051 27.0372 144.223 26.7716 144.498 26.4981C144.774 26.2247 145.037 26.0509 145.393 25.9083C146.42 25.502 148.861 25.5938 150 25.5938C151.139 25.5938 153.58 25.502 154.608 25.9083C154.963 26.0509 155.229 26.2227 155.502 26.4981C155.777 26.7735 155.949 27.0372 156.092 27.3927C156.498 28.42 156.406 30.8614 156.406 32.0001C156.406 33.1388 156.498 35.5782 156.09 36.6056Z" fill="white"/>
<path d="M193.75 31.9453C193.75 31.9023 193.75 31.8535 193.748 31.7969C193.746 31.6387 193.742 31.4609 193.738 31.2715C193.723 30.7266 193.695 30.1836 193.652 29.6719C193.594 28.9668 193.508 28.3789 193.391 27.9375C193.267 27.4769 193.025 27.0567 192.688 26.7191C192.351 26.3815 191.931 26.1383 191.471 26.0137C190.918 25.8652 189.836 25.7734 188.312 25.7168C187.588 25.6895 186.812 25.6719 186.037 25.6621C185.766 25.6582 185.514 25.6562 185.287 25.6543H184.713C184.486 25.6562 184.234 25.6582 183.963 25.6621C183.187 25.6719 182.412 25.6895 181.687 25.7168C180.164 25.7754 179.08 25.8672 178.529 26.0137C178.069 26.138 177.649 26.3811 177.312 26.7188C176.975 27.0564 176.733 27.4767 176.609 27.9375C176.49 28.3789 176.406 28.9668 176.348 29.6719C176.305 30.1836 176.277 30.7266 176.262 31.2715C176.256 31.4609 176.254 31.6387 176.252 31.7969C176.252 31.8535 176.25 31.9023 176.25 31.9453V32.0547C176.25 32.0977 176.25 32.1465 176.252 32.2031C176.254 32.3613 176.258 32.5391 176.262 32.7285C176.277 33.2734 176.305 33.8164 176.348 34.3281C176.406 35.0332 176.492 35.6211 176.609 36.0625C176.859 36.998 177.594 37.7363 178.529 37.9863C179.08 38.1348 180.164 38.2266 181.687 38.2832C182.412 38.3105 183.187 38.3281 183.963 38.3379C184.234 38.3418 184.486 38.3437 184.713 38.3457H185.287C185.514 38.3437 185.766 38.3418 186.037 38.3379C186.812 38.3281 187.588 38.3105 188.312 38.2832C189.836 38.2246 190.92 38.1328 191.471 37.9863C192.406 37.7363 193.141 37 193.391 36.0625C193.51 35.6211 193.594 35.0332 193.652 34.3281C193.695 33.8164 193.723 33.2734 193.738 32.7285C193.744 32.5391 193.746 32.3613 193.748 32.2031C193.748 32.1465 193.75 32.0977 193.75 32.0547V31.9453V31.9453ZM192.344 32.0469C192.344 32.0879 192.344 32.1328 192.342 32.1855C192.34 32.3379 192.336 32.5059 192.332 32.6875C192.318 33.207 192.291 33.7266 192.25 34.209C192.197 34.8379 192.123 35.3535 192.031 35.6992C191.91 36.1504 191.555 36.5078 191.105 36.627C190.695 36.7363 189.662 36.8242 188.258 36.877C187.547 36.9043 186.781 36.9219 186.018 36.9316C185.75 36.9355 185.502 36.9375 185.279 36.9375H184.721L183.982 36.9316C183.219 36.9219 182.455 36.9043 181.742 36.877C180.338 36.8223 179.303 36.7363 178.895 36.627C178.445 36.5059 178.09 36.1504 177.969 35.6992C177.877 35.3535 177.803 34.8379 177.75 34.209C177.709 33.7266 177.684 33.207 177.668 32.6875C177.662 32.5059 177.66 32.3359 177.658 32.1855C177.658 32.1328 177.656 32.0859 177.656 32.0469V31.9531C177.656 31.9121 177.656 31.8672 177.658 31.8145C177.66 31.6621 177.664 31.4941 177.668 31.3125C177.682 30.793 177.709 30.2734 177.75 29.791C177.803 29.1621 177.877 28.6465 177.969 28.3008C178.09 27.8496 178.445 27.4922 178.895 27.373C179.305 27.2637 180.338 27.1758 181.742 27.123C182.453 27.0957 183.219 27.0781 183.982 27.0684C184.25 27.0645 184.498 27.0625 184.721 27.0625H185.279L186.018 27.0684C186.781 27.0781 187.545 27.0957 188.258 27.123C189.662 27.1777 190.697 27.2637 191.105 27.373C191.555 27.4941 191.91 27.8496 192.031 28.3008C192.123 28.6465 192.197 29.1621 192.25 29.791C192.291 30.2734 192.316 30.793 192.332 31.3125C192.338 31.4941 192.34 31.6641 192.342 31.8145C192.342 31.8672 192.344 31.9141 192.344 31.9531V32.0469ZM183.262 34.6172L187.793 31.9805L183.262 29.3828V34.6172Z" fill="white"/>
<path fill-rule="evenodd" clip-rule="evenodd" d="M114.852 37.1188H115.822C115.822 37.1188 116.113 37.0703 116.259 36.9248C116.404 36.7793 116.404 36.4882 116.404 36.4882C116.404 36.4882 116.404 35.2271 116.986 35.0331C117.569 34.8391 118.345 36.2942 119.121 36.8278C119.703 37.2643 120.139 37.1673 120.139 37.1673L122.273 37.1188C122.273 37.1188 123.389 37.0703 122.855 36.1487C122.807 36.1002 122.564 35.5182 121.255 34.3055C119.897 33.0444 120.091 33.287 121.691 31.1043C122.661 29.7947 123.05 29.0186 122.952 28.6306C122.855 28.291 122.128 28.388 122.128 28.388H119.703C119.703 28.388 119.509 28.3395 119.412 28.4365C119.266 28.5335 119.218 28.6791 119.218 28.6791C119.218 28.6791 118.83 29.6976 118.345 30.5707C117.278 32.3654 116.841 32.4624 116.695 32.3654C116.307 32.1229 116.404 31.2983 116.404 30.7647C116.404 29.0186 116.695 28.291 115.871 28.097C115.628 28.0485 115.434 28 114.755 28C113.882 28 113.155 28 112.767 28.194C112.476 28.3395 112.282 28.6306 112.427 28.6306C112.573 28.6306 112.961 28.7276 113.155 28.9701C113.349 29.4066 113.349 30.1342 113.349 30.1342C113.349 30.1342 113.494 32.2199 113.009 32.4624C112.67 32.6564 112.233 32.2684 111.263 30.6192C110.778 29.7947 110.39 28.8246 110.39 28.8246C110.39 28.8246 110.341 28.6306 110.196 28.5335C110.05 28.4365 109.808 28.388 109.808 28.388H107.528C107.528 28.388 107.189 28.388 107.043 28.5335C106.946 28.6791 107.043 28.9216 107.043 28.9216C107.043 28.9216 108.838 33.0929 110.875 35.2271C112.767 37.2643 114.852 37.1188 114.852 37.1188V37.1188Z" stroke="white" stroke-width="1.3"/>
<path fill-rule="evenodd" clip-rule="evenodd" d="M15.315 4.69003C14.6229 3.99366 13.7995 3.44152 12.8926 3.0656C11.9856 2.68968 11.013 2.49744 10.0312 2.50003C5.91562 2.50003 2.5625 5.85003 2.5625 9.96565C2.55938 11.2761 2.9031 12.5641 3.55875 13.6988L2.5 17.5682L6.46 16.5282C7.55499 17.1246 8.78183 17.4377 10.0287 17.4388H10.0319C14.1481 17.4388 17.4975 14.0894 17.5 9.97065C17.5 7.97628 16.7237 6.10128 15.315 4.6894V4.69003ZM10.0312 16.1769H10.0287C8.91722 16.1769 7.82609 15.8784 6.86938 15.3125L6.6425 15.1782L4.29125 15.7938L4.91875 13.5032L4.7725 13.2688C4.15037 12.2795 3.82101 11.1343 3.8225 9.96565C3.8225 6.54565 6.60813 3.76253 10.0338 3.76253C10.849 3.76049 11.6566 3.92019 12.4097 4.23238C13.1628 4.54457 13.8465 5.00305 14.4212 5.58128C14.9988 6.15673 15.4566 6.84091 15.7682 7.5943C16.0799 8.34769 16.2392 9.15536 16.2369 9.97065C16.2369 13.3938 13.4512 16.1769 10.0306 16.1769H10.0312ZM13.4344 11.5282C13.2488 11.4357 12.3306 10.9844 12.16 10.9232C11.9894 10.8594 11.8644 10.83 11.74 11.0157C11.615 11.2032 11.2588 11.6238 11.1494 11.7482C11.0419 11.87 10.9319 11.8875 10.7463 11.7944C10.5588 11.7019 9.95812 11.5038 9.245 10.8669C8.69062 10.3732 8.315 9.76065 8.2075 9.57503C8.0975 9.38753 8.195 9.28753 8.28812 9.19378C8.37312 9.11128 8.47563 8.9769 8.56875 8.8669C8.66125 8.76003 8.69375 8.6819 8.75625 8.5569C8.8175 8.43253 8.78625 8.32253 8.73937 8.23003C8.69312 8.13753 8.32 7.2169 8.16375 6.84315C8.01188 6.4794 7.85813 6.53065 7.74375 6.52378C7.63625 6.51878 7.51187 6.51878 7.3875 6.51878C7.2625 6.51878 7.06 6.56503 6.88875 6.75315C6.71813 6.93878 6.23688 7.39065 6.23688 8.30815C6.23688 9.22628 6.90563 10.1144 6.99938 10.2394C7.09188 10.3613 8.315 12.2457 10.1869 13.0544C10.6319 13.2469 10.9781 13.3619 11.2494 13.4475C11.6963 13.5888 12.1037 13.5694 12.4262 13.5225C12.785 13.4694 13.5294 13.0713 13.6856 12.6344C13.84 12.2 13.84 11.8263 13.7931 11.7482C13.7469 11.67 13.6225 11.6232 13.4344 11.5282V11.5282Z" fill="#14387F"/>
<path d="M50.4788 3.37251C50.2882 3.38638 50.1011 3.4311 49.9249 3.50492H49.9225C49.7533 3.57201 48.9487 3.91045 47.7256 4.42345L43.3426 6.26942C40.1975 7.59348 37.1058 8.89736 37.1058 8.89736L37.1426 8.88311C37.1426 8.88311 36.9295 8.95317 36.7068 9.10576C36.5693 9.19329 36.4509 9.30782 36.3589 9.44242C36.2496 9.60273 36.1617 9.84795 36.1944 10.1015C36.2478 10.5302 36.5257 10.7873 36.7252 10.9292C36.9271 11.0729 37.1195 11.14 37.1195 11.14H37.1242L40.0235 12.1167C40.1535 12.5341 40.907 15.0112 41.0881 15.5818C41.195 15.9226 41.2989 16.1358 41.4289 16.2985C41.4918 16.3816 41.5655 16.451 41.6539 16.5069C41.6999 16.5336 41.749 16.5547 41.8 16.5698L41.7703 16.5627C41.7792 16.565 41.7863 16.5722 41.7929 16.5745C41.8166 16.5811 41.8327 16.5835 41.8629 16.5882C42.3219 16.7271 42.6906 16.4421 42.6906 16.4421L42.7114 16.4255L44.4232 14.8669L47.2922 17.068L47.3575 17.0959C47.9554 17.3583 48.561 17.2122 48.8811 16.9545C49.2035 16.6951 49.3287 16.3632 49.3287 16.3632L49.3495 16.3097L51.5666 4.95189C51.6295 4.67164 51.6456 4.4092 51.5761 4.15448C51.5044 3.89669 51.3391 3.67497 51.1124 3.53283C50.922 3.41711 50.7013 3.36126 50.4788 3.37251V3.37251ZM50.4189 4.5897C50.4165 4.62711 50.4236 4.62295 50.407 4.69479V4.70133L48.2107 15.941C48.2012 15.957 48.1852 15.9921 48.1412 16.0271C48.0949 16.0639 48.0581 16.0871 47.8652 16.0105L44.3561 13.3202L42.2364 15.2523L42.6817 12.4082L48.415 7.06445C48.6513 6.84476 48.5723 6.79845 48.5723 6.79845C48.5889 6.52889 48.2155 6.71948 48.2155 6.71948L40.986 11.1981L40.9836 11.1863L37.5185 10.0195V10.0172L37.5096 10.0154C37.5156 10.0134 37.5216 10.011 37.5274 10.0083L37.5464 9.99876L37.5648 9.99223C37.5648 9.99223 40.6588 8.68836 43.8039 7.36429C45.3785 6.70108 46.965 6.03311 48.1852 5.51773C49.4053 5.00533 50.3072 4.62948 50.3583 4.60929C50.407 4.59029 50.3838 4.59029 50.4189 4.59029V4.5897Z" fill="#14387F"/>
<path d="M81.164 17.4974V10.6674H83.4682L83.8107 7.99323H81.164V6.2899C81.164 5.51823 81.379 4.9899 82.4865 4.9899H83.8899V2.60573C83.2071 2.53256 82.5207 2.49722 81.834 2.4999C79.7974 2.4999 78.399 3.74323 78.399 6.02573V7.98823H76.1099V10.6624H78.404V17.4974H81.164Z" stroke="#14387F" stroke-width="1.3"/>
<path d="M150 5.99423C147.783 5.99423 145.994 7.7833 145.994 10.0001C145.994 12.2169 147.783 14.006 150 14.006C152.217 14.006 154.006 12.2169 154.006 10.0001C154.006 7.7833 152.217 5.99423 150 5.99423ZM150 12.6036C148.566 12.6036 147.397 11.4337 147.397 10.0001C147.397 8.5665 148.566 7.39658 150 7.39658C151.434 7.39658 152.604 8.5665 152.604 10.0001C152.604 11.4337 151.434 12.6036 150 12.6036ZM154.17 4.89658C153.652 4.89658 153.234 5.31455 153.234 5.83212C153.234 6.3497 153.652 6.76767 154.17 6.76767C154.688 6.76767 155.106 6.35166 155.106 5.83212C155.106 5.70922 155.082 5.5875 155.035 5.47392C154.988 5.36035 154.919 5.25715 154.832 5.17025C154.745 5.08334 154.642 5.01444 154.528 4.96748C154.415 4.92052 154.293 4.89642 154.17 4.89658V4.89658ZM157.809 10.0001C157.809 8.92197 157.818 7.85361 157.758 6.77744C157.697 5.52744 157.412 4.41806 156.498 3.504C155.582 2.58798 154.475 2.30478 153.225 2.24423C152.147 2.18369 151.078 2.19345 150.002 2.19345C148.924 2.19345 147.856 2.18369 146.779 2.24423C145.529 2.30478 144.42 2.58994 143.506 3.504C142.59 4.42001 142.307 5.52744 142.246 6.77744C142.186 7.85556 142.195 8.92392 142.195 10.0001C142.195 11.0763 142.186 12.1466 142.246 13.2227C142.307 14.4727 142.592 15.5821 143.506 16.4962C144.422 17.4122 145.529 17.6954 146.779 17.756C147.858 17.8165 148.926 17.8067 150.002 17.8067C151.08 17.8067 152.149 17.8165 153.225 17.756C154.475 17.6954 155.584 17.4102 156.498 16.4962C157.414 15.5802 157.697 14.4727 157.758 13.2227C157.82 12.1466 157.809 11.0782 157.809 10.0001V10.0001ZM156.09 14.6056C155.947 14.961 155.775 15.2267 155.5 15.5001C155.225 15.7755 154.961 15.9474 154.606 16.0899C153.578 16.4981 151.139 16.4063 150 16.4063C148.861 16.4063 146.42 16.4981 145.393 16.0919C145.037 15.9493 144.772 15.7774 144.498 15.502C144.223 15.2267 144.051 14.963 143.908 14.6075C143.502 13.5782 143.594 11.1388 143.594 10.0001C143.594 8.86142 143.502 6.42001 143.908 5.39267C144.051 5.0372 144.223 4.77158 144.498 4.49814C144.774 4.2247 145.037 4.05087 145.393 3.9083C146.42 3.50205 148.861 3.59384 150 3.59384C151.139 3.59384 153.58 3.50205 154.608 3.9083C154.963 4.05087 155.229 4.22275 155.502 4.49814C155.777 4.77353 155.949 5.0372 156.092 5.39267C156.498 6.42001 156.406 8.86142 156.406 10.0001C156.406 11.1388 156.498 13.5782 156.09 14.6056Z" fill="#14387F"/>
<path d="M193.75 9.94531C193.75 9.90234 193.75 9.85352 193.748 9.79687C193.746 9.63867 193.742 9.46094 193.738 9.27148C193.723 8.72656 193.695 8.18359 193.652 7.67187C193.594 6.9668 193.508 6.37891 193.391 5.9375C193.267 5.47685 193.025 5.05674 192.688 4.71913C192.351 4.38153 191.931 4.13827 191.471 4.01367C190.918 3.86523 189.836 3.77344 188.312 3.7168C187.588 3.68945 186.812 3.67187 186.037 3.66211C185.766 3.6582 185.514 3.65625 185.287 3.6543H184.713C184.486 3.65625 184.234 3.6582 183.963 3.66211C183.187 3.67187 182.412 3.68945 181.687 3.7168C180.164 3.77539 179.08 3.86719 178.529 4.01367C178.069 4.13797 177.649 4.38112 177.312 4.71877C176.975 5.05642 176.733 5.4767 176.609 5.9375C176.49 6.37891 176.406 6.9668 176.348 7.67187C176.305 8.18359 176.277 8.72656 176.262 9.27148C176.256 9.46094 176.254 9.63867 176.252 9.79687C176.252 9.85352 176.25 9.90234 176.25 9.94531V10.0547C176.25 10.0977 176.25 10.1465 176.252 10.2031C176.254 10.3613 176.258 10.5391 176.262 10.7285C176.277 11.2734 176.305 11.8164 176.348 12.3281C176.406 13.0332 176.492 13.6211 176.609 14.0625C176.859 14.998 177.594 15.7363 178.529 15.9863C179.08 16.1348 180.164 16.2266 181.687 16.2832C182.412 16.3105 183.187 16.3281 183.963 16.3379C184.234 16.3418 184.486 16.3437 184.713 16.3457H185.287C185.514 16.3437 185.766 16.3418 186.037 16.3379C186.812 16.3281 187.588 16.3105 188.312 16.2832C189.836 16.2246 190.92 16.1328 191.471 15.9863C192.406 15.7363 193.141 15 193.391 14.0625C193.51 13.6211 193.594 13.0332 193.652 12.3281C193.695 11.8164 193.723 11.2734 193.738 10.7285C193.744 10.5391 193.746 10.3613 193.748 10.2031C193.748 10.1465 193.75 10.0977 193.75 10.0547V9.94531V9.94531ZM192.344 10.0469C192.344 10.0879 192.344 10.1328 192.342 10.1855C192.34 10.3379 192.336 10.5059 192.332 10.6875C192.318 11.207 192.291 11.7266 192.25 12.209C192.197 12.8379 192.123 13.3535 192.031 13.6992C191.91 14.1504 191.555 14.5078 191.105 14.627C190.695 14.7363 189.662 14.8242 188.258 14.877C187.547 14.9043 186.781 14.9219 186.018 14.9316C185.75 14.9355 185.502 14.9375 185.279 14.9375H184.721L183.982 14.9316C183.219 14.9219 182.455 14.9043 181.742 14.877C180.338 14.8223 179.303 14.7363 178.895 14.627C178.445 14.5059 178.09 14.1504 177.969 13.6992C177.877 13.3535 177.803 12.8379 177.75 12.209C177.709 11.7266 177.684 11.207 177.668 10.6875C177.662 10.5059 177.66 10.3359 177.658 10.1855C177.658 10.1328 177.656 10.0859 177.656 10.0469V9.95312C177.656 9.91211 177.656 9.86719 177.658 9.81445C177.66 9.66211 177.664 9.49414 177.668 9.3125C177.682 8.79297 177.709 8.27344 177.75 7.79101C177.803 7.16211 177.877 6.64648 177.969 6.30078C178.09 5.84961 178.445 5.49219 178.895 5.37305C179.305 5.26367 180.338 5.17578 181.742 5.12305C182.453 5.0957 183.219 5.07812 183.982 5.06836C184.25 5.06445 184.498 5.0625 184.721 5.0625H185.279L186.018 5.06836C186.781 5.07812 187.545 5.0957 188.258 5.12305C189.662 5.17773 190.697 5.26367 191.105 5.37305C191.555 5.49414 191.91 5.84961 192.031 6.30078C192.123 6.64648 192.197 7.16211 192.25 7.79101C192.291 8.27344 192.316 8.79297 192.332 9.3125C192.338 9.49414 192.34 9.66406 192.342 9.81445C192.342 9.86719 192.344 9.91406 192.344 9.95312V10.0469ZM183.262 12.6172L187.793 9.98047L183.262 7.38281V12.6172Z" fill="#14387F"/>
<path fill-rule="evenodd" clip-rule="evenodd" d="M114.852 15.1188H115.822C115.822 15.1188 116.113 15.0703 116.259 14.9248C116.404 14.7793 116.404 14.4882 116.404 14.4882C116.404 14.4882 116.404 13.2271 116.986 13.0331C117.569 12.8391 118.345 14.2942 119.121 14.8278C119.703 15.2643 120.139 15.1673 120.139 15.1673L122.273 15.1188C122.273 15.1188 123.389 15.0703 122.855 14.1487C122.807 14.1002 122.564 13.5182 121.255 12.3055C119.897 11.0444 120.091 11.287 121.691 9.10427C122.661 7.79466 123.05 7.01859 122.952 6.63055C122.855 6.29102 122.128 6.38803 122.128 6.38803H119.703C119.703 6.38803 119.509 6.33953 119.412 6.43654C119.266 6.53355 119.218 6.67906 119.218 6.67906C119.218 6.67906 118.83 7.69765 118.345 8.57072C117.278 10.3654 116.841 10.4624 116.695 10.3654C116.307 10.1229 116.404 9.29829 116.404 8.76474C116.404 7.01859 116.695 6.29102 115.871 6.09701C115.628 6.0485 115.434 6 114.755 6C113.882 6 113.155 6 112.767 6.19402C112.476 6.33953 112.282 6.63055 112.427 6.63055C112.573 6.63055 112.961 6.72756 113.155 6.97008C113.349 7.40662 113.349 8.13419 113.349 8.13419C113.349 8.13419 113.494 10.2199 113.009 10.4624C112.67 10.6564 112.233 10.2684 111.263 8.61923C110.778 7.79466 110.39 6.82457 110.39 6.82457C110.39 6.82457 110.341 6.63055 110.196 6.53355C110.05 6.43654 109.808 6.38803 109.808 6.38803H107.528C107.528 6.38803 107.189 6.38803 107.043 6.53355C106.946 6.67906 107.043 6.92158 107.043 6.92158C107.043 6.92158 108.838 11.0929 110.875 13.2271C112.767 15.2643 114.852 15.1188 114.852 15.1188V15.1188Z" stroke="#14387F" stroke-width="1.3"/>
</svg>
