<svg width="16" height="16" viewBox="0 0 16 16" fill="none" xmlns="http://www.w3.org/2000/svg">
<path d="M7.9996 3.99374C5.78281 3.99374 3.99375 5.78281 3.99375 7.9996C3.99375 10.2164 5.78281 12.0055 7.9996 12.0055C10.2164 12.0055 12.0055 10.2164 12.0055 7.9996C12.0055 5.78281 10.2164 3.99374 7.9996 3.99374ZM7.9996 10.6031C6.56601 10.6031 5.39609 9.4332 5.39609 7.9996C5.39609 6.56601 6.56601 5.39609 7.9996 5.39609C9.4332 5.39609 10.6031 6.56601 10.6031 7.9996C10.6031 9.4332 9.4332 10.6031 7.9996 10.6031ZM12.1695 2.89609C11.6519 2.89609 11.234 3.31406 11.234 3.83164C11.234 4.34921 11.6519 4.76718 12.1695 4.76718C12.6871 4.76718 13.1051 4.35117 13.1051 3.83164C13.1052 3.70873 13.0811 3.58701 13.0342 3.47343C12.9872 3.35986 12.9183 3.25666 12.8314 3.16976C12.7445 3.08286 12.6413 3.01395 12.5277 2.96699C12.4142 2.92003 12.2924 2.89593 12.1695 2.89609ZM15.8082 7.9996C15.8082 6.92148 15.818 5.85312 15.7574 4.77695C15.6969 3.52695 15.4117 2.41757 14.4977 1.50351C13.5816 0.587495 12.4742 0.304292 11.2242 0.243745C10.1461 0.183198 9.07773 0.192964 8.00156 0.192964C6.92343 0.192964 5.85507 0.183198 4.7789 0.243745C3.5289 0.304292 2.41953 0.589448 1.50546 1.50351C0.589448 2.41953 0.306245 3.52695 0.245698 4.77695C0.185151 5.85507 0.194917 6.92343 0.194917 7.9996C0.194917 9.07578 0.185151 10.1461 0.245698 11.2223C0.306245 12.4723 0.591401 13.5816 1.50546 14.4957C2.42148 15.4117 3.5289 15.6949 4.7789 15.7555C5.85703 15.816 6.92539 15.8062 8.00156 15.8062C9.07968 15.8062 10.148 15.816 11.2242 15.7555C12.4742 15.6949 13.5836 15.4098 14.4977 14.4957C15.4137 13.5797 15.6969 12.4723 15.7574 11.2223C15.8199 10.1461 15.8082 9.07773 15.8082 7.9996ZM14.0894 12.6051C13.9469 12.9605 13.775 13.2262 13.4996 13.4996C13.2242 13.775 12.9605 13.9469 12.6051 14.0894C11.5777 14.4977 9.13828 14.4059 7.9996 14.4059C6.86093 14.4059 4.41953 14.4977 3.39218 14.0914C3.03671 13.9488 2.77109 13.7769 2.49765 13.5016C2.22226 13.2262 2.05039 12.9625 1.90781 12.607C1.50156 11.5777 1.59335 9.13828 1.59335 7.9996C1.59335 6.86093 1.50156 4.41953 1.90781 3.39218C2.05039 3.03671 2.22226 2.77109 2.49765 2.49765C2.77304 2.22421 3.03671 2.05039 3.39218 1.90781C4.41953 1.50156 6.86093 1.59335 7.9996 1.59335C9.13828 1.59335 11.5797 1.50156 12.607 1.90781C12.9625 2.05039 13.2281 2.22226 13.5016 2.49765C13.7769 2.77304 13.9488 3.03671 14.0914 3.39218C14.4977 4.41953 14.4059 6.86093 14.4059 7.9996C14.4059 9.13828 14.4977 11.5777 14.0894 12.6051Z" fill="#14387F"/>
</svg>
