<svg width="18" height="17" viewBox="0 0 18 17" fill="none" xmlns="http://www.w3.org/2000/svg">
<path d="M9.16851 5.16194C7.32118 5.16194 5.8303 6.65283 5.8303 8.50016C5.8303 10.3475 7.32118 11.8384 9.16851 11.8384C11.0158 11.8384 12.5067 10.3475 12.5067 8.50016C12.5067 6.65283 11.0158 5.16194 9.16851 5.16194ZM9.16851 10.6698C7.97385 10.6698 6.99892 9.69482 6.99892 8.50016C6.99892 7.3055 7.97385 6.33056 9.16851 6.33056C10.3632 6.33056 11.3381 7.3055 11.3381 8.50016C11.3381 9.69482 10.3632 10.6698 9.16851 10.6698ZM12.6434 4.24723C12.2121 4.24723 11.8638 4.59554 11.8638 5.02685C11.8638 5.45817 12.2121 5.80647 12.6434 5.80647C13.0748 5.80647 13.4231 5.45979 13.4231 5.02685C13.4232 4.92443 13.4031 4.823 13.364 4.72835C13.3249 4.6337 13.2674 4.54771 13.195 4.47529C13.1226 4.40287 13.0366 4.34545 12.9419 4.30631C12.8473 4.26718 12.7459 4.2471 12.6434 4.24723ZM15.6757 8.50016C15.6757 7.60172 15.6838 6.71142 15.6334 5.81461C15.5829 4.77294 15.3453 3.84847 14.5836 3.08675C13.8202 2.3234 12.8974 2.0874 11.8557 2.03694C10.9573 1.98649 10.067 1.99462 9.17014 1.99462C8.2717 1.99462 7.3814 1.98649 6.48459 2.03694C5.44293 2.0874 4.51845 2.32503 3.75673 3.08675C2.99338 3.85009 2.75738 4.77294 2.70693 5.81461C2.65647 6.71305 2.66461 7.60335 2.66461 8.50016C2.66461 9.39697 2.65647 10.2889 2.70693 11.1857C2.75738 12.2274 2.99501 13.1518 3.75673 13.9136C4.52008 14.6769 5.44293 14.9129 6.48459 14.9634C7.38303 15.0138 8.27333 15.0057 9.17014 15.0057C10.0686 15.0057 10.9589 15.0138 11.8557 14.9634C12.8974 14.9129 13.8218 14.6753 14.5836 13.9136C15.3469 13.1502 15.5829 12.2274 15.6334 11.1857C15.6854 10.2889 15.6757 9.39859 15.6757 8.50016ZM14.2434 12.338C14.1246 12.6343 13.9813 12.8556 13.7518 13.0835C13.5224 13.313 13.3026 13.4562 13.0064 13.575C12.1503 13.9152 10.1174 13.8387 9.16851 13.8387C8.21962 13.8387 6.18512 13.9152 5.329 13.5767C5.03277 13.4578 4.81142 13.3146 4.58355 13.0851C4.35406 12.8556 4.21083 12.6359 4.09202 12.3397C3.75347 11.4819 3.82997 9.44905 3.82997 8.50016C3.82997 7.55126 3.75347 5.51676 4.09202 4.66064C4.21083 4.36442 4.35406 4.14306 4.58355 3.9152C4.81305 3.68733 5.03277 3.54248 5.329 3.42366C6.18512 3.08512 8.21962 3.16162 9.16851 3.16162C10.1174 3.16162 12.1519 3.08512 13.008 3.42366C13.3043 3.54248 13.5256 3.68571 13.7535 3.9152C13.983 4.14469 14.1262 4.36442 14.245 4.66064C14.5836 5.51676 14.5071 7.55126 14.5071 8.50016C14.5071 9.44905 14.5836 11.4819 14.2434 12.338Z" fill="white"/>
</svg>
