<svg width="40" height="40" viewBox="0 0 40 40" fill="none" xmlns="http://www.w3.org/2000/svg">
<path d="M39.4384 34.9064H39.4224C36.7354 34.8275 35.7526 33.8384 34.9206 31.8023C33.856 31.9634 32.7129 31.7202 32.3426 30.7634C32.3342 30.7418 32.3272 30.7198 32.3218 30.6973L31.9354 29.1799C31.9361 29.1719 31.9361 29.1638 31.9354 29.1558L30.749 24.4844C30.2408 24.581 29.5081 24.6213 28.9005 24.2588C28.5494 24.0478 28.0989 23.6145 27.9867 22.7415C27.8793 21.936 28.1662 21.4528 28.4276 21.1854C28.7916 20.8425 29.2596 20.6321 29.7566 20.5878C29.7093 20.4425 29.6174 20.3159 29.4942 20.2262C29.3709 20.1365 29.2226 20.0883 29.0705 20.0884H21.0817C20.5925 20.088 20.1236 19.8925 19.7779 19.5448C19.4322 19.1972 19.238 18.7258 19.238 18.2344V17.6706H18.0356C17.6743 17.6701 17.3279 17.5258 17.0725 17.2691C16.817 17.0124 16.6733 16.6644 16.6729 16.3014V12.5159C16.6733 12.1529 16.817 11.8049 17.0725 11.5482C17.3279 11.2916 17.6743 11.1472 18.0356 11.1467H19.238C19.2551 10.7563 19.3971 10.3818 19.6429 10.0788C19.8887 9.77588 20.2251 9.56063 20.6023 9.46503C20.6328 9.45719 20.6639 9.4518 20.6953 9.44892L32.0139 8.55492C32.0369 8.55331 32.0599 8.55331 32.0829 8.55492C32.3764 8.56732 32.6639 8.64256 32.9262 8.7756C35.0713 9.87257 36.4324 11.1467 38.3162 13.8304C38.5406 14.1545 38.6556 14.5425 38.644 14.9372C38.6325 15.3319 38.4951 15.7124 38.252 16.0227L35.6003 19.4054C35.5342 19.4886 35.4874 19.5856 35.4633 19.6892C35.4392 19.7929 35.4383 19.9006 35.4608 20.0047L36.3763 24.3201C36.3763 24.3201 36.3763 24.3201 36.3763 24.3329L37.4167 29.2395C37.6236 30.1529 37.0656 31.0114 35.9995 31.4947C36.6921 33.1474 37.4039 33.7289 39.4496 33.7901C39.5984 33.7922 39.7403 33.8537 39.844 33.9609C39.9478 34.0682 40.0049 34.2124 40.0027 34.3619C40.0006 34.5115 39.9394 34.654 39.8327 34.7582C39.726 34.8625 39.5824 34.9198 39.4336 34.9177L39.4384 34.9064ZM33.3991 30.3752C33.5594 30.7166 34.3354 30.823 35.1161 30.6071H35.1258C35.7863 30.4219 36.442 29.9902 36.3266 29.4795L35.6292 26.1951C34.8981 27.5739 34.1783 28.3552 33.1089 29.2427L33.3991 30.3752ZM31.6901 23.6596L32.7995 28.0282C33.7743 27.1664 34.4139 26.3175 35.246 24.3845L34.3658 20.2382C34.3094 19.972 34.312 19.6966 34.3736 19.4316C34.4351 19.1665 34.554 18.9184 34.7218 18.7047L37.3735 15.322C37.4675 15.203 37.5212 15.0569 37.5267 14.905C37.5322 14.7531 37.4892 14.6035 37.4039 14.4779C35.6404 11.965 34.3819 10.773 32.4196 9.77753C32.3095 9.72218 32.1896 9.68933 32.0668 9.68088L20.8444 10.5684C20.7035 10.6139 20.5808 10.7034 20.4942 10.824C20.4077 10.9446 20.3618 11.0899 20.3634 11.2386V18.2344C20.3639 18.4265 20.44 18.6106 20.5752 18.7465C20.7104 18.8823 20.8937 18.9588 21.0849 18.9592H29.0672C29.4768 18.9587 29.8748 19.0955 30.1983 19.3479C30.5218 19.6002 30.7523 19.9538 30.8532 20.3526L31.0135 20.9808C31.0135 20.9889 31.0135 20.9985 31.0135 21.0066L31.6837 23.6451C31.6866 23.6496 31.6888 23.6545 31.6901 23.6596ZM30.0324 21.6912C29.7502 21.7121 29.4071 21.7814 29.2228 21.9715C29.1763 22.0198 29.0352 22.1664 29.0929 22.5868C29.1634 23.1055 29.3927 23.2424 29.4697 23.2875C29.7406 23.4486 30.1382 23.4486 30.4636 23.3874L30.0324 21.6912ZM18.0356 12.2743C17.9718 12.2743 17.9106 12.2998 17.8655 12.3451C17.8204 12.3904 17.7951 12.4519 17.7951 12.5159V16.3014C17.7951 16.3655 17.8204 16.4269 17.8655 16.4722C17.9106 16.5175 17.9718 16.543 18.0356 16.543H19.238V12.2743H18.0356ZM31.5025 16.543C31.3872 16.5429 31.2747 16.5072 31.1803 16.4406C31.0859 16.374 31.0143 16.2799 30.9751 16.1709L29.6123 12.3855C29.5848 12.3153 29.5716 12.2404 29.5734 12.165C29.5753 12.0896 29.5921 12.0154 29.623 11.9467C29.6539 11.878 29.6982 11.8162 29.7532 11.765C29.8083 11.7138 29.873 11.6742 29.9435 11.6486C30.0141 11.623 30.089 11.6118 30.164 11.6158C30.2389 11.6197 30.3122 11.6388 30.3797 11.6717C30.4472 11.7047 30.5074 11.7509 30.5568 11.8076C30.6062 11.8644 30.6437 11.9305 30.6672 12.0021L32.03 15.7875C32.0606 15.8726 32.0704 15.9639 32.0585 16.0536C32.0466 16.1434 32.0134 16.2289 31.9616 16.303C31.9099 16.3771 31.8412 16.4376 31.7613 16.4794C31.6814 16.5211 31.5926 16.543 31.5025 16.543ZM28.2961 16.543C28.1808 16.5429 28.0683 16.5072 27.9739 16.4406C27.8795 16.374 27.8079 16.2799 27.7687 16.1709L26.4059 12.3855C26.3784 12.3153 26.3652 12.2404 26.367 12.165C26.3689 12.0896 26.3857 12.0154 26.4166 11.9467C26.4475 11.878 26.4917 11.8162 26.5468 11.765C26.6019 11.7138 26.6666 11.6742 26.7371 11.6486C26.8077 11.623 26.8826 11.6118 26.9575 11.6158C27.0325 11.6197 27.1058 11.6388 27.1733 11.6717C27.2408 11.7047 27.301 11.7509 27.3504 11.8076C27.3998 11.8644 27.4373 11.9305 27.4608 12.0021L28.8236 15.7875C28.8542 15.8726 28.864 15.9639 28.8521 16.0536C28.8402 16.1434 28.807 16.2289 28.7552 16.303C28.7035 16.3771 28.6348 16.4376 28.5549 16.4794C28.4749 16.5211 28.3862 16.543 28.2961 16.543Z" fill="#14387F"/>
<path d="M22.3641 40.0003C22.2641 40.0006 22.1644 39.9882 22.0675 39.9633C21.7709 39.8892 20.9212 39.5815 19.5569 39.087C18.1926 38.5925 16.4547 37.9594 15.807 37.7871C14.6334 37.4649 11.2795 36.9108 10.2551 36.7513C9.38294 36.6176 7.92082 36.3921 7.69797 34.4881C7.52322 32.9884 8.10679 31.4275 8.41621 30.9105C8.50098 30.7707 8.59696 30.6382 8.70318 30.5142C8.81701 30.3757 8.81701 30.3757 8.81701 30.3161C8.81701 29.9649 8.2126 26.587 7.7124 24.5719C7.2635 22.7742 5.91681 20.163 5.37012 19.2561C4.82342 18.3492 3.68675 15.8476 3.68675 14.0467C3.69625 13.2732 3.75515 12.5011 3.8631 11.7352L0.901979 14.0145C0.84345 14.0596 0.776661 14.0926 0.705427 14.1117C0.634192 14.1309 0.559905 14.1357 0.48681 14.126C0.413714 14.1162 0.343239 14.0922 0.279411 14.0551C0.215582 14.018 0.159649 13.9686 0.114805 13.9098C0.0699605 13.851 0.0370835 13.7839 0.018051 13.7123C-0.000981545 13.6408 -0.00579696 13.5661 0.00387969 13.4927C0.0135563 13.4192 0.0375355 13.3484 0.0744482 13.2843C0.111361 13.2202 0.160484 13.164 0.219013 13.1189L4.30719 9.97779C4.39805 9.90757 4.50813 9.86699 4.62262 9.86151C4.73712 9.85604 4.85054 9.88592 4.94763 9.94715C5.04471 10.0084 5.1208 10.098 5.16567 10.204C5.21053 10.31 5.22202 10.4272 5.19857 10.54C4.96551 11.695 4.83513 12.8685 4.80899 14.0467C4.80899 15.511 5.80138 17.779 6.33204 18.6682C6.90599 19.6347 8.32322 22.3731 8.80098 24.3061C9.26911 26.1859 9.93925 29.8006 9.93925 30.3161C9.93803 30.6584 9.8047 30.987 9.56731 31.2326C9.49743 31.3138 9.43416 31.4006 9.37813 31.492C9.18575 31.8141 8.67112 33.1479 8.8138 34.3576C8.91801 35.2484 9.32683 35.4675 10.425 35.6463C11.5232 35.8251 14.8643 36.3744 16.0956 36.7046C16.7898 36.8914 18.4635 37.4987 19.9433 38.0351C20.9982 38.4169 22.0884 38.8132 22.3481 38.8776H22.3641C22.4768 38.711 22.5356 38.5136 22.5324 38.3122C22.4651 38.1124 21.912 37.6211 21.4663 37.2249C21.2547 37.0364 21.0254 36.8335 20.7898 36.6144C20.2142 36.0796 18.308 34.6395 16.7817 33.4813C15.326 32.3795 14.5565 31.7964 14.3673 31.6047C13.636 30.8223 13.1847 29.8174 13.0847 28.7487C13.0607 28.4088 13.0447 27.6405 13.0222 26.5789C12.9693 24.021 12.8876 20.1566 12.607 18.0722C12.2174 15.1727 11.2603 8.4314 10.9252 6.16014C10.5902 3.88887 10.0835 2.50356 8.35368 1.3921C7.2138 0.659171 3.60018 1.53224 0.778532 2.72586C0.641406 2.78396 0.486925 2.78495 0.349073 2.72861C0.21122 2.67227 0.101289 2.56322 0.0434619 2.42544C-0.0143648 2.28766 -0.0153501 2.13245 0.0407229 1.99394C0.0967959 1.85543 0.205334 1.74498 0.34246 1.68688C0.994965 1.41143 6.76971 -0.966151 8.95969 0.44332C11.2443 1.91239 11.7108 3.90498 12.0234 5.98939C12.3601 8.26387 13.3188 15.01 13.7084 17.9175C13.997 20.0648 14.0787 23.9678 14.1332 26.55C14.1541 27.5567 14.1701 28.3509 14.1926 28.665C14.2724 29.4639 14.6102 30.2146 15.1545 30.8025C15.3052 30.9523 16.437 31.8141 17.4503 32.5744C19.0823 33.8099 20.934 35.2081 21.5497 35.78C21.7805 35.9942 22.0034 36.1923 22.2102 36.3744C23.0791 37.1492 23.6531 37.663 23.6531 38.2896C23.6531 38.7503 23.4928 39.4172 23.0455 39.7668C22.8515 39.9204 22.6111 40.0028 22.3641 40.0003Z" fill="#14387F"/>
</svg>
