<svg width="40" height="40" viewBox="0 0 40 40" fill="none" xmlns="http://www.w3.org/2000/svg">
<path d="M21.0117 36.3951H5.44747C4.00271 36.3951 2.61713 35.8271 1.59553 34.8159C0.573928 33.8047 0 32.4333 0 31.0033L0 5.39187C0 3.96186 0.573928 2.59042 1.59553 1.57924C2.61713 0.568071 4.00271 0 5.44747 0L30.3502 0C31.795 0 33.1805 0.568071 34.2021 1.57924C35.2237 2.59042 35.7977 3.96186 35.7977 5.39187V21.0225C35.7977 21.2013 35.7259 21.3727 35.5982 21.4991C35.4705 21.6255 35.2973 21.6965 35.1167 21.6965C34.9361 21.6965 34.7629 21.6255 34.6352 21.4991C34.5075 21.3727 34.4358 21.2013 34.4358 21.0225V5.39187C34.4358 4.86082 34.3301 4.33497 34.1248 3.84434C33.9195 3.35371 33.6185 2.90791 33.2392 2.5324C32.8598 2.15689 32.4094 1.85902 31.9137 1.65579C31.418 1.45257 30.8867 1.34797 30.3502 1.34797H5.44747C4.3639 1.34797 3.32471 1.77402 2.55851 2.5324C1.79231 3.29078 1.36187 4.31936 1.36187 5.39187V31.0033C1.36187 32.0758 1.79231 33.1044 2.55851 33.8627C3.32471 34.6211 4.3639 35.0472 5.44747 35.0472H21.0117C21.1923 35.0472 21.3655 35.1182 21.4932 35.2446C21.6209 35.371 21.6926 35.5424 21.6926 35.7212C21.6926 35.8999 21.6209 36.0713 21.4932 36.1977C21.3655 36.3241 21.1923 36.3951 21.0117 36.3951Z" fill="#14387F"/>
<path d="M17.8986 20.6048C16.1286 20.6048 14.3983 20.0853 12.9266 19.112C11.4549 18.1386 10.3078 16.7552 9.63046 15.1366C8.9531 13.518 8.77587 11.7369 9.12118 10.0186C9.4665 8.30033 10.3188 6.72197 11.5704 5.48315C12.822 4.24432 14.4167 3.40067 16.1527 3.05888C17.8887 2.71709 19.6881 2.89251 21.3234 3.56296C22.9587 4.2334 24.3564 5.36876 25.3398 6.82547C26.3232 8.28217 26.8481 9.99479 26.8481 11.7467C26.845 14.0951 25.9011 16.3464 24.2234 18.007C22.5458 19.6675 20.2712 20.6018 17.8986 20.6048ZM17.8986 4.23664C16.398 4.23664 14.931 4.6771 13.6832 5.50233C12.4355 6.32755 11.4629 7.50046 10.8887 8.87276C10.3144 10.245 10.1641 11.7551 10.4569 13.2119C10.7497 14.6687 11.4723 16.0069 12.5334 17.0572C13.5946 18.1075 14.9465 18.8228 16.4184 19.1126C17.8902 19.4023 19.4158 19.2536 20.8023 18.6852C22.1887 18.1168 23.3737 17.1542 24.2075 15.9191C25.0412 14.6841 25.4862 13.2321 25.4862 11.7467C25.4836 9.75573 24.6834 7.84698 23.261 6.43912C21.8386 5.03125 19.9102 4.23919 17.8986 4.23664Z" fill="#14387F"/>
<path d="M20.0384 33.5062H7.78159C6.59482 33.5062 5.45666 33.0396 4.61749 32.209C3.77832 31.3784 3.30688 30.2519 3.30688 29.0772C3.30688 25.7092 3.30688 20.895 3.30688 17.8717C3.30056 17.5232 3.42079 17.184 3.64571 16.9158C3.87063 16.6476 4.18531 16.4682 4.53256 16.4101C7.54423 15.9364 9.31466 17.6079 11.0267 19.2255L11.1045 19.2987C12.7096 20.8142 14.5287 22.5299 17.803 22.5299C21.0209 22.5299 22.8516 20.7833 24.6123 19.0965L24.6396 19.0714C25.5287 18.2222 26.4508 17.3383 27.5112 16.7876C28.704 16.1523 30.1009 16.005 31.4022 16.3774C31.7186 16.4628 31.9974 16.6499 32.1946 16.9093C32.3918 17.1686 32.4963 17.4855 32.4917 17.8101V20.585C32.4917 20.7638 32.42 20.9352 32.2923 21.0616C32.1646 21.188 31.9914 21.259 31.8108 21.259C31.6302 21.259 31.457 21.188 31.3293 21.0616C31.2016 20.9352 31.1298 20.7638 31.1298 20.585V17.8101C31.1298 17.7485 31.0987 17.6907 31.0598 17.6811C30.0891 17.3974 29.0444 17.5047 28.1532 17.9796C27.2641 18.4456 26.4508 19.2216 25.5909 20.042L25.5656 20.067C23.694 21.8521 21.5715 23.8779 17.803 23.8779C13.9839 23.8779 11.8672 21.881 10.1668 20.275L10.089 20.2037C8.41583 18.6227 7.09287 17.3749 4.74851 17.7427C4.70571 17.7427 4.67069 17.8082 4.67069 17.8737C4.67069 20.897 4.67069 25.7111 4.67069 29.0791C4.67069 29.8963 4.99865 30.68 5.58242 31.2578C6.16619 31.8356 6.95795 32.1602 7.78353 32.1602H20.0403C20.2209 32.1602 20.3941 32.2312 20.5218 32.3576C20.6495 32.484 20.7213 32.6554 20.7213 32.8342C20.7213 33.0129 20.6495 33.1844 20.5218 33.3108C20.3941 33.4372 20.2209 33.5082 20.0403 33.5082L20.0384 33.5062Z" fill="#14387F"/>
<path d="M18.4822 9.14281V7.02457C18.4822 6.84582 18.4105 6.67439 18.2828 6.54799C18.1551 6.4216 17.9819 6.35059 17.8013 6.35059C17.6207 6.35059 17.4475 6.4216 17.3198 6.54799C17.1921 6.67439 17.1203 6.84582 17.1203 7.02457V9.14281C16.505 9.3063 15.9707 9.68558 15.6169 10.21C15.2632 10.7345 15.1141 11.3683 15.1974 11.9935C15.2807 12.6187 15.5907 13.1926 16.0697 13.6083C16.5488 14.024 17.1642 14.2532 17.8013 14.2532C18.4384 14.2532 19.0537 14.024 19.5328 13.6083C20.0118 13.1926 20.3219 12.6187 20.4052 11.9935C20.4885 11.3683 20.3394 10.7345 19.9856 10.21C19.6318 9.68558 19.0975 9.3063 18.4822 9.14281ZM17.8013 12.9017C17.5512 12.9017 17.3067 12.8283 17.0987 12.6908C16.8907 12.5532 16.7287 12.3577 16.6329 12.129C16.5372 11.9003 16.5122 11.6486 16.561 11.4058C16.6098 11.163 16.7302 10.94 16.9071 10.765C17.0839 10.5899 17.3093 10.4707 17.5546 10.4224C17.7999 10.3741 18.0541 10.3989 18.2852 10.4936C18.5163 10.5884 18.7138 10.7488 18.8527 10.9546C18.9917 11.1605 19.0659 11.4025 19.0659 11.65C19.0653 11.9818 18.9319 12.2999 18.6949 12.5345C18.4579 12.7692 18.1365 12.9012 17.8013 12.9017Z" fill="#14387F"/>
<path d="M30.9745 40.0001C29.1889 40.0005 27.4433 39.4767 25.9585 38.4951C24.4737 37.5134 23.3163 36.1179 22.6328 34.4852C21.9494 32.8524 21.7704 31.0557 22.1187 29.3223C22.4669 27.5889 23.3267 25.9966 24.5893 24.7469C25.8519 23.4972 27.4606 22.6462 29.2119 22.3015C30.9632 21.9568 32.7784 22.1339 34.428 22.8104C36.0776 23.4869 37.4875 24.6324 38.4792 26.1021C39.471 27.5718 40.0002 29.2996 39.9998 31.0669C39.9972 33.4354 39.0455 35.7061 37.3535 37.3808C35.6615 39.0555 33.3674 39.9975 30.9745 40.0001ZM30.9745 23.4798C29.4583 23.4794 27.9761 23.9241 26.7153 24.7575C25.4545 25.591 24.4717 26.7758 23.8912 28.1621C23.3108 29.5484 23.1587 31.074 23.4542 32.5459C23.7498 34.0178 24.4797 35.3699 25.5516 36.4311C26.6236 37.4924 27.9894 38.2152 29.4764 38.5081C30.9634 38.801 32.5047 38.6509 33.9055 38.0767C35.3063 37.5025 36.5036 36.53 37.3459 35.2823C38.1883 34.0346 38.6379 32.5676 38.6379 31.0669C38.6359 29.0556 37.8279 27.1273 36.3912 25.7049C34.9545 24.2826 33.0065 23.4823 30.9745 23.4798Z" fill="#14387F"/>
<path d="M30.9739 34.0193C30.7933 34.0193 30.6201 33.9482 30.4924 33.8218C30.3647 33.6954 30.293 33.524 30.293 33.3453V25.9064C30.293 25.7277 30.3647 25.5562 30.4924 25.4298C30.6201 25.3034 30.7933 25.2324 30.9739 25.2324C31.1545 25.2324 31.3277 25.3034 31.4554 25.4298C31.5831 25.5562 31.6548 25.7277 31.6548 25.9064V33.3453C31.6548 33.524 31.5831 33.6954 31.4554 33.8218C31.3277 33.9482 31.1545 34.0193 30.9739 34.0193Z" fill="#14387F"/>
<path d="M30.9753 36.8974C31.4351 36.8974 31.808 36.5284 31.808 36.0732C31.808 35.618 31.4351 35.249 30.9753 35.249C30.5154 35.249 30.1426 35.618 30.1426 36.0732C30.1426 36.5284 30.5154 36.8974 30.9753 36.8974Z" fill="#14387F"/>
</svg>
