<svg width="40" height="40" viewBox="0 0 40 40" fill="none" xmlns="http://www.w3.org/2000/svg">
<g clip-path="url(#clip0)">
<path d="M11.8496 17.354L11.8482 17.3795C11.7496 19.1057 12.7165 20.7227 14.3122 21.498L14.3285 21.506C14.8911 21.7751 15.3522 22.2187 15.6431 22.7704L15.6496 22.7824C16.4536 24.3133 18.1165 25.2412 19.8892 25.1482L19.9161 25.1467C20.559 25.1107 21.1972 25.2765 21.7412 25.6212C23.2423 26.5602 25.1477 26.5602 26.6488 25.6212C27.1928 25.2765 27.831 25.1107 28.4739 25.1467L28.5008 25.1482C30.2706 25.242 31.9357 24.3133 32.7415 22.7798L32.7455 22.7714C33.0375 22.2184 33.4997 21.774 34.064 21.5045L34.0771 21.498C35.6727 20.7224 36.64 19.1057 36.5411 17.3791L36.5397 17.3551C36.5069 16.7471 36.6757 16.1453 37.0204 15.6431C38.0127 14.1959 38.0127 12.2875 37.0207 10.8399C36.6764 10.3381 36.5069 9.73662 36.5397 9.12862L36.5411 9.10317C36.64 7.37664 35.6727 5.75992 34.0757 4.98392L34.0611 4.97665C33.4997 4.70829 33.0397 4.26684 32.7484 3.71666L32.74 3.70029C31.9357 2.1694 30.2706 1.24177 28.5008 1.33449L28.4735 1.33595C27.831 1.37195 27.1928 1.20613 26.6492 0.861404H26.6484C25.1474 -0.0774992 23.2419 -0.0774992 21.7408 0.861404C21.1968 1.20577 20.5587 1.37158 19.9158 1.33558L19.8888 1.33413C18.1187 1.24031 16.454 2.16903 15.65 3.69957L15.6438 3.71084C15.3525 4.26356 14.8911 4.70756 14.3278 4.97701L14.3125 4.98429C12.7169 5.75955 11.7496 7.37664 11.8485 9.10317L11.85 9.12717C11.8827 9.73517 11.714 10.337 11.3693 10.8388C10.3769 12.2864 10.3769 14.1951 11.3693 15.6424C11.7136 16.1442 11.8827 16.746 11.8496 17.354ZM12.5951 11.6846C13.1271 10.9101 13.3878 9.98135 13.3369 9.04317L13.3354 9.01772C13.2831 7.87372 13.9253 6.81118 14.962 6.32501L14.9747 6.31882C15.8252 5.91155 16.5216 5.24101 16.9609 4.40684L16.9681 4.39302C17.5023 3.37557 18.6212 2.75885 19.8096 2.82212L19.8358 2.82321C20.7867 2.87666 21.7303 2.63157 22.5347 2.12176C23.5503 1.48649 24.839 1.48649 25.8546 2.12176C26.659 2.63085 27.6026 2.8763 28.5532 2.82357L28.5793 2.82212C29.7735 2.75957 30.887 3.37557 31.4197 4.39011L31.4295 4.40865C31.8688 5.24174 32.5644 5.91119 33.4139 6.3181L33.4262 6.32428C34.4793 6.83628 35.1186 7.89336 35.0542 9.01808L35.0528 9.04462C35.0018 9.9828 35.2629 10.9112 35.7949 11.6857C36.4378 12.6235 36.4375 13.8599 35.7942 14.7973C35.2626 15.5722 35.0018 16.5009 35.0528 17.4391L35.0542 17.4642C35.1186 18.5889 34.4793 19.6464 33.4259 20.1587L33.4149 20.1638C32.5637 20.5718 31.8666 21.2431 31.427 22.0787L31.4215 22.0896C30.887 23.1071 29.7699 23.7242 28.5797 23.6605L28.5539 23.6591C27.603 23.606 26.659 23.8514 25.8543 24.3609C24.839 24.9958 23.5503 24.9958 22.535 24.3609C21.8034 23.8973 20.9547 23.6514 20.0885 23.6522C20.0045 23.6522 19.9201 23.6544 19.8358 23.6591L19.8096 23.6602C18.6369 23.7347 17.5274 23.1209 16.9671 22.0878L16.9594 22.0736C16.5209 21.2409 15.8256 20.5718 14.9765 20.1649L14.9627 20.158C13.9093 19.646 13.27 18.5886 13.3347 17.4642L13.3362 17.4377C13.3867 16.4995 13.1256 15.5708 12.594 14.7966C11.9514 13.8588 11.9518 12.6224 12.5951 11.6853V11.6846Z" fill="#14387F"/>
<path d="M19.3877 20.9407C19.7364 21.1585 20.1957 21.052 20.4135 20.7033L29.2356 6.57025C29.3796 6.34444 29.3916 6.05862 29.2665 5.82189C29.1414 5.5848 28.8985 5.43353 28.6309 5.42517C28.3633 5.41681 28.1116 5.55281 27.972 5.78153L19.1502 19.9145C18.9324 20.2636 19.0386 20.7229 19.3877 20.9407Z" fill="#14387F"/>
<path d="M20.1793 13.278C21.9928 13.278 23.4684 11.5955 23.4684 9.5275C23.4684 7.45951 21.9928 5.77734 20.1793 5.77734C18.3659 5.77734 16.8906 7.45951 16.8906 9.5275C16.8906 11.5955 18.3659 13.278 20.1793 13.278ZM20.1793 7.26679C21.1717 7.26679 21.979 8.28096 21.979 9.5275C21.979 10.774 21.1717 11.7886 20.1793 11.7886C19.1873 11.7886 18.3801 10.7737 18.3801 9.5275C18.3801 8.28133 19.1873 7.26679 20.1793 7.26679Z" fill="#14387F"/>
<path d="M24.918 16.9562C24.918 19.0242 26.3932 20.7064 28.2067 20.7064C30.0201 20.7064 31.4957 19.0238 31.4957 16.9562C31.4957 14.889 30.0205 13.2061 28.207 13.2061C26.3932 13.2061 24.918 14.8879 24.918 16.9562ZM30.0063 16.9562C30.0063 18.2027 29.199 19.2169 28.2067 19.2169C27.2147 19.2169 26.4074 18.2027 26.4074 16.9562C26.4074 15.7097 27.2147 14.6955 28.2067 14.6955C29.199 14.6955 30.0063 15.7089 30.0063 16.9562Z" fill="#14387F"/>
<path d="M39.9033 29.3222C38.9171 27.572 36.7302 26.9055 34.9357 27.808L29.1019 30.5643C28.2965 29.0665 26.7514 28.1131 25.051 28.0651L19.6656 27.9167C18.8129 27.8924 17.9762 27.676 17.218 27.2847L16.67 27.0007C13.8642 25.5382 10.5199 25.5418 7.71696 27.0102L7.75115 25.7687C7.76242 25.3575 7.43842 25.0149 7.02715 25.0036L1.12173 24.8411C0.710463 24.8298 0.368283 25.1538 0.35701 25.5651L0.000285453 38.5246C-0.0109872 38.9359 0.313011 39.2785 0.724281 39.2897L6.6297 39.4523H6.65042C7.0537 39.4519 7.38351 39.1308 7.39478 38.7279L7.41151 38.1079L8.94568 37.2865C9.54786 36.9625 10.2522 36.8854 10.91 37.0716L20.0711 39.6428C20.0871 39.6475 20.1031 39.6512 20.1194 39.6548C20.7816 39.7934 21.4565 39.8628 22.1332 39.8624C23.566 39.8632 24.9819 39.5545 26.2841 38.9566C26.3161 38.9421 26.347 38.9254 26.3765 38.9065L39.6593 30.3142C39.9906 30.1003 40.0975 29.6651 39.9033 29.3222ZM1.50973 37.821L1.82536 26.3509L6.24206 26.4724L5.92607 37.9428L1.50973 37.821ZM25.6128 37.6257C23.995 38.3559 22.1881 38.5574 20.4492 38.2017L11.3126 35.6378C10.2846 35.3468 9.1835 35.4676 8.24278 35.9734L7.45878 36.393L7.66896 28.7665C10.1529 27.1142 13.3391 26.9444 15.9849 28.3229L16.5329 28.6069C17.4907 29.1014 18.5474 29.3745 19.6249 29.4054L25.0103 29.5538C26.523 29.5971 27.8077 30.6742 28.1147 32.1563L20.0929 31.9356C19.6816 31.9243 19.3394 32.2483 19.3282 32.6596C19.3169 33.0709 19.6409 33.4134 20.0522 33.4247L28.9048 33.6683H28.9259C29.3288 33.6679 29.6586 33.3469 29.6699 32.944C29.679 32.6203 29.6546 32.2963 29.5979 31.9778L35.5804 29.1505L35.5979 29.1422C36.4466 28.7123 37.4731 28.856 38.171 29.5022L25.6128 37.6257Z" fill="#14387F"/>
</g>
<defs>
<clipPath id="clip0">
<rect width="40" height="40" fill="white"/>
</clipPath>
</defs>
</svg>
