<svg width="30" height="40" viewBox="0 0 30 40" fill="none" xmlns="http://www.w3.org/2000/svg">
<path d="M3.62802 17.7784C3.51954 17.7789 3.41337 17.7471 3.32287 17.6871L1.48562 16.4859C1.41746 16.4411 1.35987 16.382 1.31686 16.3126C1.27385 16.2431 1.24645 16.1652 1.23656 16.0841C1.22668 16.003 1.23455 15.9207 1.25963 15.8429C1.2847 15.7652 1.32639 15.6938 1.38177 15.6339C2.39306 14.5512 3.26696 14.1204 5.23841 14.7626C5.32307 14.7901 5.39996 14.8375 5.46267 14.9008C5.52539 14.9641 5.57213 15.0415 5.59901 15.1266C5.62588 15.2116 5.63212 15.3019 5.61719 15.3899C5.60227 15.4778 5.56662 15.5609 5.5132 15.6323L4.07535 17.5542C4.02335 17.6239 3.95583 17.6805 3.87817 17.7194C3.8005 17.7584 3.71485 17.7786 3.62802 17.7784ZM2.68542 15.9318L3.49541 16.4619L4.12168 15.6243C3.46346 15.5042 3.07364 15.6195 2.68542 15.9318Z" fill="#14387F"/>
<path d="M1.07371 22.3423C1.03397 22.3421 0.994353 22.3378 0.955483 22.3295C0.87122 22.3113 0.792309 22.2738 0.724949 22.2199C0.657589 22.166 0.603614 22.0972 0.567263 22.0188C-0.186811 20.4012 -0.321011 19.3602 0.957081 17.8194C1.00627 17.7605 1.06698 17.7124 1.13546 17.6779C1.20395 17.6434 1.27874 17.6234 1.35524 17.6191C1.43174 17.6147 1.50832 17.6261 1.58025 17.6526C1.65218 17.6791 1.71794 17.72 1.77346 17.773L3.61072 19.5347C3.66738 19.5888 3.71206 19.6542 3.74184 19.7268C3.77162 19.7993 3.78585 19.8773 3.78359 19.9557C3.78133 20.0341 3.76263 20.1112 3.72872 20.1818C3.69481 20.2525 3.64644 20.3153 3.58676 20.366L1.43637 22.2078C1.33536 22.2946 1.20673 22.3423 1.07371 22.3423ZM1.46033 19.0174C1.04495 19.6581 1.02258 20.1385 1.28938 20.8609L2.39653 19.9159L1.46033 19.0174Z" fill="#14387F"/>
<path d="M3.48781 25.836C2.64427 25.836 2.04996 25.386 1.37576 24.638C1.32388 24.58 1.28467 24.5117 1.26066 24.4376C1.23665 24.3635 1.22837 24.2851 1.23634 24.2076C1.24431 24.1301 1.26837 24.0551 1.30696 23.9874C1.34555 23.9198 1.39783 23.861 1.46044 23.8148L3.29769 22.4534C3.41617 22.365 3.5648 22.3273 3.71098 22.3486C3.85715 22.3699 3.98891 22.4485 4.07733 22.5671L5.51518 24.4891C5.56509 24.5557 5.59957 24.6326 5.6161 24.7142C5.63263 24.7958 5.63081 24.8801 5.61077 24.961C5.59072 25.0418 5.55296 25.1172 5.50022 25.1815C5.44748 25.2459 5.3811 25.2977 5.3059 25.3331C4.57259 25.679 3.99266 25.836 3.48781 25.836ZM2.63788 24.3353C3.07403 24.7293 3.46225 24.835 4.18916 24.5852L3.51337 23.6851L2.63788 24.3353Z" fill="#14387F"/>
<path d="M26.4302 25.7858C25.8902 25.7858 25.3391 25.5984 24.7527 25.3982L24.6185 25.3534C24.5374 25.3256 24.4638 25.2795 24.4032 25.2187C24.3426 25.1579 24.2968 25.084 24.2692 25.0026C24.2415 24.9212 24.2329 24.8346 24.2439 24.7494C24.2549 24.6642 24.2852 24.5826 24.3326 24.511L25.7704 22.3488C25.8151 22.2818 25.8736 22.2253 25.942 22.183C26.0104 22.1407 26.0871 22.1137 26.1668 22.1038C26.2466 22.094 26.3275 22.1014 26.4041 22.1257C26.4807 22.15 26.5512 22.1906 26.6108 22.2447L28.3682 23.8463C28.4721 23.9407 28.5368 24.0708 28.5496 24.2108C28.5623 24.3509 28.5221 24.4906 28.4368 24.6023C27.7499 25.504 27.098 25.7858 26.4302 25.7858ZM25.6698 24.5206C26.3584 24.7336 26.7514 24.7496 27.2115 24.3076L26.3408 23.5068L25.6698 24.5206Z" fill="#14387F"/>
<path d="M28.791 22.3423C28.6544 22.3425 28.5226 22.2923 28.4204 22.2014L26.3435 20.3596C26.2835 20.3062 26.2357 20.2406 26.2032 20.1672C26.1707 20.0937 26.1544 20.0141 26.1553 19.9337C26.1562 19.8534 26.1743 19.7742 26.2085 19.7015C26.2426 19.6287 26.2919 19.5642 26.3531 19.5123L28.43 17.7505C28.4942 17.6962 28.5698 17.657 28.6512 17.6359C28.7326 17.6149 28.8177 17.6125 28.9001 17.629C28.9826 17.6454 29.0603 17.6803 29.1274 17.731C29.1945 17.7818 29.2494 17.847 29.2879 17.9219C30.2465 19.7926 30.2369 20.7728 29.24 22.1165C29.1937 22.1788 29.1351 22.2308 29.0677 22.2692C29.0003 22.3075 28.9257 22.3313 28.8486 22.3391L28.791 22.3423ZM27.5689 19.9495L28.6872 20.9345C28.9556 20.4348 28.9764 19.9559 28.6041 19.0767L27.5689 19.9495Z" fill="#14387F"/>
<path d="M26.238 18.0988H26.2252C26.1418 18.0967 26.0599 18.0759 25.9855 18.038C25.9112 18 25.8462 17.9458 25.7955 17.8794L24.1979 15.7973C24.1517 15.7373 24.1182 15.6684 24.0995 15.595C24.0807 15.5215 24.077 15.445 24.0887 15.3701C24.1004 15.2952 24.1271 15.2235 24.1673 15.1592C24.2075 15.095 24.2603 15.0397 24.3225 14.9965C25.7891 13.9827 26.7588 14.1781 28.2542 14.9613C28.3284 15.0002 28.3929 15.0554 28.443 15.1227C28.4931 15.19 28.5275 15.2678 28.5436 15.3502C28.5597 15.4326 28.5571 15.5176 28.5361 15.5988C28.515 15.6801 28.476 15.7556 28.4219 15.8198L26.6646 17.9018C26.6121 17.9639 26.5467 18.0137 26.4731 18.0477C26.3994 18.0817 26.3191 18.0992 26.238 18.0988ZM25.4664 15.6132L26.2652 16.6462L27.1087 15.6468C26.4617 15.3761 26.0191 15.3441 25.4664 15.6132Z" fill="#14387F"/>
<path d="M22.2794 17.1567C22.7507 16.1845 22.8402 14.9561 22.5526 13.4298C22.2826 12.0027 21.1499 10.5949 18.7742 8.74828C18.64 7.38051 18.7167 3.20193 18.8078 0.58011C18.8129 0.43144 18.7588 0.286834 18.6576 0.178104C18.5563 0.0693744 18.4161 0.005427 18.2678 0.000329742C18.1195 -0.00476751 17.9753 0.0494029 17.8668 0.150924C17.7583 0.252445 17.6945 0.393001 17.6895 0.541671C17.6799 0.828358 17.4514 7.58071 17.6895 9.13747C17.7126 9.2792 17.7885 9.40685 17.9019 9.49462C20.7553 11.676 21.2985 12.8131 21.4534 13.638C21.7538 15.2284 21.5892 16.3863 20.9518 17.1791C20.5284 17.706 19.8878 18.0904 18.9947 18.3547C16.8731 18.7743 16.0024 18.1657 15.1604 17.5763L15.1333 17.5587C15.0457 17.4974 14.9424 17.4626 14.8356 17.4584C14.7289 17.4541 14.6232 17.4806 14.531 17.5347C14.5038 17.5507 11.8262 19.1026 9.88352 18.265C8.96649 17.871 8.33703 16.9677 8.01111 15.5807C7.49349 12.7859 9.73334 10.8656 11.0721 9.71725C11.7543 9.13106 12.0978 8.83637 12.0978 8.40874V0.56089C12.0978 0.41222 12.0389 0.26964 11.934 0.164514C11.8292 0.0593886 11.6869 0.000329718 11.5386 0.000329718C11.3903 0.000329718 11.2481 0.0593886 11.1433 0.164514C11.0384 0.26964 10.9795 0.41222 10.9795 0.56089V8.28862C10.8661 8.41675 10.5801 8.66179 10.3404 8.8652C8.92016 10.0904 6.26812 12.3615 6.91515 15.8001V15.8226C7.03305 16.3504 7.21325 16.8622 7.45195 17.3473C7.02151 17.4148 6.61158 17.578 6.25221 17.8249C5.89284 18.0718 5.59314 18.3962 5.37505 18.7743C5.11953 19.2196 4.99285 19.7275 5.00922 20.241C5.02559 20.7544 5.18436 21.2532 5.46771 21.6812C5.68798 21.9954 5.97328 22.2582 6.30415 22.4517C6.63502 22.6451 7.00364 22.7648 7.38485 22.8023C7.18108 23.2451 7.02522 23.7085 6.91994 24.1845V24.2085C6.2809 27.6456 8.92495 29.9215 10.35 31.1435C10.5849 31.3453 10.8708 31.5903 10.9891 31.7184V39.4462C10.9891 39.5948 11.048 39.7374 11.1528 39.8426C11.2577 39.9477 11.3999 40.0067 11.5482 40.0067C11.6965 40.0067 11.8388 39.9477 11.9436 39.8426C12.0485 39.7374 12.1074 39.5948 12.1074 39.4462V31.5983C12.1074 31.1707 11.7639 30.8776 11.0817 30.2914C9.74293 29.1431 7.50307 27.2212 8.0207 24.4264C8.34022 23.0426 8.97927 22.1393 9.88991 21.7437C11.8214 20.9012 14.5038 22.4516 14.5374 22.466C14.6294 22.5203 14.7351 22.5471 14.8418 22.5431C14.9485 22.5391 15.0519 22.5046 15.1397 22.4436L15.1668 22.4244C16.0088 21.8366 16.8795 21.228 19.0011 21.6476C21.2234 22.3026 21.9599 23.7136 21.4598 26.3627C21.3001 27.1875 20.7617 28.3247 17.9147 30.506C17.8009 30.5941 17.7249 30.7224 17.7022 30.8648C17.4578 32.4216 17.6863 39.1723 17.7022 39.4606C17.7076 39.6056 17.7689 39.7429 17.8732 39.8436C17.9775 39.9442 18.1166 40.0004 18.2614 40.0003H18.2806C18.354 39.9979 18.4263 39.9809 18.4932 39.9504C18.5601 39.9199 18.6203 39.8765 18.6704 39.8227C18.7206 39.7688 18.7597 39.7056 18.7854 39.6366C18.8112 39.5676 18.8231 39.4942 18.8206 39.4206C18.7295 36.7987 18.6608 32.6202 18.787 31.2524C21.1627 29.4041 22.3018 27.9979 22.5654 26.5693C22.8849 24.9084 22.7459 23.5807 22.1596 22.5653C23.7572 22.2578 24.556 21.1783 24.6183 20.1052C24.6822 18.9553 23.9042 17.6708 22.2794 17.1567ZM23.4904 20.0396C23.4457 20.7251 22.8306 21.5227 21.2537 21.5403C20.6675 21.0862 19.9967 20.754 19.2807 20.5633L19.236 20.5521C16.8715 20.0716 15.6477 20.7363 14.7754 21.3273C13.9095 20.8884 11.4668 19.833 9.43938 20.7058C8.92301 20.9281 8.46363 21.2649 8.09579 21.6908C7.32574 21.7597 6.72024 21.5307 6.38634 21.0502C6.22281 20.7949 6.13232 20.4995 6.12471 20.1962C6.1171 19.8929 6.19268 19.5933 6.3432 19.3301C6.6819 18.7311 7.33213 18.4107 8.18046 18.4091C8.53387 18.7904 8.96262 19.0937 9.43938 19.2996C9.99197 19.5274 10.585 19.6402 11.1824 19.6312C12.7033 19.6312 14.1539 18.9905 14.7802 18.6702C15.6509 19.2612 16.8747 19.9195 19.2407 19.4454L19.2855 19.4342C20.2808 19.1443 21.0429 18.7166 21.6036 18.1321C22.9648 18.4187 23.5399 19.2964 23.484 20.0396H23.4904Z" fill="#14387F"/>
</svg>
