<svg width="15" height="20" viewBox="0 0 15 20" fill="none" xmlns="http://www.w3.org/2000/svg">
<path d="M12.6133 13.2683L7.39139 20L2.16948 13.2683C1.23517 12.2797 0.598427 11.1187 0.259259 9.78538C-0.0799092 8.45204 -0.0799092 7.11871 0.259259 5.78538C0.598427 4.45204 1.23837 3.28781 2.17908 2.29269C3.11979 1.29757 4.22369 0.6244 5.49077 0.27318C6.75785 -0.0780393 8.02493 -0.0780393 9.29201 0.27318C10.5591 0.6244 11.663 1.29757 12.6037 2.29269C13.5444 3.28781 14.1843 4.45204 14.5235 5.78538C14.8627 7.11871 14.8627 8.45204 14.5235 9.78538C14.1843 11.1187 13.5476 12.2797 12.6133 13.2683ZM7.40099 2.53659C6.03792 2.53659 4.87642 3.0244 3.91651 4.00001C2.95661 4.97562 2.47665 6.15285 2.47665 7.53172C2.47665 8.91058 2.95661 10.0846 3.91651 11.0537C4.87642 12.0228 6.03792 12.5073 7.40099 12.5073C8.76406 12.5073 9.92555 12.0228 10.8855 11.0537C11.8454 10.0846 12.3253 8.91058 12.3253 7.53172C12.3253 6.15285 11.8454 4.97562 10.8855 4.00001C9.92555 3.0244 8.76406 2.53659 7.40099 2.53659Z" fill="#14387F"/>
</svg>
