<svg width="19" height="18" viewBox="0 0 19 18" fill="none" xmlns="http://www.w3.org/2000/svg">
<path d="M18.123 17.0332L12.6562 11.5312C13.7461 10.2305 14.291 8.73047 14.291 7.03125C14.291 5.75391 13.9775 4.57617 13.3506 3.49805C12.7236 2.41992 11.8682 1.56738 10.7842 0.94043C9.7002 0.313477 8.52246 0 7.25098 0C5.97949 0 4.80469 0.313477 3.72656 0.94043C2.64844 1.56738 1.7959 2.41992 1.16895 3.49805C0.541992 4.57617 0.228516 5.75391 0.228516 7.03125C0.228516 8.30859 0.541992 9.48633 1.16895 10.5645C1.7959 11.6426 2.64844 12.4951 3.72656 13.1221C4.80469 13.749 5.98242 14.0625 7.25977 14.0625C9.00586 14.0625 10.541 13.4883 11.8652 12.3398L17.3145 17.8242C17.4316 17.9414 17.5664 18 17.7188 18C17.8711 18 18.0029 17.9443 18.1143 17.833C18.2256 17.7217 18.2812 17.5869 18.2812 17.4287C18.2812 17.2705 18.2285 17.1387 18.123 17.0332ZM7.25977 12.9551C6.18164 12.9551 5.18848 12.6885 4.28027 12.1553C3.37207 11.6221 2.6543 10.9014 2.12695 9.99316C1.59961 9.08496 1.33594 8.09766 1.33594 7.03125C1.33594 5.96484 1.59961 4.97754 2.12695 4.06934C2.6543 3.16113 3.37207 2.44043 4.28027 1.90723C5.18848 1.37402 6.17871 1.10742 7.25098 1.10742C8.32324 1.10742 9.31348 1.37402 10.2217 1.90723C11.1299 2.44043 11.8477 3.16113 12.375 4.06934C12.9023 4.97754 13.166 5.96484 13.166 7.03125C13.166 7.48828 13.1133 7.93945 13.0078 8.38477C12.9023 8.83008 12.7529 9.24609 12.5596 9.63281C12.3662 10.0195 12.1348 10.3857 11.8652 10.7314C11.5957 11.0771 11.291 11.3848 10.9512 11.6543C10.6113 11.9238 10.248 12.1553 9.86133 12.3486C9.47461 12.542 9.05859 12.6914 8.61328 12.7969C8.16797 12.9023 7.7168 12.9551 7.25977 12.9551Z" fill="#AEB2BE"/>
</svg>
