<svg width="23" height="23" viewBox="0 0 23 23" fill="none" xmlns="http://www.w3.org/2000/svg">
<path d="M20.5912 22.0764L20.5921 22.0774C20.7961 22.2819 21.0521 22.4 21.3457 22.4C21.6333 22.4 21.8874 22.2898 22.089 22.0876C22.2938 21.8822 22.4 21.6232 22.4 21.3335C22.4 21.0508 22.302 20.7935 22.1001 20.5906C22.0998 20.5902 22.0995 20.5899 22.0992 20.5896L15.9921 14.4252C17.1681 12.9015 17.7583 11.1564 17.7583 9.20312C17.7583 7.64427 17.376 6.20076 16.6104 4.88041C15.846 3.56215 14.8007 2.51748 13.4797 1.75117C12.1568 0.983812 10.7174 0.6 9.16894 0.6C7.62046 0.6 6.18411 0.983825 4.86761 1.75164C3.55346 2.51809 2.51197 3.56268 1.74792 4.88041C0.982357 6.20076 0.6 7.64427 0.6 9.20312C0.6 10.762 0.982357 12.2055 1.74792 13.5258C2.51197 14.8436 3.55346 15.8882 4.86761 16.6546C6.1844 17.4226 7.62421 17.8062 9.17916 17.8062C11.1819 17.8062 12.9638 17.1818 14.511 15.9391L20.5912 22.0764ZM9.17916 15.7143C7.99468 15.7143 6.90971 15.4215 5.9162 14.8365C4.919 14.2493 4.13341 13.4581 3.55454 12.4583C2.97696 11.4606 2.68822 10.3781 2.68822 9.20312C2.68822 8.02817 2.97696 6.94561 3.55454 5.94797C4.13341 4.94811 4.919 4.15695 5.9162 3.56978C6.91006 2.98458 7.99169 2.69199 9.16894 2.69199C10.3462 2.69199 11.4278 2.98458 12.4217 3.56978C13.4189 4.15695 14.2045 4.94811 14.7833 5.94797C15.3609 6.94561 15.6497 8.02817 15.6497 9.20312C15.6497 9.70534 15.5919 10.2009 15.4763 10.6903C15.3603 11.1816 15.1966 11.6378 14.9862 12.0598C14.7733 12.487 14.5182 12.8918 14.2207 13.2745C13.9265 13.653 13.5944 13.9892 13.2242 14.2836C12.8504 14.5809 12.4512 14.836 12.0261 15.0492C11.6055 15.2601 11.1509 15.4242 10.6612 15.5405C10.1734 15.6564 9.67963 15.7143 9.17916 15.7143Z" fill="#14387F" stroke="#14387F" stroke-width="0.8"/>
</svg>
