<svg width="40" height="40" viewBox="0 0 40 40" fill="none" xmlns="http://www.w3.org/2000/svg">
<path d="M39.3603 4.59407L35.4047 0.638136C34.9962 0.230734 34.4427 0.00195312 33.8658 0.00195312C33.2888 0.00195312 32.7354 0.230734 32.3269 0.638136L32.1441 0.821261C31.7366 1.22976 31.5077 1.78319 31.5077 2.36017C31.5077 2.93715 31.7366 3.49058 32.1441 3.89907L32.7522 4.50689L29.4672 7.79126L26.0634 4.38845C25.6549 3.98105 25.1015 3.75227 24.5245 3.75227C23.9476 3.75227 23.3942 3.98105 22.9856 4.38845L22.8028 4.57157C22.6007 4.77366 22.4404 5.01357 22.331 5.27762C22.2216 5.54167 22.1653 5.82467 22.1653 6.11048C22.1653 6.39628 22.2216 6.67929 22.331 6.94334C22.4404 7.20738 22.6007 7.4473 22.8028 7.64939L22.985 7.83126L8.94 21.8753C8.54502 22.2712 8.3232 22.8076 8.3232 23.3669C8.3232 23.9261 8.54502 24.4625 8.94 24.8584L9.7525 25.6709L4.25875 31.1653C4.15627 31.2679 4.09871 31.4069 4.09871 31.5519C4.09871 31.6969 4.15627 31.8359 4.25875 31.9384L5.77281 33.4525L0.159062 39.0663C0.10684 39.1167 0.0651904 39.1771 0.0365427 39.2438C0.00789513 39.3105 -0.00717653 39.3823 -0.0077928 39.4549C-0.00840908 39.5275 0.00544236 39.5995 0.0329533 39.6667C0.0604642 39.7339 0.101084 39.795 0.152442 39.8463C0.2038 39.8977 0.264867 39.9383 0.332082 39.9657C0.399296 39.9932 0.471311 40.007 0.543925 40.0064C0.616538 40.0058 0.688296 39.9907 0.755011 39.962C0.821726 39.9333 0.882063 39.8916 0.9325 39.8394L6.54594 34.2259L8.06031 35.74C8.11105 35.7908 8.1713 35.8311 8.23763 35.8586C8.30396 35.8862 8.37507 35.9003 8.44687 35.9003C8.51868 35.9003 8.58978 35.8862 8.65611 35.8586C8.72245 35.8311 8.7827 35.7908 8.83344 35.74L14.3275 30.2463L15.14 31.0588C15.536 31.4536 16.0724 31.6753 16.6316 31.6753C17.1908 31.6753 17.7271 31.4536 18.1231 31.0588L19.7794 29.4025L27.2897 21.8916L32.1672 17.0138L32.3494 17.1959C32.7578 17.6036 33.3112 17.8325 33.8883 17.8325C34.4653 17.8325 35.0188 17.6036 35.4272 17.1959L35.61 17.0128C36.0176 16.6045 36.2465 16.0511 36.2465 15.4741C36.2465 14.8971 36.0176 14.3437 35.61 13.9353L32.2075 10.5316L35.4919 7.24689L36.0997 7.85501C36.5082 8.26249 37.0616 8.49132 37.6386 8.49132C38.2156 8.49132 38.769 8.26249 39.1775 7.85501L39.3603 7.67189C39.768 7.26351 39.997 6.71004 39.997 6.13298C39.997 5.55592 39.768 5.00245 39.3603 4.59407ZM13.5541 29.4731L8.44687 34.58L6.93312 33.0663L5.41937 31.5528L10.5259 26.4447L12.04 27.9588L13.5541 29.4731ZM29.4069 18.2275L27.2884 16.1094C27.238 16.0571 27.1777 16.0155 27.1109 15.9868C27.0442 15.9581 26.9725 15.943 26.8999 15.9424C26.8272 15.9417 26.7552 15.9556 26.688 15.983C26.6208 16.0105 26.5597 16.0511 26.5084 16.1025C26.457 16.1538 26.4164 16.2148 26.3889 16.282C26.3614 16.3492 26.3475 16.4213 26.3481 16.4939C26.3488 16.5665 26.3638 16.6382 26.3925 16.705C26.4211 16.7717 26.4628 16.8321 26.515 16.8825L28.6338 19.0009L26.9047 20.7316L25.6806 19.5075C25.578 19.4046 25.4387 19.3467 25.2933 19.3465C25.148 19.3464 25.0085 19.4039 24.9056 19.5066C24.8027 19.6092 24.7448 19.7485 24.7446 19.8939C24.7445 20.0392 24.802 20.1787 24.9047 20.2816L26.1284 21.5056L24.3981 23.2363L22.2797 21.1169C22.2289 21.0661 22.1686 21.0258 22.1023 20.9983C22.0359 20.9708 21.9648 20.9567 21.893 20.9567C21.8211 20.9567 21.75 20.9708 21.6837 20.9983C21.6173 21.0258 21.557 21.0661 21.5062 21.1169C21.4555 21.1677 21.4152 21.228 21.3877 21.2943C21.3602 21.3607 21.3461 21.4318 21.3461 21.5036C21.3461 21.5754 21.3602 21.6465 21.3877 21.7129C21.4152 21.7792 21.4555 21.8395 21.5062 21.8903L23.6247 24.0084L21.8944 25.7391L20.6703 24.515C20.6195 24.4642 20.5592 24.4239 20.4929 24.3965C20.4265 24.369 20.3554 24.3548 20.2836 24.3548C20.2118 24.3548 20.1407 24.369 20.0743 24.3965C20.0079 24.4239 19.9477 24.4642 19.8969 24.515C19.8461 24.5658 19.8058 24.6261 19.7783 24.6924C19.7508 24.7588 19.7367 24.8299 19.7367 24.9017C19.7367 24.9735 19.7508 25.0447 19.7783 25.111C19.8058 25.1774 19.8461 25.2377 19.8969 25.2884L21.1234 26.5125L19.3928 28.2431L17.2731 26.1253C17.1706 26.0228 17.0316 25.9652 16.8866 25.9652C16.7416 25.9652 16.6025 26.0228 16.5 26.1253C16.3975 26.2278 16.3399 26.3669 16.3399 26.5119C16.3399 26.6569 16.3975 26.7959 16.5 26.8984L18.6184 29.0172L17.3494 30.2859C17.1586 30.4763 16.9001 30.5832 16.6306 30.5832C16.3611 30.5832 16.1026 30.4763 15.9119 30.2859L9.71375 24.0856C9.5233 23.8949 9.41633 23.6364 9.41633 23.3669C9.41633 23.0974 9.5233 22.8389 9.71375 22.6481L23.7581 8.6047L31.3937 16.2406L29.4069 18.2275ZM34.8369 16.2397L34.6538 16.4228C34.4504 16.6254 34.1751 16.7392 33.8881 16.7392C33.6011 16.7392 33.3258 16.6254 33.1225 16.4228L23.5762 6.87532C23.4756 6.77482 23.3958 6.65547 23.3414 6.5241C23.2869 6.39273 23.2589 6.25191 23.2589 6.1097C23.2589 5.96749 23.2869 5.82667 23.3414 5.6953C23.3958 5.56393 23.4756 5.44458 23.5762 5.34407L23.7591 5.16095C23.9623 4.95821 24.2376 4.84436 24.5247 4.84436C24.8117 4.84436 25.0871 4.95821 25.2903 5.16095L29.0784 8.95001L31.0472 10.9188L34.8363 14.7078C35.0392 14.911 35.1532 15.1864 35.1533 15.4736C35.1535 15.7608 35.0396 16.0363 34.8369 16.2397ZM31.4341 9.75907L30.2397 8.5647L33.5241 5.28032L34.7184 6.4747L31.4341 9.75907ZM38.5869 6.89939L38.4041 7.08251C38.2008 7.28525 37.9255 7.3991 37.6384 7.3991C37.3514 7.3991 37.076 7.28525 36.8728 7.08251L35.8781 6.08782L33.9094 4.11907L32.9162 3.12532C32.7134 2.92218 32.5994 2.64681 32.5994 2.3597C32.5994 2.07259 32.7134 1.79722 32.9162 1.59407L33.0991 1.41095C33.3023 1.20821 33.5776 1.09436 33.8647 1.09436C34.1517 1.09436 34.4271 1.20821 34.6303 1.41095L38.5872 5.36814C38.79 5.57132 38.9039 5.84671 38.9039 6.13383C38.9038 6.42094 38.7898 6.69628 38.5869 6.89939Z" fill="#14387F"/>
</svg>
