<svg width="18" height="17" viewBox="0 0 18 17" fill="none" xmlns="http://www.w3.org/2000/svg">
<path fill-rule="evenodd" clip-rule="evenodd" d="M8.87494 12.765H9.68334C9.68334 12.765 9.92586 12.7246 10.0471 12.6033C10.1684 12.4821 10.1684 12.2395 10.1684 12.2395C10.1684 12.2395 10.1684 11.1886 10.6534 11.0269C11.1385 10.8653 11.7852 12.0779 12.4319 12.5225C12.917 12.8863 13.2807 12.8054 13.2807 12.8054L15.0592 12.765C15.0592 12.765 15.9889 12.7246 15.5443 11.9566C15.5038 11.9162 15.3017 11.4311 14.2104 10.4206C13.0786 9.36971 13.2403 9.57181 14.5742 7.75291C15.3826 6.66156 15.7059 6.01484 15.6251 5.69148C15.5443 5.40854 14.938 5.48938 14.938 5.48938H12.917C12.917 5.48938 12.7553 5.44896 12.6744 5.5298C12.5532 5.61064 12.5128 5.7319 12.5128 5.7319C12.5128 5.7319 12.1894 6.58072 11.7852 7.30828C10.8959 8.80383 10.5322 8.88467 10.4109 8.80383C10.0875 8.60173 10.1684 7.91459 10.1684 7.46997C10.1684 6.01484 10.4109 5.40854 9.72376 5.24686C9.52166 5.20644 9.35998 5.16602 8.7941 5.16602C8.06653 5.16602 7.46023 5.16602 7.13687 5.3277C6.89435 5.44896 6.73267 5.69148 6.85393 5.69148C6.97519 5.69148 7.29855 5.77232 7.46023 5.97442C7.62191 6.3382 7.62191 6.9445 7.62191 6.9445C7.62191 6.9445 7.74317 8.68257 7.33897 8.88467C7.05603 9.04635 6.69225 8.72299 5.88384 7.3487C5.47964 6.66156 5.15628 5.85316 5.15628 5.85316C5.15628 5.85316 5.11586 5.69148 4.9946 5.61064C4.87334 5.5298 4.67124 5.48938 4.67124 5.48938H2.77149C2.77149 5.48938 2.48855 5.48938 2.36729 5.61064C2.28645 5.7319 2.36729 5.934 2.36729 5.934C2.36729 5.934 3.86284 9.41013 5.56048 11.1886C7.13687 12.8863 8.87494 12.765 8.87494 12.765V12.765Z" stroke="white"/>
</svg>
