<svg width="24" height="24" viewBox="0 0 24 24" fill="none" xmlns="http://www.w3.org/2000/svg">
<path d="M4.92477 0.75C3.81888 0.754309 2.75951 1.19553 1.97752 1.97752C1.19553 2.75951 0.754309 3.81888 0.75 4.92477V19.0752C0.754309 20.1811 1.19553 21.2405 1.97752 22.0225C2.75951 22.8045 3.81888 23.2457 4.92477 23.25H19.0752C20.1811 23.2457 21.2405 22.8045 22.0225 22.0225C22.8045 21.2405 23.2457 20.1811 23.25 19.0752V4.92477C23.2457 3.81888 22.8045 2.75951 22.0225 1.97752C21.2405 1.19553 20.1811 0.754309 19.0752 0.75H4.92477ZM4.92477 2.79545H19.0752C20.2616 2.79545 21.2045 3.73841 21.2045 4.92477V19.0752C21.2045 20.2616 20.2616 21.2045 19.0752 21.2045H4.92477C4.64465 21.2063 4.36697 21.1524 4.10783 21.0461C3.8487 20.9397 3.61326 20.7829 3.41518 20.5848C3.2171 20.3867 3.06033 20.1513 2.95394 19.8922C2.84756 19.633 2.79369 19.3553 2.79545 19.0752V4.92477C2.79545 3.73841 3.73841 2.79545 4.92477 2.79545ZM11.7126 8.14432C10.9609 8.13716 10.3217 8.14432 9.96273 8.32023C9.72239 8.43682 9.53932 8.69966 9.65079 8.71193C9.79091 8.73239 10.1059 8.79989 10.2747 9.02795C10.4894 9.31943 10.4823 9.97909 10.4823 9.97909C10.4823 9.97909 10.6019 11.7924 10.1898 12.0205C9.90648 12.1759 9.51886 11.8599 8.68023 10.4178C8.25273 9.67534 7.92955 8.85614 7.92955 8.85614C7.92955 8.85614 7.86818 8.70375 7.75773 8.62398C7.6217 8.52477 7.43352 8.49204 7.43352 8.49204L5.43205 8.50432C5.43205 8.50432 5.13239 8.51659 5.025 8.64443C4.92477 8.76409 5.01682 8.99932 5.01682 8.99932C5.01682 8.99932 6.58261 12.6627 8.35602 14.5087C9.98216 16.2034 11.8282 16.0909 11.8282 16.0909H12.6668C12.6668 16.0909 12.9184 16.0633 13.0463 15.9273C13.1669 15.7994 13.1628 15.5591 13.1628 15.5591C13.1628 15.5591 13.1465 14.4372 13.666 14.2694C14.1815 14.1089 14.836 15.3556 15.5356 15.8352C16.0674 16.1983 16.4703 16.1185 16.4703 16.1185L18.3409 16.0909C18.3409 16.0909 19.3156 16.0306 18.8523 15.2594C18.8165 15.2001 18.5843 14.6928 17.4665 13.6538C16.2914 12.5676 16.4478 12.7435 17.8612 10.8617C18.7203 9.71523 19.064 9.01568 18.9556 8.71193C18.8533 8.42864 18.2213 8.50432 18.2213 8.50432L16.1155 8.51659C16.1155 8.51659 15.96 8.49614 15.8444 8.56466C15.765 8.62367 15.7017 8.70176 15.6603 8.7917C15.6603 8.7917 15.3249 9.67841 14.881 10.4342C13.9462 12.0235 13.5668 12.1115 13.4155 12.0123C13.0595 11.7801 13.1475 11.0847 13.1475 10.5938C13.1475 9.04739 13.3827 8.40818 12.6924 8.24148C12.4643 8.18523 12.2966 8.14943 11.7136 8.14432H11.7126Z" fill="#14387F"/>
</svg>
