<svg width="16" height="16" viewBox="0 0 16 16" fill="none" xmlns="http://www.w3.org/2000/svg">
<path fill-rule="evenodd" clip-rule="evenodd" d="M13.315 2.69003C12.6229 1.99366 11.7995 1.44152 10.8926 1.0656C9.98559 0.689678 9.01304 0.497442 8.03125 0.500026C3.91562 0.500026 0.5625 3.85003 0.5625 7.96565C0.559381 9.27613 0.903098 10.5641 1.55875 11.6988L0.5 15.5682L4.46 14.5282C5.55499 15.1246 6.78183 15.4377 8.02875 15.4388H8.03188C12.1481 15.4388 15.4975 12.0894 15.5 7.97065C15.5 5.97628 14.7238 4.10128 13.315 2.6894V2.69003ZM8.03125 14.1769H8.02875C6.91722 14.1769 5.82609 13.8784 4.86938 13.3125L4.6425 13.1782L2.29125 13.7938L2.91875 11.5032L2.7725 11.2688C2.15037 10.2795 1.82101 9.13429 1.8225 7.96565C1.8225 4.54565 4.60813 1.76253 8.03375 1.76253C8.84901 1.76049 9.65658 1.92019 10.4097 2.23238C11.1628 2.54457 11.8465 3.00305 12.4212 3.58128C12.9988 4.15673 13.4566 4.84091 13.7682 5.5943C14.0799 6.34769 14.2392 7.15536 14.2369 7.97065C14.2369 11.3938 11.4513 14.1769 8.03062 14.1769H8.03125ZM11.4344 9.52815C11.2488 9.43565 10.3306 8.9844 10.16 8.92315C9.98937 8.8594 9.86438 8.83003 9.74 9.01565C9.615 9.20315 9.25875 9.62378 9.14938 9.74815C9.04188 9.87003 8.93188 9.88753 8.74625 9.7944C8.55875 9.7019 7.95813 9.50377 7.245 8.8669C6.69062 8.37315 6.315 7.76065 6.2075 7.57503C6.0975 7.38753 6.195 7.28753 6.28813 7.19378C6.37312 7.11128 6.47563 6.9769 6.56875 6.8669C6.66125 6.76003 6.69375 6.6819 6.75625 6.5569C6.8175 6.43253 6.78625 6.32253 6.73938 6.23003C6.69312 6.13753 6.32 5.2169 6.16375 4.84315C6.01188 4.4794 5.85813 4.53065 5.74375 4.52378C5.63625 4.51878 5.51187 4.51878 5.3875 4.51878C5.2625 4.51878 5.06 4.56503 4.88875 4.75315C4.71813 4.93878 4.23688 5.39065 4.23688 6.30815C4.23688 7.22628 4.90563 8.1144 4.99938 8.2394C5.09188 8.36128 6.315 10.2457 8.18687 11.0544C8.63188 11.2469 8.97813 11.3619 9.24938 11.4475C9.69625 11.5888 10.1038 11.5694 10.4263 11.5225C10.785 11.4694 11.5294 11.0713 11.6856 10.6344C11.84 10.2 11.84 9.82628 11.7931 9.74815C11.7469 9.67003 11.6225 9.62315 11.4344 9.52815Z" fill="white"/>
</svg>
