<svg width="18" height="14" viewBox="0 0 18 14" fill="none" xmlns="http://www.w3.org/2000/svg">
<path d="M17.75 6.94531C17.75 6.90234 17.75 6.85352 17.748 6.79687C17.7461 6.63867 17.7422 6.46094 17.7383 6.27148C17.7227 5.72656 17.6953 5.18359 17.6523 4.67187C17.5938 3.9668 17.5078 3.37891 17.3906 2.9375C17.267 2.47685 17.0246 2.05674 16.6876 1.71913C16.3507 1.38153 15.9311 1.13827 15.4707 1.01367C14.918 0.865234 13.8359 0.773437 12.3125 0.716797C11.5879 0.689453 10.8125 0.671875 10.0371 0.662109C9.76562 0.658203 9.51367 0.65625 9.28711 0.654297H8.71289C8.48633 0.65625 8.23438 0.658203 7.96289 0.662109C7.1875 0.671875 6.41211 0.689453 5.6875 0.716797C4.16406 0.775391 3.08008 0.867187 2.5293 1.01367C2.06875 1.13797 1.64896 1.38112 1.312 1.71877C0.975037 2.05642 0.732735 2.4767 0.609375 2.9375C0.490234 3.37891 0.40625 3.9668 0.347656 4.67187C0.304688 5.18359 0.277344 5.72656 0.261719 6.27148C0.255859 6.46094 0.253906 6.63867 0.251953 6.79687C0.251953 6.85352 0.25 6.90234 0.25 6.94531V7.05469C0.25 7.09766 0.25 7.14648 0.251953 7.20312C0.253906 7.36133 0.257812 7.53906 0.261719 7.72851C0.277344 8.27344 0.304688 8.81641 0.347656 9.32812C0.40625 10.0332 0.492188 10.6211 0.609375 11.0625C0.859375 11.998 1.59375 12.7363 2.5293 12.9863C3.08008 13.1348 4.16406 13.2266 5.6875 13.2832C6.41211 13.3105 7.1875 13.3281 7.96289 13.3379C8.23438 13.3418 8.48633 13.3438 8.71289 13.3457H9.28711C9.51367 13.3438 9.76562 13.3418 10.0371 13.3379C10.8125 13.3281 11.5879 13.3105 12.3125 13.2832C13.8359 13.2246 14.9199 13.1328 15.4707 12.9863C16.4062 12.7363 17.1406 12 17.3906 11.0625C17.5098 10.6211 17.5938 10.0332 17.6523 9.32812C17.6953 8.81641 17.7227 8.27344 17.7383 7.72851C17.7441 7.53906 17.7461 7.36133 17.748 7.20312C17.748 7.14648 17.75 7.09766 17.75 7.05469V6.94531ZM16.3438 7.04687C16.3438 7.08789 16.3438 7.13281 16.3418 7.18555C16.3398 7.33789 16.3359 7.50586 16.332 7.6875C16.3184 8.20703 16.291 8.72656 16.25 9.20898C16.1973 9.83789 16.123 10.3535 16.0312 10.6992C15.9102 11.1504 15.5547 11.5078 15.1055 11.627C14.6953 11.7363 13.6621 11.8242 12.2578 11.877C11.5469 11.9043 10.7812 11.9219 10.0176 11.9316C9.75 11.9355 9.50195 11.9375 9.2793 11.9375H8.7207L7.98242 11.9316C7.21875 11.9219 6.45508 11.9043 5.74219 11.877C4.33789 11.8223 3.30273 11.7363 2.89453 11.627C2.44531 11.5059 2.08984 11.1504 1.96875 10.6992C1.87695 10.3535 1.80273 9.83789 1.75 9.20898C1.70898 8.72656 1.68359 8.20703 1.66797 7.6875C1.66211 7.50586 1.66016 7.33594 1.6582 7.18555C1.6582 7.13281 1.65625 7.08594 1.65625 7.04687V6.95312C1.65625 6.91211 1.65625 6.86719 1.6582 6.81445C1.66016 6.66211 1.66406 6.49414 1.66797 6.3125C1.68164 5.79297 1.70898 5.27344 1.75 4.79102C1.80273 4.16211 1.87695 3.64648 1.96875 3.30078C2.08984 2.84961 2.44531 2.49219 2.89453 2.37305C3.30469 2.26367 4.33789 2.17578 5.74219 2.12305C6.45313 2.0957 7.21875 2.07812 7.98242 2.06836C8.25 2.06445 8.49805 2.0625 8.7207 2.0625H9.2793L10.0176 2.06836C10.7812 2.07812 11.5449 2.0957 12.2578 2.12305C13.6621 2.17773 14.6973 2.26367 15.1055 2.37305C15.5547 2.49414 15.9102 2.84961 16.0312 3.30078C16.123 3.64648 16.1973 4.16211 16.25 4.79102C16.291 5.27344 16.3164 5.79297 16.332 6.3125C16.3379 6.49414 16.3398 6.66406 16.3418 6.81445C16.3418 6.86719 16.3438 6.91406 16.3438 6.95312V7.04687ZM7.26172 9.61719L11.793 6.98047L7.26172 4.38281V9.61719Z" fill="#14387F"/>
</svg>
