<svg width="40" height="40" viewBox="0 0 40 40" fill="none" xmlns="http://www.w3.org/2000/svg">
<g clip-path="url(#clip0)">
<path d="M0.585938 35.0753C0.909424 35.0753 1.17188 34.8131 1.17188 34.4893V14.3508H35.7913V20.7916C35.7913 21.1154 36.0538 21.3775 36.3773 21.3775C36.701 21.3775 36.9632 21.1154 36.9632 20.7916V9.21167C36.9632 7.24725 35.365 5.64905 33.4009 5.64905H31.8643V4.92334C31.8643 4.13843 31.2259 3.5 30.441 3.5H29.3524C28.5678 3.5 27.9294 4.13843 27.9294 4.92334V5.64905H24.0433V4.92334C24.0433 4.13843 23.4048 3.5 22.6199 3.5H21.5314C20.7468 3.5 20.1083 4.13843 20.1083 4.92334V5.64905H16.2219V4.92334C16.2219 4.13843 15.5835 3.5 14.7986 3.5H13.7103C12.9254 3.5 12.287 4.13843 12.287 4.92334V5.64905H8.40088V4.92334C8.40088 4.13843 7.76245 3.5 6.97754 3.5H5.88928C5.10437 3.5 4.46594 4.13843 4.46594 4.92334V5.64905H3.56262C1.59821 5.64905 0 7.24725 0 9.21167V34.4893C0 34.8131 0.262451 35.0753 0.585938 35.0753ZM29.1013 4.92334C29.1013 4.78479 29.2142 4.67188 29.3527 4.67188H30.4413C30.5798 4.67188 30.6924 4.78479 30.6924 4.92334V7.77002C30.6924 7.90857 30.5798 8.02148 30.4413 8.02148H29.3527C29.2142 8.02148 29.1013 7.90887 29.1013 7.77002V4.92334ZM21.2802 4.92334C21.2802 4.78479 21.3928 4.67188 21.5314 4.67188H22.6199C22.7585 4.67188 22.8714 4.78479 22.8714 4.92334V7.77002C22.8714 7.90857 22.7585 8.02148 22.6199 8.02148H21.5314C21.3928 8.02148 21.2802 7.90887 21.2802 7.77002V4.92334ZM13.4589 4.92334C13.4589 4.78479 13.5718 4.67188 13.7103 4.67188H14.7989C14.9374 4.67188 15.0504 4.78479 15.0504 4.92334V7.77002C15.0504 7.90857 14.9374 8.02148 14.7989 8.02148H13.7103C13.5718 8.02148 13.4589 7.90887 13.4589 7.77002V4.92334ZM5.63782 4.92334C5.63782 4.78479 5.75073 4.67188 5.88928 4.67188H6.97784C7.11639 4.67188 7.229 4.78479 7.229 4.92334V7.77002C7.229 7.90857 7.11639 8.02148 6.97784 8.02148H5.88928C5.75073 8.02148 5.63782 7.90887 5.63782 7.77002V4.92334ZM3.56262 6.82092H4.46594V7.77002C4.46594 8.55493 5.10437 9.19336 5.88928 9.19336H6.97784C7.76245 9.19336 8.40088 8.55493 8.40088 7.77002V6.82092H12.2873V7.77002C12.2873 8.55493 12.9257 9.19336 13.7103 9.19336H14.7989C15.5838 9.19336 16.2222 8.55493 16.2222 7.77002V6.82092H20.1083V7.77002C20.1083 8.55493 20.7468 9.19336 21.5317 9.19336H22.6202C23.4048 9.19336 24.0433 8.55493 24.0433 7.77002V6.82092H27.9294V7.77002C27.9294 8.55493 28.5678 9.19336 29.3527 9.19336H30.4413C31.2259 9.19336 31.8643 8.55493 31.8643 7.77002V6.82092H33.4009C34.7192 6.82092 35.7916 7.89331 35.7916 9.21167V13.179H1.17188V9.21167C1.17188 7.89331 2.24426 6.82092 3.56262 6.82092Z" fill="#14387F"/>
<path d="M9.5 34.6549H1.52435C1.32996 34.6549 1.17188 34.4968 1.17188 34.3024V31.29C1.17188 30.9662 0.909424 30.7041 0.585938 30.7041C0.262451 30.7041 0 30.9662 0 31.29V34.3024C0 35.1429 0.683899 35.8268 1.52435 35.8268H9.5C9.82349 35.8268 10.0859 35.5643 10.0859 35.2408C10.0859 34.9171 9.82349 34.6549 9.5 34.6549Z" fill="#14387F"/>
<path d="M6.61487 13.2627H4.57812C4.25464 13.2627 3.99219 13.5251 3.99219 13.8486C3.99219 14.1724 4.25464 14.4346 4.57812 14.4346H6.61487C6.93835 14.4346 7.20081 14.1724 7.20081 13.8486C7.20081 13.5251 6.93835 13.2627 6.61487 13.2627Z" fill="#14387F"/>
<path d="M10.8359 14.4346H12.8727C13.1962 14.4346 13.4586 14.1724 13.4586 13.8486C13.4586 13.5251 13.1962 13.2627 12.8727 13.2627H10.8359C10.5125 13.2627 10.25 13.5251 10.25 13.8486C10.25 14.1724 10.5125 14.4346 10.8359 14.4346Z" fill="#14387F"/>
<path d="M17.0938 14.4346H19.1302C19.4537 14.4346 19.7161 14.1724 19.7161 13.8486C19.7161 13.5251 19.4537 13.2627 19.1302 13.2627H17.0938C16.77 13.2627 16.5078 13.5251 16.5078 13.8486C16.5078 14.1724 16.77 14.4346 17.0938 14.4346Z" fill="#14387F"/>
<path d="M23.3555 14.4346H25.3922C25.7157 14.4346 25.9781 14.1724 25.9781 13.8486C25.9781 13.5251 25.7157 13.2627 25.3922 13.2627H23.3555C23.032 13.2627 22.7695 13.5251 22.7695 13.8486C22.7695 14.1724 23.032 14.4346 23.3555 14.4346Z" fill="#14387F"/>
<path d="M31.6497 13.2627H29.6133C29.2895 13.2627 29.0273 13.5251 29.0273 13.8486C29.0273 14.1724 29.2895 14.4346 29.6133 14.4346H31.6497C31.9732 14.4346 32.2357 14.1724 32.2357 13.8486C32.2357 13.5251 31.9732 13.2627 31.6497 13.2627Z" fill="#14387F"/>
<path d="M6.61487 16.209H4.57812C4.25464 16.209 3.99219 16.4711 3.99219 16.7949C3.99219 17.1187 4.25464 17.3809 4.57812 17.3809H6.61487C6.93835 17.3809 7.20081 17.1187 7.20081 16.7949C7.20081 16.4711 6.93835 16.209 6.61487 16.209Z" fill="#14387F"/>
<path d="M10.8359 17.3809H12.8727C13.1962 17.3809 13.4586 17.1187 13.4586 16.7949C13.4586 16.4711 13.1962 16.209 12.8727 16.209H10.8359C10.5125 16.209 10.25 16.4711 10.25 16.7949C10.25 17.1187 10.5125 17.3809 10.8359 17.3809Z" fill="#14387F"/>
<path d="M17.0938 17.3809H19.1302C19.4537 17.3809 19.7161 17.1187 19.7161 16.7949C19.7161 16.4711 19.4537 16.209 19.1302 16.209H17.0938C16.77 16.209 16.5078 16.4711 16.5078 16.7949C16.5078 17.1187 16.77 17.3809 17.0938 17.3809Z" fill="#14387F"/>
<path d="M23.3555 17.3809H25.3922C25.7157 17.3809 25.9781 17.1187 25.9781 16.7949C25.9781 16.4711 25.7157 16.209 25.3922 16.209H23.3555C23.032 16.209 22.7695 16.4711 22.7695 16.7949C22.7695 17.1187 23.032 17.3809 23.3555 17.3809Z" fill="#14387F"/>
<path d="M31.6497 16.209H29.6133C29.2895 16.209 29.0273 16.4711 29.0273 16.7949C29.0273 17.1187 29.2895 17.3809 29.6133 17.3809H31.6497C31.9732 17.3809 32.2357 17.1187 32.2357 16.7949C32.2357 16.4711 31.9732 16.209 31.6497 16.209Z" fill="#14387F"/>
<path d="M10.8506 28.8837L13.8633 31.8964C14.299 32.3322 14.8783 32.5721 15.4947 32.5721C16.1112 32.5721 16.6907 32.3322 17.1262 31.8964L25.3766 23.646C26.2763 22.7463 26.2763 21.2824 25.3766 20.3828C24.477 19.4831 23.013 19.4831 22.1134 20.3828L15.4947 27.0014L14.1135 25.6205C13.2141 24.7208 11.7502 24.7208 10.8503 25.6205C9.9509 26.5201 9.9509 27.9841 10.8506 28.8837ZM11.6791 26.449C11.9004 26.2278 12.1912 26.117 12.482 26.117C12.7729 26.117 13.0637 26.2278 13.285 26.449L15.0803 28.2444C15.3092 28.4733 15.68 28.4733 15.9089 28.2444L22.9419 21.2116C23.385 20.7688 24.1053 20.7688 24.5478 21.2113C24.9906 21.6541 24.9906 22.3746 24.5478 22.8174L16.2976 31.0676C16.0831 31.2821 15.7981 31.4002 15.4947 31.4002C15.1914 31.4002 14.9063 31.2821 14.6918 31.0676L11.6791 28.0549C11.2363 27.6121 11.2363 26.8918 11.6791 26.449Z" fill="#14387F"/>
<path d="M36.9643 25.3406V20.665C36.9643 20.3412 36.7021 20.0791 36.3784 20.0791C36.0549 20.0791 35.7924 20.3412 35.7924 20.665V24.5933C34.724 24.0394 33.5115 23.726 32.2274 23.726C27.9409 23.726 24.4536 27.2132 24.4536 31.4997C24.4536 32.6224 24.6932 33.6899 25.1232 34.6549H9.30469C8.9812 34.6549 8.71875 34.9171 8.71875 35.2408C8.71875 35.5643 8.9812 35.8268 9.30469 35.8268H25.7723C27.1691 37.9041 29.5412 39.2734 32.2274 39.2734C36.5139 39.2734 40.0011 35.7862 40.0011 31.4997C40.0011 28.9948 38.8097 26.7631 36.9643 25.3406ZM32.2274 38.1016C28.5869 38.1016 25.6255 35.1401 25.6255 31.4997C25.6255 27.8593 28.5872 24.8978 32.2274 24.8978C35.8675 24.8978 38.8292 27.8593 38.8292 31.4997C38.8292 35.1401 35.8675 38.1016 32.2274 38.1016Z" fill="#14387F"/>
<path d="M32.228 25.7441C29.0544 25.7441 26.4727 28.3262 26.4727 31.4995C26.4727 34.673 29.0544 37.2548 32.228 37.2548C35.4015 37.2548 37.983 34.673 37.983 31.4995C37.983 28.3262 35.4012 25.7441 32.228 25.7441ZM32.7526 36.0518C32.7913 35.9733 32.8139 35.8854 32.8139 35.7921V35.0782C32.8139 34.7548 32.5515 34.4923 32.228 34.4923C31.9045 34.4923 31.642 34.7548 31.642 35.0782V35.7921C31.642 35.8854 31.6643 35.9733 31.7034 36.0518C29.5946 35.8104 27.9171 34.1328 27.6757 32.024C27.7538 32.0631 27.842 32.0854 27.9354 32.0854H28.6489C28.9727 32.0854 29.2348 31.8232 29.2348 31.4995C29.2348 31.1757 28.9727 30.9135 28.6489 30.9135H27.9354C27.842 30.9135 27.7538 30.9361 27.6757 30.9749C27.9171 28.8661 29.5946 27.1885 31.7034 26.9471C31.6643 27.0256 31.642 27.1135 31.642 27.2068V27.9207C31.642 28.2444 31.9045 28.5066 32.228 28.5066C32.5515 28.5066 32.8139 28.2444 32.8139 27.9207V27.2068C32.8139 27.1135 32.7913 27.0256 32.7526 26.9471C34.8613 27.1885 36.5389 28.8661 36.7803 30.9749C36.7018 30.9361 36.614 30.9135 36.5206 30.9135H35.8068C35.4833 30.9135 35.2208 31.1757 35.2208 31.4995C35.2208 31.8232 35.4833 32.0854 35.8068 32.0854H36.5206C36.614 32.0854 36.7018 32.0631 36.7803 32.024C36.5386 34.1328 34.8613 35.8104 32.7526 36.0518Z" fill="#14387F"/>
<path d="M33.5181 30.9134H32.8125V30.3125C32.8125 29.989 32.55 29.7266 32.2266 29.7266C31.9028 29.7266 31.6406 29.989 31.6406 30.3125V31.4993C31.6406 31.8231 31.9028 32.0853 32.2266 32.0853H33.5181C33.8416 32.0853 34.104 31.8231 34.104 31.4993C34.104 31.1755 33.8416 30.9134 33.5181 30.9134Z" fill="#14387F"/>
</g>
<defs>
<clipPath id="clip0">
<rect width="40" height="40" fill="white"/>
</clipPath>
</defs>
</svg>
