<svg width="40" height="36" viewBox="0 0 40 36" fill="none" xmlns="http://www.w3.org/2000/svg">
<path d="M38.4375 6.28181H29.429C29.8746 5.53509 30.1198 4.78923 30.1576 4.05314C30.213 2.97415 29.8184 1.97993 29.0164 1.17798C28.156 0.317512 27.0858 -0.0710036 25.9216 0.0542308C24.7055 0.185012 23.4723 0.867981 22.2563 2.084C21.382 2.95829 20.5927 4.03189 20 5.13111C19.4073 4.03196 18.618 2.95829 17.7437 2.084C16.5277 0.867903 15.2944 0.184934 14.0784 0.0541527C12.9143 -0.0708473 11.844 0.317512 10.9837 1.1779C10.1816 1.97993 9.78703 2.97415 9.84242 4.05314C9.88023 4.78931 10.1255 5.53509 10.571 6.28181H1.5625C0.700938 6.28181 0 6.98275 0 7.84431V12.5318C0 13.3934 0.700938 14.0943 1.5625 14.0943V34.4068C1.5625 35.2684 2.26344 35.9693 3.125 35.9693H36.8749C37.7365 35.9693 38.4374 35.2684 38.4374 34.4068V14.0943C39.299 14.0943 39.9999 13.3934 39.9999 12.5318V7.84431C40 6.98267 39.299 6.28181 38.4375 6.28181ZM23.3612 3.18876C24.3052 2.24478 25.2484 1.69798 26.0888 1.60767C26.7764 1.53392 27.3896 1.76079 27.9116 2.28275C28.952 3.32314 28.808 4.7379 27.5122 6.28173H24.9539L26.0455 5.20712C26.353 4.90447 26.357 4.40978 26.0542 4.10228C25.7516 3.79478 25.2569 3.79087 24.9494 4.09361L22.7266 6.28181H21.1678C21.7034 5.18087 22.4939 4.05603 23.3612 3.18876ZM16.0936 12.5318V7.84431H23.9064V12.5318H16.0936ZM12.0884 2.28275C12.6103 1.76087 13.2234 1.53392 13.9112 1.60767C14.7516 1.69806 15.6948 2.24478 16.6388 3.18884C17.5061 4.05603 18.2966 5.18087 18.8322 6.28181H17.2734L15.0505 4.09368C14.743 3.79095 14.2484 3.79478 13.9457 4.10236C13.643 4.40986 13.6469 4.90454 13.9544 5.2072L15.0461 6.28181H12.4877C11.192 4.7379 11.048 3.32314 12.0884 2.28275ZM1.56234 7.84431H14.5311V12.5318H2.34453H2.34313H1.5625L1.56234 7.84431ZM3.125 14.0943H16.0936V27.7192C16.0936 28.1507 16.4434 28.5005 16.8748 28.5005C17.3063 28.5005 17.6561 28.1507 17.6561 27.7192V14.0942H22.3438V34.4067H17.6561V27.7659C17.6561 27.3344 17.3063 26.9846 16.8748 26.9846C16.4434 26.9846 16.0936 27.3344 16.0936 27.7659V34.4068H3.125V14.0943ZM36.8749 34.4068H23.9063V14.0943H36.8749V34.4068ZM38.4375 12.5318H37.6562H25.469V7.84431H38.4375V12.5318Z" fill="#14387F"/>
</svg>
