<svg width="36" height="40" viewBox="0 0 36 40" fill="none" xmlns="http://www.w3.org/2000/svg">
<path d="M22.8916 40H0.754862C0.607895 40 0.466724 39.9432 0.361457 39.8415C0.256191 39.7398 0.19516 39.6013 0.191381 39.4557C0.0497057 34.132 1.15735 31.5316 7.99962 30.4972V28.173C7.08532 27.6568 6.24314 27.0241 5.49454 26.291C3.94578 24.7825 2.87355 22.9723 2.59664 21.4622C2.25786 21.4549 1.93336 21.3255 1.6838 21.0983C-0.236865 19.4525 -1.11429 11.8206 2.37447 6.49214C4.95038 2.55407 8.8062 0.0111741 12.2 0H12.2209C13.9725 0 15.4118 0.716737 16.278 2.01932L16.2908 2.04007C16.9348 3.09522 17.3293 4.053 17.5176 4.9581C20.4735 6.17448 21.8645 7.51217 22.0738 11.6019C23.212 12.6331 23.6419 14.3555 23.5227 15.9837C23.3617 18.019 22.428 19.5227 21.1609 19.8835C21.1672 20.1713 21.1548 20.4592 21.1239 20.7455C21.1159 20.8188 21.0933 20.8899 21.0576 20.9547C21.0219 21.0194 20.9736 21.0765 20.9156 21.1228C20.8576 21.169 20.791 21.2035 20.7195 21.2242C20.6481 21.2449 20.5732 21.2515 20.4992 21.2435C20.4252 21.2355 20.3536 21.2132 20.2883 21.1778C20.223 21.1423 20.1654 21.0945 20.1187 21.037C20.0721 20.9795 20.0373 20.9134 20.0164 20.8426C19.9955 20.7717 19.9889 20.6975 19.9969 20.6242C20.0349 20.2656 20.0397 19.9044 20.0114 19.5451C19.9997 19.5002 19.9937 19.4541 19.9937 19.4078C19.9929 19.3945 19.9929 19.3812 19.9937 19.3679C19.6588 16.1386 16.9219 12.515 13.7986 11.4023C12.9389 11.9339 12.0116 12.4272 11.0328 12.946C7.49088 14.8264 3.82342 16.7771 3.65115 20.7008C3.63506 22.0193 4.69118 23.9444 6.28181 25.4897C8.10588 27.2679 10.3035 28.2544 12.3191 28.1874C14.528 28.0405 15.3265 27.4068 17.2536 25.8776L17.3067 25.8361C17.4234 25.7449 17.5717 25.7032 17.7193 25.7199C17.8669 25.7367 18.0019 25.8105 18.0949 25.9254C18.1878 26.0403 18.2313 26.187 18.2157 26.3335C18.2002 26.4799 18.1269 26.6144 18.0119 26.7076L17.9571 26.7507C17.2311 27.327 16.6354 27.7995 16.0494 28.1746V30.4893C19.3288 30.9059 21.2768 31.7791 22.3281 33.2956C23.3794 34.812 23.4551 36.8952 23.4551 39.4493C23.4526 39.5959 23.3921 39.7358 23.2868 39.8387C23.1814 39.9417 23.0396 39.9996 22.8916 40ZM1.30707 38.8826H22.3281C22.3281 34.314 21.8258 32.2324 15.4247 31.5396C15.2868 31.5243 15.1594 31.4593 15.0667 31.3568C14.9741 31.2544 14.9227 31.1217 14.9224 30.9841V28.7717C14.1122 29.0889 13.2539 29.2686 12.3835 29.3032H12.3642C11.255 29.332 10.152 29.1297 9.12658 28.7094V30.9793C9.12648 31.1137 9.07763 31.2437 8.98897 31.3453C8.90031 31.447 8.77773 31.5137 8.6436 31.5332C2.10722 32.4192 1.25073 34.48 1.30707 38.8826ZM12.2209 1.11741H12.2032C9.72709 1.11741 6.01939 2.97869 3.31951 7.10033C0.0690251 12.0648 1.02694 19.0598 2.41472 20.2522C2.45161 20.2874 2.49473 20.3155 2.5419 20.3352C2.91541 15.9853 6.93866 13.8495 10.4983 11.9611C11.5431 11.4055 12.5284 10.882 13.4123 10.3185C15.8368 8.77963 16.7432 7.31902 16.4615 5.45295C16.4615 5.45295 16.4615 5.44177 16.4615 5.43539C16.3311 4.59893 15.9511 3.65392 15.3345 2.62431C14.4974 1.3808 13.1853 1.11741 12.2209 1.11741ZM14.9143 10.6537C17.9732 12.0904 20.4928 15.4793 21.0434 18.7309C21.8113 18.3494 22.3008 17.0931 22.3925 15.8991C22.494 14.579 22.1623 13.1854 21.2656 12.4048C21.1947 12.3692 21.1321 12.3192 21.082 12.258C20.7592 12.0244 20.3841 11.8716 19.9889 11.8126C19.8412 11.7902 19.7085 11.7104 19.62 11.591C19.5315 11.4716 19.4945 11.3222 19.5172 11.1757C19.5398 11.0292 19.6202 10.8976 19.7407 10.8099C19.8611 10.7222 20.0118 10.6855 20.1595 10.708C20.4096 10.7457 20.6555 10.8072 20.8937 10.8915C20.6345 8.22891 19.7393 7.18333 17.6368 6.22556C17.5836 8.23849 16.3069 9.62567 14.9143 10.6537Z" fill="#14387F"/>
<path d="M33.7256 39.9524C33.4043 39.9593 33.087 39.881 32.8064 39.7255C32.5259 39.57 32.2924 39.343 32.1301 39.068L27.4194 32.1018C27.217 31.7872 27.0706 31.4406 26.9863 31.077C26.967 31.0019 26.9461 30.9173 26.9268 30.8551C26.8851 30.7072 26.8064 30.5721 26.6982 30.4624C26.5758 30.3379 26.4792 30.2421 26.4035 30.1687L24.8918 31.061C24.737 31.1518 24.5656 31.2114 24.3875 31.2365C24.2094 31.2616 24.0281 31.2516 23.8539 31.2071C23.6797 31.1626 23.516 31.0845 23.3723 30.9773C23.2285 30.8701 23.1075 30.7358 23.0162 30.5821L20.6705 26.6712C20.4854 26.3622 20.4314 25.9931 20.5205 25.6448C20.6095 25.2964 20.8343 24.9973 21.1455 24.8131L21.4224 24.6535L21.3 24.4475C21.1155 24.1374 21.0627 23.7673 21.1533 23.4186C21.2438 23.0699 21.4703 22.7711 21.783 22.5879L21.9037 22.5176L21.8329 22.4011C21.7895 22.3381 21.7596 22.267 21.745 22.1922C21.7304 22.1173 21.7314 22.0403 21.7479 21.9658C21.7645 21.8913 21.7962 21.821 21.8412 21.7592C21.8862 21.6973 21.9434 21.6453 22.0095 21.6062C22.0755 21.5671 22.1489 21.5419 22.2252 21.532C22.3014 21.5221 22.3789 21.5278 22.4529 21.5487C22.5268 21.5697 22.5957 21.6054 22.6552 21.6537C22.7147 21.702 22.7636 21.7619 22.7989 21.8296L22.8681 21.9461L23.4219 21.6189L23.3527 21.504C23.3093 21.441 23.2794 21.3699 23.2648 21.295C23.2502 21.2202 23.2512 21.1431 23.2677 21.0687C23.2843 20.9942 23.316 20.9239 23.361 20.862C23.406 20.8002 23.4632 20.7481 23.5293 20.7091C23.5953 20.67 23.6687 20.6448 23.745 20.6349C23.8212 20.625 23.8987 20.6307 23.9727 20.6516C24.0466 20.6726 24.1155 20.7083 24.175 20.7566C24.2345 20.8049 24.2834 20.8647 24.3187 20.9325L24.3895 21.049L24.9417 20.7218L24.8725 20.6053C24.8291 20.5423 24.7992 20.4712 24.7846 20.3963C24.77 20.3215 24.771 20.2444 24.7875 20.17C24.804 20.0955 24.8358 20.0252 24.8808 19.9633C24.9257 19.9015 24.983 19.8494 25.0491 19.8104C25.1151 19.7713 25.1885 19.746 25.2648 19.7362C25.341 19.7263 25.4185 19.732 25.4925 19.7529C25.5664 19.7738 25.6352 19.8096 25.6948 19.8579C25.7543 19.9062 25.8032 19.966 25.8384 20.0338L25.9077 20.1503L26.0687 20.0593C26.3815 19.8764 26.7547 19.824 27.1064 19.9138C27.4581 20.0036 27.7595 20.2282 27.9442 20.5382L28.0682 20.7441L28.1374 20.7042C28.2923 20.6134 28.4636 20.5538 28.6417 20.5287C28.8198 20.5036 29.0012 20.5136 29.1754 20.5581C29.3496 20.6026 29.5132 20.6807 29.657 20.7879C29.8007 20.8952 29.9217 21.0295 30.013 21.1831L32.3587 25.0797C32.5432 25.3898 32.596 25.7599 32.5054 26.1086C32.4149 26.4574 32.1884 26.7562 31.8757 26.9394L30.4525 27.7758L30.5491 28.1142C30.6031 28.2991 30.7086 28.465 30.8534 28.5931L31.1207 28.8326C31.3009 28.995 31.4526 29.186 31.5698 29.3977L35.7251 36.929C36.3691 38.0017 35.8056 39.0872 34.9201 39.606C34.5601 39.8246 34.1477 39.9442 33.7256 39.9524ZM26.4711 28.9204C26.5864 28.9212 26.6987 28.9569 26.7931 29.0225C27.0493 29.2213 27.2869 29.4425 27.5031 29.6834C27.7433 29.9289 27.9177 30.2302 28.0103 30.5598C28.0312 30.6364 28.0537 30.7194 28.0747 30.8024C28.1282 31.042 28.2224 31.2709 28.3532 31.4792L33.0703 38.4582L33.088 38.4838C33.41 39.0185 34.054 38.8334 34.3454 38.6578C34.4806 38.5796 35.1343 38.1486 34.7479 37.5036L34.7382 37.4861L30.5878 29.9452C30.5317 29.8434 30.4587 29.7517 30.372 29.6738L30.1048 29.4344C29.8023 29.1632 29.583 28.813 29.4721 28.4239L29.258 27.6721C29.2224 27.5528 29.2281 27.4251 29.2742 27.3093C29.3203 27.1936 29.4041 27.0965 29.5123 27.0335L31.3106 25.9736C31.338 25.9575 31.3618 25.9362 31.3808 25.9109C31.3998 25.8857 31.4136 25.857 31.4213 25.8264C31.4291 25.7959 31.4307 25.7641 31.4261 25.7329C31.4215 25.7018 31.4107 25.6718 31.3944 25.6448L29.0406 21.7418C29.0082 21.6894 28.9566 21.6514 28.8967 21.6357C28.8367 21.6199 28.773 21.6276 28.7186 21.6572L28.6494 21.6987L29.5123 23.1354L30.2932 24.438C30.3847 24.5915 30.4449 24.7614 30.4702 24.938C30.4955 25.1146 30.4854 25.2944 30.4405 25.4671C30.3957 25.6398 30.3169 25.8021 30.2087 25.9446C30.1006 26.0871 29.9651 26.2071 29.8102 26.2976L25.5213 28.8278C25.2085 29.0107 24.8352 29.0631 24.4835 28.9733C24.1318 28.8835 23.8305 28.6589 23.6457 28.3489L22.86 27.0559L21.9955 25.6192L21.7186 25.7789C21.6638 25.8117 21.6242 25.8646 21.6085 25.9262C21.5929 25.9878 21.6023 26.053 21.6349 26.1077L23.987 30.0106C24.0032 30.0377 24.0247 30.0613 24.0502 30.0802C24.0757 30.099 24.1046 30.1127 24.1355 30.1204C24.1663 30.1281 24.1983 30.1297 24.2297 30.1251C24.2612 30.1205 24.2914 30.1098 24.3187 30.0936L26.1862 28.9922C26.273 28.9435 26.3714 28.9186 26.4711 28.9204ZM24.1206 26.9649L24.6133 27.7886C24.6464 27.843 24.6998 27.8822 24.7619 27.8977C24.824 27.9133 24.8898 27.9039 24.9449 27.8716L29.2338 25.3415C29.2612 25.3257 29.2852 25.3046 29.3043 25.2795C29.3234 25.2544 29.3372 25.2258 29.345 25.1953C29.3528 25.1648 29.3544 25.1331 29.3497 25.102C29.345 25.0709 29.334 25.0411 29.3175 25.0142L28.8249 24.1905L28.461 24.406L28.556 24.5657C28.6219 24.6921 28.6366 24.8386 28.5972 24.9754C28.5578 25.1122 28.4673 25.2289 28.3441 25.3018C28.2209 25.3747 28.0743 25.3983 27.9342 25.3677C27.794 25.3371 27.671 25.2546 27.5901 25.1371L27.4951 24.9775L26.9413 25.2968L27.0362 25.4564C27.0796 25.5194 27.1095 25.5905 27.1241 25.6653C27.1388 25.7402 27.1378 25.8172 27.1212 25.8917C27.1047 25.9662 27.0729 26.0365 27.028 26.0983C26.983 26.1602 26.9257 26.2122 26.8597 26.2513C26.7936 26.2904 26.7202 26.3156 26.6439 26.3255C26.5677 26.3354 26.4902 26.3297 26.4163 26.3087C26.3423 26.2878 26.2735 26.2521 26.214 26.2038C26.1545 26.1555 26.1056 26.0956 26.0703 26.0279L25.9753 25.8682L25.4215 26.1875L25.5165 26.3471C25.5598 26.4101 25.5897 26.4812 25.6044 26.5561C25.619 26.6309 25.618 26.708 25.6014 26.7824C25.5849 26.8569 25.5531 26.9272 25.5082 26.9891C25.4632 27.0509 25.4059 27.103 25.3399 27.142C25.2738 27.1811 25.2004 27.2064 25.1242 27.2162C25.0479 27.2261 24.9704 27.2204 24.8965 27.1995C24.8225 27.1786 24.7537 27.1428 24.6942 27.0945C24.6347 27.0462 24.5858 26.9864 24.5505 26.9186L24.4555 26.759L24.1206 26.9649ZM22.6717 24.5705L23.5362 26.0071L23.8582 25.8124L23.7053 25.5602C23.6394 25.4338 23.6247 25.2872 23.6641 25.1504C23.7035 25.0136 23.794 24.8969 23.9172 24.824C24.0404 24.7511 24.187 24.7276 24.3271 24.7582C24.4672 24.7888 24.5903 24.8712 24.6712 24.9887L24.8226 25.2425L25.3764 24.9153L25.2251 24.6614C25.1592 24.535 25.1445 24.3885 25.1839 24.2517C25.2233 24.1149 25.3138 23.9982 25.437 23.9253C25.5602 23.8524 25.7068 23.8289 25.8469 23.8595C25.987 23.8901 26.1101 23.9725 26.191 24.09L26.344 24.3438L26.8962 24.0245L26.7448 23.7707C26.7015 23.7077 26.6716 23.6366 26.6569 23.5618C26.6423 23.4869 26.6433 23.4099 26.6599 23.3354C26.6764 23.261 26.7081 23.1906 26.7531 23.1288C26.7981 23.0669 26.8554 23.0149 26.9214 22.9758C26.9875 22.9367 27.0609 22.9115 27.1371 22.9016C27.2134 22.8917 27.2909 22.8974 27.3648 22.9184C27.4388 22.9393 27.5076 22.975 27.5671 23.0233C27.6266 23.0716 27.6755 23.1315 27.7108 23.1992L27.8718 23.453L28.2356 23.2375L27.3711 21.8009L26.9606 21.1161C26.9275 21.0617 26.8741 21.0225 26.812 21.007C26.7499 20.9914 26.6841 21.0008 26.6289 21.0331L26.4679 21.1256L26.645 21.421C26.7109 21.5474 26.7256 21.6939 26.6862 21.8307C26.6468 21.9675 26.5563 22.0842 26.4331 22.1571C26.3099 22.23 26.1633 22.2536 26.0232 22.223C25.883 22.1924 25.76 22.1099 25.6791 21.9924L25.502 21.6971L24.9481 22.0164L25.1252 22.3117C25.1686 22.3747 25.1985 22.4458 25.2131 22.5206C25.2278 22.5955 25.2268 22.6725 25.2102 22.747C25.1937 22.8215 25.1619 22.8918 25.1169 22.9536C25.072 23.0155 25.0147 23.0675 24.9486 23.1066C24.8826 23.1457 24.8092 23.1709 24.7329 23.1808C24.6567 23.1907 24.5792 23.185 24.5053 23.164C24.4313 23.1431 24.3625 23.1074 24.303 23.0591C24.2435 23.0108 24.1946 22.9509 24.1593 22.8832L23.9822 22.5879L23.4284 22.9071L23.6054 23.2008C23.9902 23.8394 22.9824 24.3741 22.6395 23.7723L22.464 23.477L22.3433 23.5488C22.2883 23.5811 22.2484 23.6336 22.2324 23.695C22.2164 23.7563 22.2256 23.8214 22.2579 23.8761L22.6717 24.5705Z" fill="#14387F"/>
</svg>
