<svg width="35" height="40" viewBox="0 0 35 40" fill="none" xmlns="http://www.w3.org/2000/svg">
<path d="M28.0935 40H6.42142C6.27754 40 6.13933 39.9432 6.03628 39.8415C5.93322 39.7398 5.87347 39.6013 5.86977 39.4557C5.73107 34.132 6.81546 31.5316 13.5141 30.4972V28.1635C12.3393 27.4929 11.2878 26.6218 10.4059 25.5886C10.3582 25.5334 10.3217 25.4692 10.2985 25.3997C10.2753 25.3301 10.2658 25.2567 10.2707 25.1834C10.2755 25.1102 10.2945 25.0387 10.3267 24.9729C10.3588 24.9071 10.4034 24.8484 10.4579 24.8001C10.5125 24.7517 10.5759 24.7148 10.6445 24.6913C10.7132 24.6678 10.7857 24.6582 10.858 24.6631C10.9303 24.668 11.001 24.6872 11.0659 24.7198C11.1309 24.7523 11.1889 24.7975 11.2366 24.8527C13.1011 27.0141 15.5316 28.2544 17.7508 28.1874C17.7571 28.1866 17.7634 28.1866 17.7697 28.1874C18.7162 28.1746 19.6446 27.9233 20.4712 27.4563C20.5341 27.3978 20.6097 27.3552 20.6919 27.3318C22.7535 26.1218 24.0633 24.0578 24.0822 24.0291C24.1193 23.9638 24.1691 23.9068 24.2285 23.8615C24.2879 23.8162 24.3558 23.7836 24.428 23.7655C24.5002 23.7475 24.5753 23.7444 24.6487 23.7565C24.7221 23.7686 24.7923 23.7956 24.8552 23.8359C24.918 23.8761 24.9722 23.9289 25.0144 23.9909C25.0566 24.0529 25.086 24.1229 25.1008 24.1967C25.1156 24.2705 25.1155 24.3466 25.1005 24.4204C25.0856 24.4942 25.056 24.5641 25.0137 24.6261C24.9333 24.7554 23.5952 26.8737 21.3885 28.2145V30.4893C24.5992 30.9059 26.5063 31.7791 27.5355 33.2956C28.5648 34.812 28.6388 36.8952 28.6388 39.4493C28.6364 39.5948 28.5781 39.7337 28.4763 39.8365C28.3745 39.9393 28.2372 39.9979 28.0935 40ZM6.96204 38.8826H27.5418C27.5418 34.314 27.0501 32.2324 20.7817 31.5396C20.647 31.524 20.5226 31.4587 20.4323 31.3563C20.3419 31.2539 20.2918 31.1215 20.2915 30.9841V28.7812C19.4932 29.1223 18.6362 29.3003 17.7697 29.3048C16.689 29.324 15.6159 29.1175 14.6174 28.6982V30.9809C14.6173 31.1153 14.5695 31.2452 14.4827 31.3469C14.3959 31.4486 14.2759 31.5153 14.1446 31.5348C7.74539 32.4192 6.90688 34.48 6.96204 38.8826ZM25.0074 17.0133C24.9023 17.0142 24.7991 16.9846 24.71 16.928C24.6209 16.8714 24.5496 16.7903 24.5046 16.6941C23.384 14.1911 21.3649 12.1861 19.193 11.4023C18.3513 11.9339 17.4434 12.4272 16.4851 12.946C14.4094 14.0714 12.2626 15.2351 10.8567 16.8329C10.8091 16.8897 10.7508 16.9362 10.6853 16.9698C10.6197 17.0033 10.5481 17.0233 10.4748 17.0285C10.4015 17.0337 10.3279 17.024 10.2584 17C10.1888 16.976 10.1247 16.9382 10.0698 16.8887C10.0149 16.8392 9.97026 16.7792 9.93858 16.712C9.9069 16.6449 9.88879 16.572 9.8853 16.4977C9.88182 16.4233 9.89303 16.349 9.91829 16.2791C9.94355 16.2092 9.98234 16.1452 10.0324 16.0907C11.5691 14.3347 13.8041 13.1311 15.965 11.9611C16.9879 11.4055 17.9525 10.8835 18.8178 10.3185C21.1821 8.77644 22.0726 7.32062 21.7936 5.45455C21.7936 5.45455 21.7936 5.44177 21.7936 5.43539C21.6659 4.60053 21.294 3.65552 20.6903 2.62591C19.8707 1.37282 18.5688 1.11741 17.6294 1.11741C15.2053 1.11741 11.5754 2.97869 8.93223 7.10033C7.58305 9.20584 6.82334 11.9467 6.79182 14.82C6.79015 14.9682 6.73042 15.1096 6.62578 15.2132C6.52115 15.3168 6.38017 15.374 6.23386 15.3723C6.08755 15.3706 5.9479 15.3102 5.84563 15.2042C5.74336 15.0982 5.68684 14.9554 5.68851 14.8072C5.72161 11.7264 6.54594 8.77325 8.00703 6.49214C10.5289 2.56046 14.3116 0.0111741 17.6215 0H17.642C19.3569 0 20.766 0.716737 21.6139 2.01932L21.6265 2.04007C22.2475 3.09522 22.6432 4.053 22.826 4.9581C25.7214 6.17448 27.0816 7.51217 27.2881 11.6019C28.4733 12.6985 28.8642 14.5758 28.6735 16.2663C28.6566 16.4144 28.5822 16.5497 28.4668 16.6424C28.3514 16.735 28.2043 16.7775 28.058 16.7603C27.9117 16.7432 27.7781 16.6679 27.6866 16.551C27.5952 16.4341 27.5533 16.2851 27.5702 16.137C27.7278 14.7626 27.4268 13.2365 26.4968 12.4064C26.4259 12.3698 26.3631 12.3187 26.3124 12.2564C25.9991 12.0245 25.6353 11.8723 25.2517 11.8126C25.1801 11.8015 25.1113 11.7762 25.0494 11.7382C24.9874 11.7002 24.9334 11.6501 24.8905 11.591C24.8477 11.5319 24.8167 11.4647 24.7994 11.3935C24.7822 11.3222 24.7789 11.2482 24.7899 11.1757C24.8008 11.1031 24.8258 11.0335 24.8634 10.9707C24.9009 10.908 24.9503 10.8533 25.0087 10.8099C25.0671 10.7665 25.1333 10.7351 25.2037 10.7176C25.2741 10.7001 25.3471 10.6968 25.4188 10.708C25.6636 10.7457 25.9043 10.8072 26.1375 10.8915C25.8837 8.22891 25.0074 7.18333 22.9489 6.22556C22.8969 8.2337 21.647 9.62088 20.2852 10.6489C22.4477 11.6801 24.3927 13.7345 25.5102 16.2359C25.5705 16.3708 25.5755 16.5244 25.524 16.6629C25.4726 16.8015 25.369 16.9138 25.2359 16.975C25.1638 17.0066 25.0859 17.0223 25.0074 17.0213V17.0133Z" fill="#14387F"/>
<path d="M9.17009 30.5941C6.4197 30.5941 0.996169 27.5947 0.0662404 24.2887C0.0211747 24.124 -0.00110377 23.9537 4.20454e-05 23.7827V9.9923C4.20454e-05 9.84412 0.0581624 9.70201 0.161617 9.59723C0.265072 9.49246 0.405387 9.43359 0.551695 9.43359C0.698002 9.43359 0.838317 9.49246 0.941772 9.59723C1.04523 9.70201 1.10335 9.84412 1.10335 9.9923V23.7827C1.10189 23.8516 1.10984 23.9204 1.12699 23.987C1.97811 27.0072 7.40795 29.689 9.40493 29.4655C9.91245 29.4081 9.92506 29.2181 9.93137 29.1143C9.93244 29.0913 9.93507 29.0684 9.93925 29.0457C9.81946 28.7392 8.94312 27.9794 8.29848 27.4191C7.02652 26.316 5.44564 24.9432 4.92551 23.5289C4.91044 23.4886 4.89935 23.4469 4.89241 23.4044C4.78895 22.7481 4.77358 22.0806 4.84671 21.4202C4.86562 21.1584 4.88296 20.911 4.88611 20.6603C4.88531 20.5564 4.90839 20.4537 4.95353 20.3603C4.99866 20.267 5.06461 20.1855 5.14617 20.1224C5.36526 19.9628 6.03355 19.4456 9.46798 21.5431C9.59547 21.5845 9.73323 21.5796 9.85752 21.5292C9.98181 21.4788 10.0848 21.386 10.1489 21.2669C10.2056 21.1775 10.3711 20.8695 10.1158 20.6284C10.0023 20.531 8.46712 19.2317 6.97451 18.6554C6.29854 18.4109 5.58037 18.3087 4.86404 18.3553C4.7661 18.3621 4.66783 18.3484 4.57532 18.3152C4.4828 18.2819 4.39801 18.2298 4.3262 18.162C4.25439 18.0942 4.19709 18.0122 4.15784 17.9211C4.11859 17.8299 4.09824 17.7316 4.09803 17.6322V9.9923C4.09803 9.84412 4.15615 9.70201 4.25961 9.59723C4.36306 9.49246 4.50338 9.43359 4.64969 9.43359C4.79599 9.43359 4.93631 9.49246 5.03976 9.59723C5.14322 9.70201 5.20134 9.84412 5.20134 9.9923V17.2283C5.9404 17.2256 6.6741 17.3553 7.36855 17.6114C9.09286 18.2771 10.7699 19.7233 10.8361 19.7856L10.8471 19.7952C11.4303 20.3315 11.5201 21.1664 11.0725 21.8703C10.8663 22.2186 10.543 22.4797 10.162 22.6058C9.78089 22.7319 9.36768 22.7145 8.99829 22.5567C8.97492 22.5466 8.95227 22.5349 8.93051 22.5216C7.7878 21.8225 6.54737 21.2286 5.9705 21.085C5.9705 21.2254 5.95159 21.3643 5.94213 21.5C5.88 22.0554 5.88848 22.6165 5.96735 23.1697C6.40394 24.3047 7.8477 25.5642 9.01089 26.5666C10.3238 27.7048 11.2049 28.4694 11.0221 29.2436C10.9811 29.6443 10.7431 30.4377 9.51999 30.5718C9.40385 30.5857 9.28704 30.5932 9.17009 30.5941Z" fill="#14387F"/>
<path d="M25.8337 30.5941C25.7152 30.5944 25.5968 30.588 25.479 30.5749C24.256 30.4409 24.018 29.6475 23.977 29.2468C23.7942 28.4726 24.6752 27.708 25.9866 26.5698C27.1498 25.561 28.5951 24.3079 29.0317 23.1745C29.1106 22.6208 29.119 22.0591 29.0569 21.5032C29.0474 21.3675 29.0364 21.2286 29.0285 21.0882C28.4516 21.2286 27.2096 21.8224 26.0685 22.5248C26.0468 22.5381 26.0241 22.5498 26.0007 22.5599C25.6314 22.7177 25.2182 22.7351 24.8371 22.609C24.456 22.4829 24.1327 22.2218 23.9265 21.8735C23.4789 21.168 23.5688 20.3331 24.1504 19.7983L24.163 19.7888C24.2339 19.7265 25.9109 18.2803 27.6305 17.6146C28.3249 17.3585 29.0586 17.2288 29.7977 17.2315V9.9923C29.7977 9.84412 29.8558 9.70201 29.9592 9.59723C30.0627 9.49246 30.203 9.43359 30.3493 9.43359C30.4956 9.43359 30.6359 9.49246 30.7394 9.59723C30.8428 9.70201 30.901 9.84412 30.901 9.9923V17.6322C30.9008 17.7317 30.8804 17.8302 30.841 17.9214C30.8017 18.0127 30.7442 18.0948 30.6723 18.1626C30.6003 18.2304 30.5153 18.2825 30.4226 18.3157C30.3299 18.3488 30.2315 18.3623 30.1334 18.3553C29.4176 18.3089 28.7 18.411 28.0245 18.6554C26.5319 19.2317 24.9967 20.531 24.8833 20.6284C24.6279 20.8695 24.7934 21.1775 24.8502 21.2669C24.9137 21.3883 25.0174 21.483 25.1431 21.5344C25.2689 21.5858 25.4085 21.5906 25.5374 21.5479C28.9718 19.4504 29.6353 19.9516 29.8591 20.1272C29.9407 20.1903 30.0067 20.2717 30.0518 20.3651C30.0969 20.4585 30.12 20.5612 30.1192 20.6651C30.1192 20.9158 30.1397 21.1632 30.1586 21.425C30.2317 22.0865 30.2163 22.755 30.1129 23.4124C30.1059 23.4526 30.0953 23.4921 30.0814 23.5305C29.5597 24.948 27.9788 26.3208 26.7069 27.4239C26.0622 27.9826 25.1859 28.744 25.0661 29.0505C25.0703 29.0732 25.0729 29.0961 25.074 29.1191C25.074 29.2229 25.0913 29.4128 25.5988 29.4703C27.5958 29.689 33.0272 27.012 33.8783 23.987C33.8954 23.9203 33.9034 23.8516 33.9019 23.7827V9.9923C33.9019 9.84412 33.9601 9.70201 34.0635 9.59723C34.167 9.49246 34.3073 9.43359 34.4536 9.43359C34.5999 9.43359 34.7402 9.49246 34.8437 9.59723C34.9471 9.70201 35.0052 9.84412 35.0052 9.9923V23.7827C35.0069 23.9553 34.9846 24.1272 34.939 24.2935C34.0075 27.5947 28.584 30.5941 25.8337 30.5941Z" fill="#14387F"/>
</svg>
