<svg width="40" height="30" viewBox="0 0 40 30" fill="none" xmlns="http://www.w3.org/2000/svg">
<path d="M39.4141 12.6972C39.0904 12.6972 38.8281 12.9595 38.8281 13.2832V13.9702H36.8603C36.8159 13.7982 36.7618 13.629 36.6984 13.4638C36.746 13.4065 36.7835 13.3392 36.8071 13.2637C37.8893 9.79655 36.9475 6.04897 34.3493 3.4835C30.6536 -0.165719 24.6405 -0.165719 20.9448 3.4835L20.431 3.99084C20.033 4.38381 19.3852 4.38397 18.9872 3.99084L18.4734 3.4835C16.9575 1.98662 14.952 1.03342 12.8264 0.799438C10.7336 0.569125 8.59922 1.0385 6.81508 2.121C6.53844 2.28889 6.45023 2.6492 6.61812 2.92592C6.78602 3.20264 7.14633 3.29092 7.42305 3.12295C10.7116 1.1278 14.9173 1.61873 17.6502 4.31741L18.1639 4.82475C19.016 5.66616 20.4025 5.666 21.2545 4.82475L21.7683 4.31741C25.0098 1.11647 30.2845 1.11647 33.5262 4.31741C35.6118 6.37686 36.4841 9.30124 35.897 12.1129C35.7469 11.9362 35.583 11.7698 35.4065 11.6155C33.9729 10.363 31.6112 8.29975 30.8208 7.60881C30.4411 7.27717 29.8612 7.29631 29.5012 7.65178L29.4877 7.66506C28.6418 8.5003 28.5712 9.82319 29.3233 10.7423L30.5249 12.2102C30.5668 12.2614 30.5739 12.3172 30.546 12.376C30.5289 12.4121 30.4858 12.4726 30.3885 12.4726H23.5377C22.5888 12.4726 21.8169 13.2382 21.8169 14.1792C21.8169 14.3673 21.8477 14.5484 21.9047 14.7178C21.0098 14.7773 20.3002 15.5183 20.3002 16.4207C20.3002 17.3618 21.0722 18.1273 22.021 18.1273H22.6634C22.6063 18.2971 22.5752 18.4785 22.5752 18.6671C22.5752 19.57 23.2858 20.3113 24.1815 20.3701C24.1234 20.5408 24.092 20.7237 24.092 20.9137C24.092 21.8547 24.864 22.6203 25.8113 22.6203L27.8246 22.6256C26.2717 23.9616 24.6126 25.1877 22.8789 26.2794L20.2591 27.9291C19.9252 28.1394 19.4935 28.1394 19.1595 27.9291L16.5398 26.2794C14.8077 25.1887 13.1459 23.9611 11.5956 22.6272L14.1877 22.6203C15.1366 22.6203 15.9086 21.8547 15.9086 20.9137C15.9086 20.7237 15.8772 20.5409 15.8191 20.3701C16.7148 20.3113 17.4253 19.57 17.4253 18.6671C17.4253 18.4785 17.3944 18.297 17.3371 18.1273H17.9795C18.9284 18.1273 19.7004 17.3617 19.7004 16.4206C19.7004 15.5183 18.9908 14.7773 18.0959 14.7178C18.1528 14.5484 18.1837 14.3673 18.1837 14.1792C18.1837 13.2382 17.4116 12.4726 16.4628 12.4726H9.61203C9.51484 12.4726 9.47164 12.4121 9.45453 12.376C9.42664 12.3172 9.43367 12.2614 9.47563 12.2102L10.6773 10.7423C11.4295 9.82327 11.3588 8.50038 10.5125 7.66467L10.4999 7.65225C10.1395 7.29624 9.55969 7.27709 9.17984 7.60897C8.38945 8.29975 6.02773 10.3631 4.5943 11.6155C4.22867 11.9349 3.91797 12.3061 3.67023 12.7138C2.82586 9.75038 3.66227 6.51967 5.89258 4.31748C6.12281 4.09014 6.12523 3.71913 5.89781 3.48881C5.67039 3.2585 5.29953 3.25616 5.06922 3.48358C2.34359 6.17491 1.44922 10.2185 2.7907 13.7851C2.81711 13.8554 2.85562 13.9176 2.90305 13.9704H1.17188V13.2833C1.17188 12.9598 0.909609 12.6973 0.585938 12.6973C0.262266 12.6973 0 12.9595 0 13.2832V22.0444C0 22.368 0.262266 22.6305 0.585938 22.6305C0.909609 22.6305 1.17188 22.3681 1.17188 22.0444V21.1327H3.93516C5.12742 21.1327 6.32125 21.411 7.3875 21.9374C8.14766 22.3127 8.98305 22.5415 9.83133 22.6092C9.89258 22.6658 9.96516 22.7335 10.0411 22.8043C10.2269 22.9776 10.419 23.1568 10.5418 23.2644C12.2179 24.7334 14.0257 26.0814 15.915 27.2712L18.5347 28.9208C18.8914 29.1455 19.3001 29.2578 19.7089 29.2578C20.1176 29.2578 20.5266 29.1455 20.8831 28.9209L23.5029 27.2712C25.6453 25.9221 27.677 24.3736 29.5416 22.6687C29.5551 22.6564 29.5678 22.6437 29.5798 22.6304L29.6398 22.6305C30.6663 22.6305 31.6941 22.3909 32.6123 21.9376C33.6786 21.4112 34.8725 21.1329 36.0647 21.1329H38.8281V22.0445C38.8281 22.3681 39.0904 22.6305 39.4141 22.6305C39.7377 22.6305 40 22.3682 40 22.0445V13.2832C40 12.9595 39.7377 12.6972 39.4141 12.6972ZM10.3601 21.4584C9.51258 21.4584 8.66406 21.2607 7.90633 20.8865C6.67953 20.2809 5.30641 19.9608 3.93516 19.9608H1.17188V15.1421H3.61937C3.91102 15.1421 4.15836 14.9275 4.19945 14.6387C4.31719 13.8119 4.73102 13.0516 5.36477 12.498C6.7157 11.3176 8.89109 9.4171 9.79867 8.62389C10.1049 9.02991 10.1012 9.59522 9.77008 9.99967L8.56844 11.4676C8.23984 11.8692 8.17336 12.4094 8.39516 12.8776C8.61922 13.3505 9.08539 13.6444 9.61164 13.6444H16.4624C16.7652 13.6444 17.0114 13.8843 17.0114 14.179C17.0114 14.4573 16.792 14.6866 16.5129 14.7115L10.4438 14.7188C10.1202 14.7192 9.8582 14.9819 9.85859 15.3055C9.85898 15.6289 10.1213 15.8908 10.4445 15.8908C10.4448 15.8908 10.445 15.8908 10.4452 15.8908L16.4122 15.8835C16.4288 15.8849 16.4455 15.8856 16.4624 15.8856H17.9791C18.2819 15.8856 18.5281 16.1255 18.5281 16.4204C18.5281 16.7152 18.2819 16.9551 17.9791 16.9551H12.9714L10.4284 16.9601C10.105 16.9608 9.84336 17.2233 9.84367 17.5467C9.84398 17.8701 10.1062 18.1321 10.4296 18.1321H15.7041C16.0068 18.1321 16.253 18.372 16.253 18.6668C16.253 18.9615 16.0068 19.2015 15.7041 19.2015L10.4427 19.2117C10.1191 19.2127 9.85758 19.4759 9.85859 19.7996C9.85969 20.1226 10.1217 20.3837 10.4445 20.3837C10.4452 20.3837 10.4458 20.3837 10.4464 20.3837L14.1873 20.3787C14.49 20.3787 14.7362 20.6186 14.7362 20.9133C14.7362 21.2081 14.49 21.448 14.1857 21.448L10.3601 21.4584ZM38.8281 19.9608H36.0648C34.6936 19.9608 33.3205 20.2808 32.0937 20.8865C31.3359 21.2607 30.4873 21.4584 29.6414 21.4584L25.8126 21.4483C25.5098 21.4483 25.2636 21.2083 25.2636 20.9136C25.2636 20.6188 25.5098 20.3789 25.8126 20.3789H27.014L29.5542 20.384C29.5546 20.384 29.555 20.384 29.5554 20.384C29.8784 20.384 30.1406 20.1224 30.1413 19.7992C30.142 19.4756 29.8802 19.2127 29.5566 19.212L24.2959 19.2018C23.9932 19.2018 23.747 18.9619 23.747 18.6671C23.747 18.3723 23.9932 18.1324 24.2959 18.1324H29.5802C29.9036 18.1324 30.1658 17.8704 30.1661 17.547C30.1664 17.2237 29.9047 16.9611 29.5813 16.9605L27.0275 16.9554H22.0209C21.7182 16.9554 21.472 16.7155 21.472 16.4206C21.472 16.1258 21.7182 15.8859 22.0209 15.8859H23.4934C23.5035 15.8865 23.5137 15.8867 23.5239 15.8867L29.5552 15.891C29.5553 15.891 29.5554 15.891 29.5555 15.891C29.879 15.891 30.1413 15.6289 30.1415 15.3055C30.1417 14.9819 29.8795 14.7193 29.5559 14.719L23.5692 14.7148C23.5588 14.7142 23.5482 14.7139 23.5377 14.7139C23.235 14.7139 22.9888 14.474 22.9888 14.1792C22.9888 13.8844 23.235 13.6445 23.5377 13.6445H30.3885C30.9148 13.6445 31.3809 13.3507 31.605 12.8777C31.8268 12.4096 31.7603 11.8694 31.4317 11.4678L30.2301 9.99983C29.8989 9.59514 29.8952 9.02967 30.2014 8.62397C31.1091 9.41725 33.2845 11.3178 34.6355 12.498C35.2691 13.0516 35.683 13.8119 35.8007 14.6387C35.8417 14.9276 36.0891 15.1422 36.3808 15.1422H38.8281V19.9608Z" fill="#14387F"/>
</svg>
