<svg width="187" height="73" viewBox="0 0 187 73" fill="none" xmlns="http://www.w3.org/2000/svg">
<path fill-rule="evenodd" clip-rule="evenodd" d="M19.9721 50.285C18.934 49.2405 17.6989 48.4123 16.3385 47.8484C14.978 47.2845 13.5192 46.9962 12.0465 47C5.87307 47 0.843384 52.025 0.843384 58.1985C0.838705 60.1642 1.35428 62.0962 2.33776 63.7982L0.749634 69.6022L6.68963 68.0422C8.33212 68.937 10.1724 69.4065 12.0428 69.4082H12.0474C18.2218 69.4082 23.2459 64.3841 23.2496 58.206C23.2496 55.2144 22.0853 52.4019 19.9721 50.2841V50.285ZM12.0465 67.5154H12.0428C10.3755 67.5153 8.73878 67.0676 7.3037 66.2188L6.96338 66.0172L3.43651 66.9407L4.37776 63.5047L4.15838 63.1532C3.2252 61.6692 2.73115 59.9514 2.73338 58.1985C2.73338 53.0685 6.91182 48.8938 12.0503 48.8938C13.2731 48.8907 14.4845 49.1303 15.6142 49.5986C16.7439 50.0669 17.7694 50.7546 18.6315 51.6219C19.4978 52.4851 20.1846 53.5114 20.652 54.6414C21.1195 55.7715 21.3584 56.983 21.3549 58.206C21.3549 63.3407 17.1765 67.5154 12.0456 67.5154H12.0465ZM17.1512 60.5422C16.8728 60.4035 15.4956 59.7266 15.2396 59.6347C14.9837 59.5391 14.7962 59.495 14.6096 59.7735C14.4221 60.0547 13.8878 60.6857 13.7237 60.8722C13.5624 61.055 13.3974 61.0813 13.119 60.9416C12.8378 60.8029 11.9368 60.5057 10.8671 59.5504C10.0356 58.8097 9.47213 57.891 9.31088 57.6125C9.14588 57.3313 9.29213 57.1813 9.43182 57.0407C9.55932 56.9169 9.71307 56.7154 9.85276 56.5504C9.99151 56.39 10.0403 56.2729 10.134 56.0854C10.2259 55.8988 10.179 55.7338 10.1087 55.595C10.0393 55.4563 9.47963 54.0754 9.24526 53.5147C9.01745 52.9691 8.78682 53.046 8.61526 53.0357C8.45401 53.0282 8.26745 53.0282 8.08088 53.0282C7.89338 53.0282 7.58963 53.0975 7.33276 53.3797C7.07682 53.6582 6.35495 54.336 6.35495 55.7122C6.35495 57.0894 7.35807 58.4216 7.4987 58.6091C7.63745 58.7919 9.47213 61.6185 12.2799 62.8316C12.9474 63.1204 13.4668 63.2929 13.8737 63.4213C14.544 63.6332 15.1553 63.6041 15.639 63.5338C16.1771 63.4541 17.2937 62.8569 17.5281 62.2016C17.7596 61.55 17.7596 60.9894 17.6893 60.8722C17.6199 60.755 17.4334 60.6847 17.1512 60.5422V60.5422Z" fill="white"/>
<path d="M62.2181 47.5588C61.9322 47.5796 61.6516 47.6466 61.3872 47.7574H61.3836C61.1298 47.858 59.923 48.3657 58.0883 49.1352L51.5137 51.9041C46.7961 53.8902 42.1586 55.846 42.1586 55.846L42.2138 55.8247C42.2138 55.8247 41.8941 55.9298 41.5601 56.1586C41.3538 56.2899 41.1762 56.4617 41.0382 56.6636C40.8743 56.9041 40.7425 57.2719 40.7915 57.6522C40.8716 58.2953 41.2885 58.6809 41.5877 58.8938C41.8905 59.1093 42.1791 59.2099 42.1791 59.2099H42.1862L46.5351 60.675C46.7302 61.3011 47.8604 65.0168 48.132 65.8727C48.2923 66.3839 48.4482 66.7036 48.6432 66.9477C48.7376 67.0724 48.8481 67.1766 48.9808 67.2603C49.0498 67.3004 49.1233 67.3321 49.1999 67.3547L49.1553 67.344C49.1687 67.3476 49.1794 67.3583 49.1892 67.3618C49.2248 67.3716 49.2489 67.3752 49.2943 67.3823C49.9827 67.5907 50.5358 67.1632 50.5358 67.1632L50.567 67.1383L53.1347 64.8004L57.4382 68.1019L57.5361 68.1438C58.433 68.5374 59.3414 68.3184 59.8215 67.9318C60.3051 67.5426 60.493 67.0448 60.493 67.0448L60.5242 66.9646L63.8498 49.9278C63.9442 49.5075 63.9682 49.1138 63.864 48.7317C63.7565 48.345 63.5085 48.0125 63.1684 47.7992C62.8829 47.6257 62.5518 47.5419 62.2181 47.5588V47.5588ZM62.1282 49.3846C62.1246 49.4407 62.1353 49.4344 62.1104 49.5422V49.552L58.816 66.4115C58.8017 66.4356 58.7777 66.4881 58.7117 66.5407C58.6423 66.5959 58.5871 66.6306 58.2976 66.5157L53.034 62.4803L49.8545 65.3784L50.5225 61.1123L59.1223 53.0967C59.4768 52.7671 59.3583 52.6977 59.3583 52.6977C59.3833 52.2933 58.8231 52.5792 58.8231 52.5792L47.9788 59.2972L47.9753 59.2794L42.7776 57.5293V57.5258L42.7642 57.5231C42.7733 57.5201 42.7823 57.5165 42.7909 57.5124L42.8194 57.4981L42.847 57.4883C42.847 57.4883 47.4881 55.5325 52.2057 53.5464C54.5677 52.5516 56.9474 51.5497 58.7777 50.7766C60.6079 50.008 61.9607 49.4442 62.0373 49.4139C62.1104 49.3854 62.0756 49.3854 62.1282 49.3854V49.3846Z" fill="white"/>
<path d="M90.5813 69.4965V59.2515H94.0375L94.5513 55.2402H90.5813V52.6852C90.5813 51.5277 90.9038 50.7352 92.565 50.7352H94.67V47.159C93.6458 47.0492 92.6163 46.9962 91.5863 47.0002C88.5313 47.0002 86.4338 48.8652 86.4338 52.289V55.2327H83V59.244H86.4413V69.4965H90.5813Z" stroke="white" stroke-width="1.7"/>
<path d="M172 51.9911C168.675 51.9911 165.991 54.6747 165.991 57.9999C165.991 61.3251 168.675 64.0087 172 64.0087C175.325 64.0087 178.009 61.3251 178.009 57.9999C178.009 54.6747 175.325 51.9911 172 51.9911ZM172 61.9052C169.85 61.9052 168.095 60.1503 168.095 57.9999C168.095 55.8495 169.85 54.0946 172 54.0946C174.15 54.0946 175.905 55.8495 175.905 57.9999C175.905 60.1503 174.15 61.9052 172 61.9052ZM178.255 50.3446C177.478 50.3446 176.851 50.9716 176.851 51.7479C176.851 52.5243 177.478 53.1513 178.255 53.1513C179.031 53.1513 179.658 52.5272 179.658 51.7479C179.658 51.5636 179.622 51.381 179.552 51.2106C179.481 51.0403 179.378 50.8855 179.248 50.7551C179.117 50.6248 178.962 50.5214 178.792 50.451C178.622 50.3805 178.439 50.3444 178.255 50.3446V50.3446ZM183.713 57.9999C183.713 56.3827 183.727 54.7802 183.637 53.1659C183.546 51.2909 183.118 49.6268 181.747 48.2558C180.373 46.8817 178.712 46.4569 176.837 46.3661C175.22 46.2753 173.617 46.2899 172.003 46.2899C170.386 46.2899 168.783 46.2753 167.169 46.3661C165.294 46.4569 163.63 46.8847 162.259 48.2558C160.885 49.6298 160.46 51.2909 160.369 53.1659C160.278 54.7831 160.293 56.3856 160.293 57.9999C160.293 59.6142 160.278 61.2196 160.369 62.8339C160.46 64.7089 160.888 66.3729 162.259 67.744C163.633 69.1181 165.294 69.5429 167.169 69.6337C168.786 69.7245 170.389 69.7099 172.003 69.7099C173.62 69.7099 175.223 69.7245 176.837 69.6337C178.712 69.5429 180.376 69.1151 181.747 67.744C183.121 66.37 183.546 64.7089 183.637 62.8339C183.73 61.2196 183.713 59.6171 183.713 57.9999V57.9999ZM181.135 64.9081C180.921 65.4413 180.663 65.8397 180.25 66.2499C179.837 66.663 179.441 66.9208 178.908 67.1347C177.367 67.747 173.708 67.6093 172 67.6093C170.292 67.6093 166.63 67.747 165.089 67.1376C164.556 66.9237 164.157 66.6659 163.747 66.2528C163.334 65.8397 163.076 65.4442 162.862 64.911C162.253 63.3671 162.391 59.7079 162.391 57.9999C162.391 56.2919 162.253 52.6298 162.862 51.0888C163.076 50.5556 163.334 50.1571 163.747 49.747C164.16 49.3368 164.556 49.0761 165.089 48.8622C166.63 48.2528 170.292 48.3905 172 48.3905C173.708 48.3905 177.37 48.2528 178.911 48.8622C179.444 49.0761 179.843 49.3339 180.253 49.747C180.666 50.1601 180.924 50.5556 181.138 51.0888C181.747 52.6298 181.609 56.2919 181.609 57.9999C181.609 59.7079 181.747 63.3671 181.135 64.9081Z" fill="white"/>
<path fill-rule="evenodd" clip-rule="evenodd" d="M125.779 65.6782H127.234C127.234 65.6782 127.67 65.6054 127.889 65.3872C128.107 65.1689 128.107 64.7324 128.107 64.7324C128.107 64.7324 128.107 62.8407 128.98 62.5497C129.853 62.2586 131.017 64.4413 132.181 65.2416C133.054 65.8965 133.709 65.7509 133.709 65.7509L136.911 65.6782C136.911 65.6782 138.584 65.6054 137.784 64.2231C137.711 64.1503 137.347 63.2772 135.383 61.4583C133.345 59.5667 133.636 59.9304 136.037 56.6564C137.493 54.692 138.075 53.5279 137.929 52.9458C137.784 52.4365 136.692 52.582 136.692 52.582H133.054C133.054 52.582 132.763 52.5093 132.618 52.6548C132.4 52.8003 132.327 53.0186 132.327 53.0186C132.327 53.0186 131.745 54.5465 131.017 55.8561C129.417 58.5481 128.762 58.6936 128.544 58.5481C127.961 58.1843 128.107 56.9474 128.107 56.1471C128.107 53.5279 128.544 52.4365 127.307 52.1455C126.943 52.0728 126.652 52 125.633 52C124.324 52 123.232 52 122.65 52.291C122.214 52.5093 121.923 52.9458 122.141 52.9458C122.359 52.9458 122.941 53.0913 123.232 53.4551C123.523 54.1099 123.523 55.2013 123.523 55.2013C123.523 55.2013 123.742 58.3298 123.014 58.6936C122.505 58.9846 121.85 58.4026 120.395 55.9288C119.667 54.692 119.085 53.2369 119.085 53.2369C119.085 53.2369 119.012 52.9458 118.794 52.8003C118.576 52.6548 118.212 52.582 118.212 52.582H114.793C114.793 52.582 114.283 52.5821 114.065 52.8003C113.92 53.0186 114.065 53.3824 114.065 53.3824C114.065 53.3824 116.757 59.6394 119.813 62.8407C122.65 65.8965 125.779 65.6782 125.779 65.6782V65.6782Z" stroke="white" stroke-width="1.7"/>
<path fill-rule="evenodd" clip-rule="evenodd" d="M19.9721 7.28504C18.934 6.24048 17.6989 5.41228 16.3385 4.8484C14.978 4.28452 13.5192 3.99616 12.0465 4.00004C5.87307 4.00004 0.843384 9.02504 0.843384 15.1985C0.838705 17.1642 1.35428 19.0962 2.33776 20.7982L0.749634 26.6022L6.68963 25.0422C8.33212 25.937 10.1724 26.4065 12.0428 26.4082H12.0474C18.2218 26.4082 23.2459 21.3841 23.2496 15.206C23.2496 12.2144 22.0853 9.40191 19.9721 7.2841V7.28504ZM12.0465 24.5154H12.0428C10.3755 24.5153 8.73878 24.0676 7.3037 23.2188L6.96338 23.0172L3.43651 23.9407L4.37776 20.5047L4.15838 20.1532C3.2252 18.6692 2.73115 16.9514 2.73338 15.1985C2.73338 10.0685 6.91182 5.89379 12.0503 5.89379C13.2731 5.89073 14.4845 6.13028 15.6142 6.59857C16.7439 7.06685 17.7694 7.75457 18.6315 8.62191C19.4978 9.48509 20.1846 10.5114 20.652 11.6414C21.1195 12.7715 21.3584 13.983 21.3549 15.206C21.3549 20.3407 17.1765 24.5154 12.0456 24.5154H12.0465ZM17.1512 17.5422C16.8728 17.4035 15.4956 16.7266 15.2396 16.6347C14.9837 16.5391 14.7962 16.495 14.6096 16.7735C14.4221 17.0547 13.8878 17.6857 13.7237 17.8722C13.5624 18.055 13.3974 18.0813 13.119 17.9416C12.8378 17.8029 11.9368 17.5057 10.8671 16.5504C10.0356 15.8097 9.47213 14.891 9.31088 14.6125C9.14588 14.3313 9.29213 14.1813 9.43182 14.0407C9.55932 13.9169 9.71307 13.7154 9.85276 13.5504C9.99151 13.39 10.0403 13.2729 10.134 13.0854C10.2259 12.8988 10.179 12.7338 10.1087 12.595C10.0393 12.4563 9.47963 11.0754 9.24526 10.5147C9.01745 9.9691 8.78682 10.046 8.61526 10.0357C8.45401 10.0282 8.26745 10.0282 8.08088 10.0282C7.89338 10.0282 7.58963 10.0975 7.33276 10.3797C7.07682 10.6582 6.35495 11.336 6.35495 12.7122C6.35495 14.0894 7.35807 15.4216 7.4987 15.6091C7.63745 15.7919 9.47213 18.6185 12.2799 19.8316C12.9474 20.1204 13.4668 20.2929 13.8737 20.4213C14.544 20.6332 15.1553 20.6041 15.639 20.5338C16.1771 20.4541 17.2937 19.8569 17.5281 19.2016C17.7596 18.55 17.7596 17.9894 17.6893 17.8722C17.6199 17.755 17.4334 17.6847 17.1512 17.5422V17.5422Z" fill="#838899"/>
<path d="M62.2181 4.55877C61.9322 4.57957 61.6516 4.64665 61.3872 4.75738H61.3836C61.1298 4.85802 59.923 5.36568 58.0883 6.13518L51.5137 8.90413C46.7961 10.8902 42.1586 12.846 42.1586 12.846L42.2138 12.8247C42.2138 12.8247 41.8941 12.9298 41.5601 13.1586C41.3538 13.2899 41.1762 13.4617 41.0382 13.6636C40.8743 13.9041 40.7425 14.2719 40.7915 14.6522C40.8716 15.2953 41.2885 15.6809 41.5877 15.8938C41.8905 16.1093 42.1791 16.2099 42.1791 16.2099H42.1862L46.5351 17.675C46.7302 18.3011 47.8604 22.0168 48.132 22.8727C48.2923 23.3839 48.4482 23.7036 48.6432 23.9477C48.7376 24.0724 48.8481 24.1766 48.9808 24.2603C49.0498 24.3004 49.1233 24.3321 49.1999 24.3547L49.1553 24.344C49.1687 24.3476 49.1794 24.3583 49.1892 24.3618C49.2248 24.3716 49.2489 24.3752 49.2943 24.3823C49.9827 24.5907 50.5358 24.1632 50.5358 24.1632L50.567 24.1383L53.1347 21.8004L57.4382 25.1019L57.5361 25.1438C58.433 25.5374 59.3414 25.3184 59.8215 24.9318C60.3051 24.5426 60.493 24.0448 60.493 24.0448L60.5242 23.9646L63.8498 6.92783C63.9442 6.50746 63.9682 6.1138 63.864 5.73172C63.7565 5.34504 63.5085 5.01246 63.1684 4.79924C62.8829 4.62567 62.5518 4.54189 62.2181 4.55877V4.55877ZM62.1282 6.38455C62.1246 6.44066 62.1353 6.43443 62.1104 6.54219V6.55199L58.816 23.4115C58.8017 23.4356 58.7777 23.4881 58.7117 23.5407C58.6423 23.5959 58.5871 23.6306 58.2976 23.5157L53.034 19.4803L49.8545 22.3784L50.5225 18.1123L59.1223 10.0967C59.4768 9.76715 59.3583 9.69768 59.3583 9.69768C59.3833 9.29333 58.8231 9.57922 58.8231 9.57922L47.9788 16.2972L47.9753 16.2794L42.7776 14.5293V14.5258L42.7642 14.5231C42.7733 14.5201 42.7823 14.5165 42.7909 14.5124L42.8194 14.4981L42.847 14.4883C42.847 14.4883 47.4881 12.5325 52.2057 10.5464C54.5677 9.55161 56.9474 8.54966 58.7777 7.7766C60.6079 7.00799 61.9607 6.44422 62.0373 6.41394C62.1104 6.38544 62.0756 6.38544 62.1282 6.38544V6.38455Z" fill="#838899"/>
<path d="M90.5813 26.4965V16.2515H94.0375L94.5513 12.2402H90.5813V9.68521C90.5813 8.52771 90.9038 7.73521 92.565 7.73521H94.67V4.15896C93.6458 4.0492 92.6163 3.9962 91.5863 4.00021C88.5313 4.00021 86.4338 5.86521 86.4338 9.28896V12.2327H83V16.244H86.4413V26.4965H90.5813Z" stroke="#838899" stroke-width="1.7"/>
<path d="M172 8.99111C168.675 8.99111 165.991 11.6747 165.991 14.9999C165.991 18.3251 168.675 21.0087 172 21.0087C175.325 21.0087 178.009 18.3251 178.009 14.9999C178.009 11.6747 175.325 8.99111 172 8.99111ZM172 18.9052C169.85 18.9052 168.095 17.1503 168.095 14.9999C168.095 12.8495 169.85 11.0946 172 11.0946C174.15 11.0946 175.905 12.8495 175.905 14.9999C175.905 17.1503 174.15 18.9052 172 18.9052ZM178.255 7.34462C177.478 7.34462 176.851 7.97157 176.851 8.74794C176.851 9.52431 177.478 10.1513 178.255 10.1513C179.031 10.1513 179.658 9.52724 179.658 8.74794C179.658 8.56359 179.622 8.381 179.552 8.21064C179.481 8.04028 179.378 7.88548 179.248 7.75513C179.117 7.62477 178.962 7.52141 178.792 7.45097C178.622 7.38053 178.439 7.34439 178.255 7.34462V7.34462ZM183.713 14.9999C183.713 13.3827 183.727 11.7802 183.637 10.1659C183.546 8.29091 183.118 6.62685 181.747 5.25575C180.373 3.88173 178.712 3.45693 176.837 3.36611C175.22 3.27529 173.617 3.28993 172.003 3.28993C170.386 3.28993 168.783 3.27529 167.169 3.36611C165.294 3.45693 163.63 3.88466 162.259 5.25575C160.885 6.62978 160.46 8.29091 160.369 10.1659C160.278 11.7831 160.293 13.3856 160.293 14.9999C160.293 16.6142 160.278 18.2196 160.369 19.8339C160.46 21.7089 160.888 23.3729 162.259 24.744C163.633 26.1181 165.294 26.5429 167.169 26.6337C168.786 26.7245 170.389 26.7099 172.003 26.7099C173.62 26.7099 175.223 26.7245 176.837 26.6337C178.712 26.5429 180.376 26.1151 181.747 24.744C183.121 23.37 183.546 21.7089 183.637 19.8339C183.73 18.2196 183.713 16.6171 183.713 14.9999V14.9999ZM181.135 21.9081C180.921 22.4413 180.663 22.8397 180.25 23.2499C179.837 23.663 179.441 23.9208 178.908 24.1347C177.367 24.747 173.708 24.6093 172 24.6093C170.292 24.6093 166.63 24.747 165.089 24.1376C164.556 23.9237 164.157 23.6659 163.747 23.2528C163.334 22.8397 163.076 22.4442 162.862 21.911C162.253 20.3671 162.391 16.7079 162.391 14.9999C162.391 13.2919 162.253 9.62978 162.862 8.08876C163.076 7.55556 163.334 7.15712 163.747 6.74697C164.16 6.33681 164.556 6.07607 165.089 5.8622C166.63 5.25282 170.292 5.39052 172 5.39052C173.708 5.39052 177.37 5.25282 178.911 5.8622C179.444 6.07607 179.843 6.33388 180.253 6.74697C180.666 7.16005 180.924 7.55556 181.138 8.08876C181.747 9.62978 181.609 13.2919 181.609 14.9999C181.609 16.7079 181.747 20.3671 181.135 21.9081Z" fill="#838899"/>
<path fill-rule="evenodd" clip-rule="evenodd" d="M125.779 22.6782H127.234C127.234 22.6782 127.67 22.6054 127.889 22.3872C128.107 22.1689 128.107 21.7324 128.107 21.7324C128.107 21.7324 128.107 19.8407 128.98 19.5497C129.853 19.2586 131.017 21.4413 132.181 22.2416C133.054 22.8965 133.709 22.7509 133.709 22.7509L136.911 22.6782C136.911 22.6782 138.584 22.6054 137.784 21.2231C137.711 21.1503 137.347 20.2772 135.383 18.4583C133.345 16.5667 133.636 16.9304 136.037 13.6564C137.493 11.692 138.075 10.5279 137.929 9.94583C137.784 9.43654 136.692 9.58205 136.692 9.58205H133.054C133.054 9.58205 132.763 9.50929 132.618 9.65481C132.4 9.80032 132.327 10.0186 132.327 10.0186C132.327 10.0186 131.745 11.5465 131.017 12.8561C129.417 15.5481 128.762 15.6936 128.544 15.5481C127.961 15.1843 128.107 13.9474 128.107 13.1471C128.107 10.5279 128.544 9.43654 127.307 9.14551C126.943 9.07276 126.652 9 125.633 9C124.324 9 123.232 9 122.65 9.29102C122.214 9.50929 121.923 9.94583 122.141 9.94583C122.359 9.94583 122.941 10.0913 123.232 10.4551C123.523 11.1099 123.523 12.2013 123.523 12.2013C123.523 12.2013 123.742 15.3298 123.014 15.6936C122.505 15.9846 121.85 15.4026 120.395 12.9288C119.667 11.692 119.085 10.2369 119.085 10.2369C119.085 10.2369 119.012 9.94583 118.794 9.80032C118.576 9.65481 118.212 9.58205 118.212 9.58205H114.793C114.793 9.58205 114.283 9.58205 114.065 9.80032C113.92 10.0186 114.065 10.3824 114.065 10.3824C114.065 10.3824 116.757 16.6394 119.813 19.8407C122.65 22.8965 125.779 22.6782 125.779 22.6782V22.6782Z" stroke="#838899" stroke-width="1.7"/>
</svg>
