<svg width="42" height="40" viewBox="0 0 42 40" fill="none" xmlns="http://www.w3.org/2000/svg">
<path d="M21.6969 22.1987C20.6757 22.1899 19.6563 22.1113 18.6458 21.9635C18.5357 21.9473 18.4323 21.9011 18.347 21.8299C18.2617 21.7586 18.1979 21.6653 18.1627 21.5601C18.1275 21.4549 18.1223 21.3421 18.1476 21.2342C18.173 21.1262 18.2279 21.0274 18.3062 20.9487L26.1047 13.1788C26.0103 13.1433 25.9263 13.0849 25.8605 13.0088C25.7946 12.9326 25.749 12.8413 25.7277 12.7431C25.7065 12.6449 25.7103 12.5429 25.7388 12.4465C25.7673 12.3502 25.8196 12.2625 25.8909 12.1914L30.4072 7.72694L32.0621 6.09054C32.0833 6.06014 32.1076 6.03195 32.1345 6.0064C32.1583 5.98289 32.1843 5.96162 32.2121 5.94286L37.4403 0.767505C38.6022 -0.388107 40.1794 -0.111653 41.1379 0.767505C42.0963 1.64666 42.2756 2.91389 41.5188 3.81709L41.493 3.84628C41.4568 3.88405 38.5832 6.89758 35.9768 9.58828C35.9183 9.72688 35.8102 9.83888 35.6734 9.90251C35.1322 10.4623 34.6081 11.0015 34.1306 11.4908C33.5497 12.0867 33.0705 12.5726 32.7033 12.9401C32.6167 13.0282 32.5135 13.0984 32.3997 13.1467C32.2858 13.195 32.1635 13.2205 32.0397 13.2217H30.4366C29.8143 13.8055 29.2523 14.4855 29.173 14.7516C29.2363 14.8477 29.306 14.9395 29.3816 15.0264C29.6264 15.3217 30.2004 16.012 29.6298 16.6971C29.2299 17.1762 25.6737 21.3985 23.9172 21.9514C23.1928 22.1394 22.4451 22.2227 21.6969 22.1987ZM20.0421 20.9195C21.278 21.0276 22.7467 21.0517 23.5552 20.7976C24.4946 20.5005 26.8528 18.1257 28.6283 16.0085C28.5818 15.9399 28.5076 15.8489 28.4559 15.7836C28.2353 15.5175 27.9595 15.1878 27.9629 14.7533C27.9629 14.2914 28.3387 13.7231 28.7679 13.2079H27.7871L20.0421 20.9195ZM30.2004 12.0197H31.9328C32.1914 11.7604 32.5034 11.4445 32.8637 11.077L30.8313 9.01649L27.7871 12.0197H30.2004ZM31.688 8.16308L33.7049 10.215L34.5668 9.33243L32.562 7.29079L31.688 8.16308ZM33.4118 6.44598L35.3907 8.46014C37.8213 5.94802 40.3863 3.26246 40.6087 3.02722C40.9948 2.54814 40.7017 1.98665 40.3294 1.65353C39.9295 1.29122 39.0521 0.873966 38.297 1.62606L33.4118 6.44598Z" fill="#14387F"/>
<path d="M40.2848 40.0082H1.46522C1.07676 40.0078 0.704342 39.8539 0.429658 39.5802C0.154974 39.3066 0.000456209 38.9356 0 38.5487V20.6908C0.000456209 20.3038 0.154974 19.9329 0.429658 19.6592C0.704342 19.3856 1.07676 19.2317 1.46522 19.2312H16.6689C16.8289 19.2312 16.9823 19.2946 17.0955 19.4073C17.2086 19.52 17.2722 19.6728 17.2722 19.8322C17.2722 19.9916 17.2086 20.1445 17.0955 20.2572C16.9823 20.3699 16.8289 20.4332 16.6689 20.4332H1.46522C1.39665 20.4332 1.33088 20.4604 1.28239 20.5087C1.2339 20.557 1.20665 20.6225 1.20665 20.6908V24.7208C1.73758 24.9801 2.75807 25.3029 3.79234 25.0076C4.39916 24.8143 4.99378 24.585 5.57302 24.3207C7.01584 23.706 7.65171 23.0072 9.18072 23.2733C9.87475 23.3986 10.5372 23.6589 11.1303 24.0391C11.9147 24.4959 12.7248 24.9681 14.8589 24.9681C16.5827 24.9681 17.2326 24.5783 17.9169 24.1662C18.6012 23.7541 19.4287 23.251 21.2369 23.251C23.1607 23.251 24.0157 23.785 24.7672 24.2555C25.4051 24.6539 25.9084 24.9681 27.0978 24.9681C28.2493 24.9681 28.6492 24.671 29.1405 24.295C29.7852 23.8056 30.5195 23.251 32.5278 23.251C34.6429 23.251 35.5323 23.8709 36.2477 24.3688C36.7476 24.7122 37.1096 24.9681 37.8715 24.9681C38.823 24.9865 39.7567 24.7099 40.5434 24.1765V20.6822C40.5434 20.6139 40.5162 20.5484 40.4677 20.5001C40.4192 20.4518 40.3534 20.4246 40.2848 20.4246H29.5111C29.3511 20.4246 29.1977 20.3613 29.0845 20.2486C28.9714 20.1359 28.9078 19.983 28.9078 19.8236C28.9078 19.6643 28.9714 19.5114 29.0845 19.3987C29.1977 19.286 29.3511 19.2227 29.5111 19.2227H40.2848C40.6733 19.2231 41.0457 19.377 41.3204 19.6506C41.5951 19.9243 41.7496 20.2952 41.7501 20.6822V38.5401C41.751 38.7324 41.7137 38.923 41.6405 39.101C41.5673 39.279 41.4596 39.4408 41.3234 39.5772C41.1873 39.7136 41.0255 39.8219 40.8473 39.8959C40.669 39.9698 40.4779 40.008 40.2848 40.0082ZM1.20665 26.0172V38.5401C1.2055 38.5746 1.21133 38.6091 1.22381 38.6413C1.23628 38.6736 1.25515 38.703 1.27927 38.7278C1.3034 38.7526 1.3323 38.7724 1.36424 38.7859C1.39619 38.7993 1.43053 38.8063 1.46522 38.8063H40.2848C40.3534 38.8063 40.4192 38.7791 40.4677 38.7308C40.5162 38.6825 40.5434 38.617 40.5434 38.5487V25.5845C39.7103 25.9843 38.7963 26.1887 37.8715 26.1821C36.7304 26.1821 36.1339 25.7665 35.5565 25.3665C34.9204 24.9234 34.2636 24.465 32.5278 24.465C30.9246 24.465 30.4127 24.8531 29.8697 25.2634C29.3008 25.6944 28.6544 26.1821 27.0978 26.1821C25.5412 26.1821 24.8 25.7065 24.126 25.2858C23.452 24.8651 22.8142 24.465 21.2369 24.465C19.7665 24.465 19.1994 24.8084 18.5426 25.2051C17.7842 25.6635 16.9257 26.1821 14.8589 26.1821C12.3973 26.1821 11.401 25.6017 10.5218 25.09C10.0409 24.8101 9.62718 24.5749 8.98076 24.4564C7.80341 24.2521 7.40541 24.8496 6.05396 25.4266C5.43048 25.7079 4.79034 25.951 4.1371 26.1546C3.16978 26.4141 2.14525 26.366 1.20665 26.0172Z" fill="#14387F"/>
<path d="M3.71838 31.361C3.47972 31.361 3.24643 31.2905 3.04799 31.1584C2.84956 31.0263 2.6949 30.8386 2.60357 30.619C2.51224 30.3993 2.48835 30.1577 2.5349 29.9245C2.58146 29.6913 2.69639 29.4772 2.86514 29.3091C3.03389 29.141 3.2489 29.0265 3.48297 28.9801C3.71704 28.9337 3.95965 28.9576 4.18014 29.0485C4.40063 29.1395 4.58908 29.2936 4.72167 29.4912C4.85426 29.6889 4.92503 29.9213 4.92503 30.159C4.92503 30.4778 4.7979 30.7835 4.57161 31.0089C4.34532 31.2343 4.0384 31.361 3.71838 31.361Z" fill="#14387F"/>
<path d="M8.98205 36.2975C8.74339 36.2975 8.5101 36.227 8.31166 36.0949C8.11323 35.9629 7.95857 35.7751 7.86724 35.5555C7.77591 35.3359 7.75202 35.0942 7.79858 34.861C7.84514 34.6279 7.96006 34.4137 8.12881 34.2456C8.29757 34.0775 8.51257 33.963 8.74664 33.9167C8.98071 33.8703 9.22332 33.8941 9.44381 33.985C9.6643 34.076 9.85275 34.2301 9.98534 34.4277C10.1179 34.6254 10.1887 34.8578 10.1887 35.0955C10.1887 35.4143 10.0616 35.72 9.83528 35.9455C9.60899 36.1709 9.30207 36.2975 8.98205 36.2975Z" fill="#14387F"/>
<path d="M13.9459 30.7623C13.7073 30.7623 13.474 30.6919 13.2755 30.5598C13.0771 30.4277 12.9224 30.24 12.8311 30.0203C12.7398 29.8007 12.7159 29.559 12.7624 29.3259C12.809 29.0927 12.9239 28.8785 13.0927 28.7104C13.2614 28.5424 13.4764 28.4279 13.7105 28.3815C13.9446 28.3351 14.1872 28.3589 14.4077 28.4499C14.6282 28.5409 14.8166 28.6949 14.9492 28.8926C15.0818 29.0903 15.1526 29.3226 15.1526 29.5604C15.1526 29.8792 15.0254 30.1849 14.7991 30.4103C14.5729 30.6357 14.2659 30.7623 13.9459 30.7623Z" fill="#14387F"/>
<path d="M19.3404 36.2975C19.1018 36.2975 18.8685 36.227 18.6701 36.0949C18.4716 35.9629 18.317 35.7751 18.2256 35.5555C18.1343 35.3359 18.1104 35.0942 18.157 34.861C18.2035 34.6279 18.3185 34.4137 18.4872 34.2456C18.656 34.0775 18.871 33.963 19.105 33.9167C19.3391 33.8703 19.5817 33.8941 19.8022 33.985C20.0227 34.076 20.2111 34.2301 20.3437 34.4277C20.4763 34.6254 20.5471 34.8578 20.5471 35.0955C20.5471 35.4143 20.42 35.72 20.1937 35.9455C19.9674 36.1709 19.6605 36.2975 19.3404 36.2975Z" fill="#14387F"/>
<path d="M24.1754 30.7623C23.9367 30.7623 23.7035 30.6919 23.505 30.5598C23.3066 30.4277 23.1519 30.24 23.0606 30.0203C22.9693 29.8007 22.9454 29.559 22.9919 29.3259C23.0385 29.0927 23.1534 28.8785 23.3222 28.7104C23.4909 28.5424 23.7059 28.4279 23.94 28.3815C24.1741 28.3351 24.4167 28.3589 24.6372 28.4499C24.8577 28.5409 25.0461 28.6949 25.1787 28.8926C25.3113 29.0903 25.382 29.3226 25.382 29.5604C25.382 29.8792 25.2549 30.1849 25.0286 30.4103C24.8023 30.6357 24.4954 30.7623 24.1754 30.7623Z" fill="#14387F"/>
<path d="M30.2008 36.2975C29.9621 36.2975 29.7288 36.227 29.5304 36.0949C29.332 35.9629 29.1773 35.7751 29.086 35.5555C28.9947 35.3359 28.9708 35.0942 29.0173 34.861C29.0639 34.6279 29.1788 34.4137 29.3476 34.2456C29.5163 34.0775 29.7313 33.963 29.9654 33.9167C30.1995 33.8703 30.4421 33.8941 30.6626 33.985C30.8831 34.076 31.0715 34.2301 31.2041 34.4277C31.3367 34.6254 31.4075 34.8578 31.4075 35.0955C31.4075 35.4143 31.2803 35.72 31.054 35.9455C30.8277 36.1709 30.5208 36.2975 30.2008 36.2975Z" fill="#14387F"/>
<path d="M36.444 30.7623C36.2053 30.7623 35.972 30.6919 35.7736 30.5598C35.5751 30.4277 35.4205 30.24 35.3292 30.0203C35.2378 29.8007 35.2139 29.559 35.2605 29.3259C35.3071 29.0927 35.422 28.8785 35.5907 28.7104C35.7595 28.5424 35.9745 28.4279 36.2086 28.3815C36.4426 28.3351 36.6852 28.3589 36.9057 28.4499C37.1262 28.5409 37.3147 28.6949 37.4473 28.8926C37.5798 29.0903 37.6506 29.3226 37.6506 29.5604C37.6506 29.8792 37.5235 30.1849 37.2972 30.4103C37.0709 30.6357 36.764 30.7623 36.444 30.7623Z" fill="#14387F"/>
</svg>
