<svg width="16" height="16" viewBox="0 0 16 16" fill="none" xmlns="http://www.w3.org/2000/svg">
<path fill-rule="evenodd" clip-rule="evenodd" d="M8.25552 0C10.2366 0.276351 12.0312 1.17199 13.4496 2.59037C14.7947 3.93883 15.677 5.63689 16 7.50809L14.7714 7.71785C14.4951 6.10303 13.7326 4.63471 12.5706 3.4727C11.3453 2.25076 9.79376 1.47498 8.08238 1.23526L8.25552 0ZM12.1644 10.5845C11.6416 10.0685 10.9891 10.0685 10.4696 10.5845C10.0734 10.9774 9.67722 11.3703 9.28766 11.7699C9.18112 11.8797 9.09122 11.903 8.96137 11.8298C8.8598 11.7744 8.75561 11.7232 8.65151 11.672L8.65143 11.6719C8.49279 11.594 8.33434 11.516 8.18559 11.4236C7.0369 10.7011 6.07467 9.77214 5.22231 8.72667C4.79946 8.20726 4.42322 7.65123 4.16019 7.02528C4.10692 6.89876 4.11691 6.81552 4.22012 6.7123C4.55946 6.38437 4.89148 6.0491 5.22453 5.71279L5.22461 5.71271L5.39211 5.54364C5.93483 4.99759 5.93483 4.35833 5.38879 3.80895C5.23401 3.65251 5.07923 3.49773 4.92445 3.34295L4.92432 3.34282L4.92418 3.34269C4.7694 3.18791 4.61463 3.03313 4.45985 2.87669C4.3533 2.77014 4.24712 2.66322 4.14094 2.5563C3.9286 2.34247 3.71625 2.12865 3.50094 1.91778C2.97821 1.40836 2.32562 1.40836 1.80621 1.92111C1.64635 2.0783 1.48916 2.2371 1.33208 2.39578C1.09654 2.63371 0.861251 2.8714 0.61757 3.10309C0.241333 3.45935 0.0515499 3.89552 0.0115955 4.40494C-0.0516656 5.23399 0.151436 6.01643 0.437775 6.77889C1.02377 8.35709 1.91609 9.75882 2.99818 11.044C4.45985 12.782 6.20452 14.1571 8.24552 15.1493C9.16447 15.5955 10.1167 15.9384 11.1522 15.995C11.8647 16.035 12.484 15.8552 12.9801 15.2992C13.2033 15.0497 13.4452 14.8146 13.6869 14.5797C13.813 14.4572 13.939 14.3348 14.0622 14.2104C14.5949 13.671 14.5983 13.0184 14.0689 12.4857C13.4363 11.8498 12.8003 11.2172 12.1644 10.5845ZM11.5284 7.93088L12.757 7.72112C12.5639 6.59241 12.0312 5.57024 11.2221 4.75784C10.3664 3.90215 9.28434 3.36277 8.09237 3.19629L7.91924 4.43155C8.84151 4.5614 9.68056 4.97759 10.3431 5.64016C10.9691 6.26612 11.3786 7.05854 11.5284 7.93088Z" fill="#14387F"/>
</svg>
