<svg width="24" height="22" viewBox="0 0 24 22" fill="none" xmlns="http://www.w3.org/2000/svg">
<path fill-rule="evenodd" clip-rule="evenodd" d="M2.97109 0.150391C1.8113 0.150391 0.871094 1.09059 0.871094 2.25039V11.0004V16.5718H3.07109V12.1004H10.1567V19.7504C10.1567 20.9102 11.0969 21.8504 12.2567 21.8504H21.3995C22.5593 21.8504 23.4995 20.9102 23.4995 19.7504V11.0004V5.42894H21.2995V9.90037H14.214V2.25039C14.214 1.09059 13.2737 0.150391 12.114 0.150391H2.97109ZM12.014 9.90039H3.07109V2.35039H12.014V9.90039ZM12.3567 12.1004H21.2995V19.6504H12.3567V12.1004Z" fill="#14387F"/>
<path d="M16.8277 17.9648V13.7863M18.917 15.8756H14.7384" stroke="#14387F" stroke-width="2"/>
<path d="M7.54241 4.03613V8.2147M5.45312 6.12542H9.6317" stroke="#14387F" stroke-width="2"/>
</svg>
