<svg width="18" height="11" viewBox="0 0 18 11" fill="none" xmlns="http://www.w3.org/2000/svg">
<path fill-rule="evenodd" clip-rule="evenodd" d="M8.85229 10.1188H9.82238C9.82238 10.1188 10.1134 10.0703 10.2589 9.92477C10.4044 9.77926 10.4044 9.48824 10.4044 9.48824C10.4044 9.48824 10.4044 8.22713 10.9865 8.03311C11.5685 7.83909 12.3446 9.29422 13.1207 9.82777C13.7027 10.2643 14.1393 10.1673 14.1393 10.1673L16.2734 10.1188C16.2734 10.1188 17.389 10.0703 16.8555 9.14871C16.807 9.1002 16.5645 8.51815 15.2548 7.30555C13.8967 6.04444 14.0907 6.28696 15.6914 4.10427C16.6615 2.79466 17.0495 2.01859 16.9525 1.63055C16.8555 1.29102 16.1279 1.38803 16.1279 1.38803H13.7027C13.7027 1.38803 13.5087 1.33953 13.4117 1.43654C13.2662 1.53355 13.2177 1.67906 13.2177 1.67906C13.2177 1.67906 12.8296 2.69765 12.3446 3.57072C11.2775 5.36538 10.841 5.46239 10.6955 5.36538C10.3074 5.12286 10.4044 4.29829 10.4044 3.76474C10.4044 2.01859 10.6955 1.29102 9.87088 1.09701C9.62836 1.0485 9.43434 1 8.75529 1C7.88221 1 7.15465 1 6.76661 1.19402C6.47559 1.33953 6.28157 1.63055 6.42708 1.63055C6.5726 1.63055 6.96063 1.72756 7.15465 1.97008C7.34866 2.40662 7.34866 3.13419 7.34866 3.13419C7.34866 3.13419 7.49418 5.21987 7.00913 5.46239C6.6696 5.6564 6.23307 5.26837 5.26298 3.61923C4.77794 2.79466 4.38991 1.82457 4.38991 1.82457C4.38991 1.82457 4.3414 1.63055 4.19589 1.53355C4.05038 1.43654 3.80786 1.38803 3.80786 1.38803H1.52816C1.52816 1.38803 1.18863 1.38803 1.04311 1.53355C0.946106 1.67906 1.04311 1.92158 1.04311 1.92158C1.04311 1.92158 2.83777 6.09294 4.87495 8.22713C6.76661 10.2643 8.85229 10.1188 8.85229 10.1188V10.1188Z" stroke="#14387F" stroke-width="1.3"/>
</svg>
