<svg width="40" height="49" viewBox="0 0 40 49" fill="none" xmlns="http://www.w3.org/2000/svg">
<g clip-path="url(#clip0)">
<path fill-rule="evenodd" clip-rule="evenodd" d="M19.9569 0C8.95246 0 0 8.49595 0 18.9373C0 31.8971 17.8602 46.8367 18.6194 47.6398C19.3338 48.3946 20.5821 48.3926 21.2945 47.6398C22.0536 46.8367 39.9138 31.8971 39.9138 18.9373C39.9138 8.49595 30.9614 0 19.9569 0Z" fill="#14387F"/>
<path d="M32.5159 21.0421L32.8402 20.6305C33.1403 20.2102 33.352 19.7329 33.4626 19.2276C33.5731 18.7223 33.58 18.1996 33.4829 17.6916C33.4113 17.2596 33.2503 16.8476 33.0102 16.4822C32.7701 16.1168 32.4564 15.8061 32.0893 15.5703C32.0052 15.5134 31.9103 15.4745 31.8106 15.4559C31.9427 15.0066 31.9801 14.5345 31.9204 14.0698C31.8606 13.6051 31.7051 13.158 31.4636 12.7572C31.2164 12.3632 30.8829 12.0311 30.4886 11.7864C30.0943 11.5416 29.6496 11.3906 29.1884 11.3449H29.086C28.9103 11.346 28.7386 11.3976 28.5911 11.4936C26.8016 9.74379 24.5379 8.56425 22.0839 8.10297C21.6734 7.06866 20.9358 6.19876 19.9851 5.62717C19.3363 5.20851 18.6008 4.94447 17.835 4.8553C17.1682 4.78612 16.4947 4.82084 15.8385 4.95822L15.6394 5.00968C15.1101 5.12544 14.6004 5.31805 14.1264 5.58143C13.8867 5.71179 13.66 5.86497 13.4494 6.03887C13.256 6.18753 13.0741 6.34764 12.8807 6.51343C12.4131 6.96651 12.0024 7.47533 11.6577 8.02866C11.5018 8.27692 11.3775 8.54394 11.288 8.82338C11.2014 9.08364 11.1535 9.35528 11.1458 9.62959C11.1354 9.85476 11.1761 10.0794 11.2648 10.2864C11.3535 10.4934 11.4878 10.6775 11.6577 10.8246C9.79005 12.3837 8.40784 14.4499 7.67605 16.7768L7.53384 16.9597C7.11472 17.5267 6.82036 18.1767 6.67031 18.8668C6.52026 19.5569 6.51795 20.2711 6.66354 20.9621C6.75897 21.4515 6.90184 21.9302 7.09015 22.3915C7.13138 22.4903 7.18908 22.5812 7.26082 22.6603C7.71687 25.4472 9.0822 28.0026 11.1418 29.9238C13.2013 31.845 15.8382 33.0231 18.637 33.2724C19.0352 33.3181 19.4447 33.3467 19.8599 33.3581H20.1557C21.3875 33.3599 22.6139 33.1945 23.8018 32.8664C25.9885 32.2725 27.9965 31.1474 29.6491 29.5901L29.6833 29.5558C30.4374 28.8129 31.0403 27.9292 31.4579 26.9543C31.5008 26.8449 31.5239 26.7288 31.5262 26.6112C31.5265 26.5318 31.515 26.4528 31.492 26.3768C31.6343 26.2968 31.7708 26.2167 31.9016 26.1309C32.2995 25.878 32.6399 25.5436 32.9006 25.1495C33.1613 24.7554 33.3365 24.3105 33.4147 23.8438C33.4995 23.3923 33.4903 22.9279 33.3875 22.4801C33.2847 22.0323 33.0906 21.6108 32.8174 21.2423C32.7447 21.1529 32.6583 21.0756 32.5614 21.0136L32.5159 21.0421ZM22.1238 12.0882C22.1693 11.9624 22.2091 11.8252 22.2489 11.6708V11.6194C22.2774 11.4993 22.3058 11.3735 22.3343 11.2191V11.1334C22.3343 11.0018 22.3684 10.8704 22.3797 10.756C22.3826 10.7217 22.3826 10.6873 22.3797 10.6531C22.3829 10.6399 22.3829 10.6262 22.3797 10.613C24.308 11.6308 23.8359 13.7292 23.3353 14.5754C22.7734 15.5227 22.0649 16.3739 21.2365 17.0969C22.0164 16.6531 22.7242 16.092 23.3353 15.4331C23.878 14.8684 24.3051 14.202 24.5924 13.4719C25.73 14.2095 25.821 16.0506 25.0304 17.1255C24.5868 17.3768 24.1127 17.569 23.6197 17.6973C23.0265 17.8461 22.4166 17.9172 21.8052 17.9089C21.5265 17.9089 21.2365 17.9089 20.9293 17.8746C20.6222 17.8403 20.315 17.8174 19.9623 17.7716C19.6096 17.7259 19.3082 17.6973 19.0124 17.6744C18.7166 17.6515 18.5801 17.6744 18.3696 17.6744C17.4006 17.6737 16.4387 17.84 15.5256 18.1661H15.554L15.6337 18.1261L16.5893 17.5544C17.5415 16.9899 18.4572 16.3654 19.3309 15.6847C19.9896 15.1585 20.5971 14.5708 21.1454 13.9293L21.1852 13.8778C21.5809 13.3394 21.8971 12.7463 22.1238 12.1168V12.0882ZM11.7259 13.2947C11.9307 12.5971 12.3459 11.1734 12.3972 11.0076C12.6962 10.8201 13.0057 10.6502 13.3243 10.4987L13.3983 10.4587C13.4344 10.442 13.4727 10.4305 13.512 10.4244C13.5745 10.4103 13.6392 10.4091 13.7022 10.4209C13.7651 10.4327 13.825 10.4573 13.8783 10.4931C13.9315 10.529 13.9769 10.5753 14.0117 10.6294C14.0465 10.6834 14.07 10.744 14.0808 10.8074C14.1004 10.9253 14.0739 11.0461 14.0069 11.1448C13.8249 11.425 12.4882 13.3575 12.3346 13.5806C12.2888 13.6461 12.2194 13.6912 12.1412 13.7064C12.0567 13.7213 11.9698 13.702 11.8994 13.6528C11.8291 13.6035 11.781 13.5281 11.7658 13.4433C11.7515 13.3909 11.7515 13.3356 11.7658 13.2832L11.7259 13.2947ZM7.53384 20.8306C7.40943 20.2807 7.40205 19.7105 7.51226 19.1574C7.62241 18.6044 7.84759 18.081 8.17302 17.6216C8.49851 17.1621 8.91687 16.7771 9.40077 16.4915C9.88467 16.206 10.4231 16.0265 10.9808 15.9648C10.0898 16.7239 9.35943 17.655 8.83282 18.7029C8.30615 19.7508 7.99405 20.8943 7.91492 22.0656C7.74918 21.6671 7.62159 21.2535 7.53384 20.8306ZM10.3779 27.4346L10.2584 27.3659C10.2408 27.3558 10.2253 27.3422 10.2129 27.3259L10.1788 27.2916C10.1442 27.2586 10.1153 27.2199 10.0935 27.1773C9.98538 26.9829 9.87733 26.7828 9.78061 26.5712C9.73513 26.4683 9.68395 26.3654 9.6441 26.2567C9.45826 25.8171 9.31169 25.3617 9.20615 24.8959C9.20615 24.7758 9.14928 24.6557 9.1322 24.5357C9.11513 24.4156 9.07533 24.1869 9.05256 24.0097C9.02979 23.8324 9.01841 23.6609 9.01277 23.4836C9.01559 23.4322 9.01559 23.3807 9.01277 23.3293V22.929C9.03369 21.8567 9.24759 20.7971 9.6441 19.8014C9.83005 19.3341 10.0606 18.8861 10.3324 18.4635L10.4063 18.3548C10.8283 17.7198 11.3312 17.1432 11.9023 16.6395C12.0274 16.5309 12.1526 16.4223 12.2891 16.3193L12.3744 16.2507L12.5735 16.0906L12.6929 16.0049L12.875 15.8791C13.0342 15.7647 13.1992 15.6561 13.3698 15.5532C13.6599 15.3645 13.9386 15.1872 14.2856 15.0157L14.4107 14.9471C14.479 14.9128 14.5359 14.8785 14.6042 14.8499C17.0443 13.5291 18.4834 12.254 18.9442 10.9504C18.9726 10.8646 19.001 10.7731 19.0238 10.6874C19.0211 10.6531 19.0211 10.6187 19.0238 10.5845C19.0496 10.4696 19.0667 10.3531 19.075 10.2357C19.086 9.94051 19.032 9.64656 18.917 9.37471C18.802 9.10292 18.6287 8.86 18.4095 8.66333C18.2087 8.47969 17.9725 8.33959 17.7155 8.25164C17.6508 8.22846 17.5842 8.21123 17.5164 8.20015C17.4265 8.18041 17.3352 8.16707 17.2434 8.16015H17.141C17.0132 8.15969 16.8856 8.17118 16.7599 8.19446L16.4869 8.25164C16.1734 8.39112 15.8866 8.58461 15.6394 8.82338C15.4339 8.99743 15.2437 9.18871 15.0706 9.39518C15.0108 9.49241 14.927 9.57251 14.8273 9.62759C14.7276 9.68271 14.6155 9.71097 14.5017 9.70964C14.4291 9.70538 14.3578 9.688 14.2913 9.6582C14.1432 9.61897 14.0152 9.52507 13.9329 9.39518C13.8979 9.32764 13.8766 9.25379 13.8704 9.17789C13.8675 9.15897 13.8675 9.13969 13.8704 9.12071C13.8617 9.07348 13.8617 9.02502 13.8704 8.97779V8.89774C13.9272 8.71476 14.0126 8.56041 13.8704 8.48035C13.8498 8.47523 13.8284 8.47523 13.8078 8.48035C13.6201 8.48035 13.4096 8.84625 13.1992 9.24082C12.9887 9.63533 12.7157 10.1499 12.4711 10.2014H12.3972C12.1696 10.2014 12.0558 9.96692 12.0558 9.62959C12.0634 9.45056 12.0959 9.27348 12.1526 9.10359C12.223 8.90271 12.3166 8.71087 12.4313 8.53179C12.7316 8.04835 13.0888 7.60297 13.495 7.20528C13.6523 7.05728 13.8175 6.91794 13.9898 6.78789C14.167 6.64241 14.3574 6.51415 14.5586 6.40482C14.9984 6.15594 15.4745 5.97841 15.9693 5.87876L16.4129 5.79302C16.8094 5.72435 17.2138 5.71471 17.6131 5.76441C18.285 5.82912 18.9331 6.0482 19.5073 6.40482C20.0611 6.74082 20.53 7.20112 20.8773 7.74969C21.2247 8.2982 21.441 8.9201 21.5095 9.56671C21.5323 9.75641 21.5437 9.94738 21.5436 10.1385C21.5436 10.2471 21.5436 10.35 21.5436 10.453C21.5462 10.4776 21.5462 10.5026 21.5436 10.5273C21.5464 10.5558 21.5464 10.5845 21.5436 10.613C21.5436 10.7217 21.5436 10.8303 21.5038 10.9332C21.4639 11.0361 21.5038 10.9733 21.5038 10.9904C21.5038 11.1105 21.4583 11.2249 21.4298 11.3392C21.4329 11.3485 21.4329 11.3585 21.4298 11.3678C21.4014 11.4936 21.3616 11.6136 21.3217 11.7394C21.1271 12.2924 20.851 12.8127 20.5027 13.2832C19.9869 13.8799 19.4155 14.4256 18.7963 14.9128C17.978 15.5356 17.1233 16.1084 16.2366 16.6281L15.2696 17.2399L15.1445 17.3085L15.0592 17.3657L14.9113 17.4629L14.6894 17.6173L14.6383 17.663C12.4938 19.1553 10.7135 21.0936 10.3551 25.622C10.3112 26.1939 10.3264 26.7687 10.4006 27.3374L10.3779 27.4346ZM31.3783 25.4048C29.7735 26.3811 27.9796 27.0011 26.1168 27.223H26.3045C26.5832 27.223 26.8733 27.2516 27.1634 27.2516C28.1037 27.2525 29.0402 27.1334 29.9506 26.8971C30.1682 26.8407 30.3768 26.754 30.5706 26.6398C30.1979 27.5019 29.6563 28.2798 28.9779 28.9269C27.4339 30.38 25.559 31.4304 23.5174 31.9859C22.4055 32.2925 21.2574 32.4463 20.1045 32.4433H19.8258C17.6197 32.4721 15.4702 31.7418 13.7338 30.3735C12.7765 29.5205 12.0769 28.4142 11.7149 27.1809C11.3528 25.9475 11.3429 24.6367 11.6862 23.3978C11.6862 23.3464 11.6862 23.3007 11.7259 23.2549C12.187 21.8476 13.0889 20.6283 14.2967 19.779C15.5045 18.9297 16.9533 18.4963 18.4265 18.5435C18.6199 18.5435 18.8076 18.5435 18.9953 18.5435C19.2797 18.5435 19.5642 18.595 19.894 18.635C20.2239 18.675 20.5709 18.7151 20.9122 18.7379C21.2535 18.7608 21.5436 18.7779 21.8565 18.7779C22.5448 18.7851 23.2312 18.7024 23.8985 18.5321C24.8497 18.2726 25.7357 17.814 26.4983 17.1863C27.2609 16.5587 27.883 15.7761 28.3238 14.8899C28.6909 14.0505 28.9379 13.163 29.0576 12.254C30.5876 12.4256 31.3954 13.8836 30.8607 15.4216C28.9495 20.9164 22.5504 21.7569 21.5095 21.8598L21.9417 21.9055H22.4423C22.9066 21.8993 23.37 21.8649 23.8302 21.8026C26.3069 21.5283 28.5857 20.3134 30.2009 18.4063C30.7396 17.7641 31.2122 17.0687 31.6115 16.3308C32.8117 17.074 32.9368 18.9666 32.112 20.0645C31.1812 21.2824 30.0182 22.3016 28.6909 23.0624C27.3636 23.8233 25.8987 24.3105 24.3819 24.4957C24.6152 24.4957 24.8484 24.4957 25.0759 24.4957C26.7307 24.4723 28.3565 24.0549 29.8198 23.2778C30.6023 22.8423 31.348 22.3432 32.0495 21.7855C32.2571 22.062 32.405 22.379 32.4839 22.7161C32.5629 23.0533 32.571 23.4034 32.5078 23.7439C32.4447 24.0845 32.3116 24.408 32.1172 24.694C31.9227 24.9799 31.671 25.222 31.3783 25.4048Z" fill="white"/>
</g>
<defs>
<clipPath id="clip0">
<rect width="40" height="48.2051" fill="white"/>
</clipPath>
</defs>
</svg>
