<?xml version="1.0" standalone="no"?>
<!DOCTYPE svg PUBLIC "-//W3C//DTD SVG 1.1//EN" "http://www.w3.org/Graphics/SVG/1.1/DTD/svg11.dtd">
<svg xmlns="http://www.w3.org/2000/svg">
<metadata>Copyright (C) 2020 by original authors @ fontello.com</metadata>
<defs>
<font id="icon" horiz-adv-x="1000" >
<font-face font-family="icon" font-weight="400" font-stretch="normal" units-per-em="1000" ascent="850" descent="-150" />
<missing-glyph horiz-adv-x="1000" />
<glyph glyph-name="arrow-45" unicode="&#xe800;" d="M638 458l-344-344-30 30 344 344 36 35-51 0-308 0 0 42 430 0v-430h-42l0 308 0 51-35-36z" horiz-adv-x="1000" />

<glyph glyph-name="arrow-down" unicode="&#xe801;" d="M916-114l717 754c45 48 45 126 0 174-46 48-120 48-166 0l-634-667-634 667c-45 48-119 48-165 0-45-48-45-126 0-174l717-754c23-24 53-36 82-36 30 0 60 12 83 36z" horiz-adv-x="1667" />

<glyph glyph-name="arrow-left" unicode="&#xe802;" d="M643 725l-375-375 375-375-101-101-476 476 476 476 101-101z" horiz-adv-x="643" />

<glyph glyph-name="arrow-right" unicode="&#xe803;" d="M0 725l375-375-375-375 101-101 476 476-476 476-101-101z" horiz-adv-x="643" />

<glyph glyph-name="calendar" unicode="&#xe804;" d="M15-27c8 0 14 7 14 15v503h866v-161c0-8 6-14 14-14 9 0 15 6 15 14v290c0 49-40 89-89 89h-38v18c0 20-16 36-36 36h-27c-20 0-36-16-36-36v-18h-97v18c0 20-16 36-35 36h-28c-19 0-35-16-35-36v-18h-97v18c0 20-16 36-36 36h-27c-20 0-36-16-36-36v-18h-97v18c0 20-16 36-36 36h-27c-19 0-35-16-35-36v-18h-23c-49 0-89-40-89-89v-632c0-8 7-15 15-15z m713 754c0 3 2 6 6 6h27c4 0 6-3 6-6v-71c0-4-2-6-6-6h-27c-4 0-6 2-6 6v71z m-196 0c0 3 3 6 6 6h28c3 0 6-3 6-6v-71c0-4-3-6-6-6h-28c-3 0-6 2-6 6v71z m-195 0c0 3 2 6 6 6h27c3 0 6-3 6-6v-71c0-4-3-6-6-6h-27c-4 0-6 2-6 6v71z m-196 0c0 3 3 6 6 6h27c4 0 7-3 7-6v-71c0-4-3-6-7-6h-27c-3 0-6 2-6 6v71z m-52-47h23v-24c0-20 16-36 35-36h27c20 0 36 16 36 36v24h97v-24c0-20 16-36 36-36h27c20 0 36 16 36 36v24h97v-24c0-20 16-36 35-36h28c19 0 35 16 35 36v24h97v-24c0-20 16-36 36-36h27c20 0 36 16 36 36v24h38c33 0 60-27 60-60v-99h-866v99c0 33 27 60 60 60z m149-696h-200c-5 0-9 4-9 8v76c0 8-6 14-14 14-8 0-15-6-15-14v-76c0-21 17-38 38-38h200c8 0 14 7 14 15 0 8-6 15-14 15z m-73 534h-50c-9 0-15-6-15-14 0-8 6-15 15-15h50c9 0 15 7 15 15 0 8-6 14-15 14z m106-29h51c8 0 15 7 15 15 0 8-7 14-15 14h-51c-8 0-15-6-15-14 0-8 7-15 15-15z m156 0h51c8 0 15 7 15 15 0 8-7 14-15 14h-51c-8 0-14-6-14-14 0-8 6-15 14-15z m157 0h51c8 0 15 7 15 15 0 8-7 14-15 14h-51c-8 0-15-6-15-14 0-8 7-15 15-15z m207 29h-51c-8 0-14-6-14-14 0-8 6-15 14-15h51c8 0 15 7 15 15 0 8-7 14-15 14z m-626-73h-50c-9 0-15-7-15-15 0-8 6-14 15-14h50c9 0 15 6 15 14 0 8-6 15-15 15z m106-29h51c8 0 15 6 15 14 0 8-7 15-15 15h-51c-8 0-15-7-15-15 0-8 7-14 15-14z m156 0h51c8 0 15 6 15 14 0 8-7 15-15 15h-51c-8 0-14-7-14-15 0-8 6-14 14-14z m157 0h51c8 0 15 6 15 14 0 8-7 15-15 15h-51c-8 0-15-7-15-15 0-8 7-14 15-14z m207 29h-51c-8 0-14-7-14-15 0-8 6-14 14-14h51c8 0 15 6 15 14 0 8-7 15-15 15z m-520-317l76-75c11-11 25-17 40-17 16 0 30 6 41 17l206 206c23 22 23 59 0 81-22 23-59 23-81 0l-166-165-34 35c-23 22-59 22-82 0-22-23-22-60 0-82z m21 61c6 5 13 8 20 8 7 0 15-3 20-8l45-45c6-6 15-6 21 0l176 176c11 11 29 11 40 0 11-11 11-29 0-40l-207-207c-5-5-12-8-20-8-7 0-14 3-20 8l-75 76c-11 11-11 29 0 40z m632 28v116c0 9-6 15-14 15-9 0-15-6-15-15v-98c-27 14-57 22-89 22-107 0-195-87-195-194 0-29 6-55 17-79h-395c-8 0-15-7-15-15 0-8 7-15 15-15h411c35-52 95-86 162-86 107 0 194 87 194 195 0 62-30 118-76 154z m-118-320c-91 0-165 74-165 166 0 91 74 165 165 165 91 0 165-74 165-165 0-92-74-166-165-166z m0 309c-80 0-144-64-144-143 0-80 64-144 144-144 79 0 144 64 144 144 0 79-65 143-144 143z m13-257c1 2 1 4 1 6v18c0 8-6 15-14 15-8 0-15-7-15-15v-18c0-2 1-4 2-6-53 6-95 48-101 100 2-1 4-1 6-1h18c8 0 15 6 15 15 0 8-7 14-15 14h-18c-2 0-4 0-6-1 6 52 48 94 101 100-1-2-2-4-2-6v-18c0-8 7-15 15-15 8 0 14 7 14 15v18c0 2 0 4-1 6 53-6 95-48 101-100-2 1-5 1-7 1h-18c-8 0-14-6-14-14 0-9 6-15 14-15h18c2 0 5 0 7 1-6-52-48-94-101-100z m19 128h-18v15c0 8-6 15-14 15-8 0-15-7-15-15v-29c0-9 7-15 15-15h32c8 0 15 6 15 15 0 8-7 14-15 14z" horiz-adv-x="1000" />

<glyph glyph-name="clock" unicode="&#xe805;" d="M464 814c-255 0-464-208-464-464 0-256 209-464 464-464 124 0 240 48 328 136 88 88 137 205 137 328 0 256-209 464-465 464z m0-874c-226 0-410 184-410 410 0 226 184 410 410 410 226 0 410-184 410-410 0-226-184-410-410-410z m0 764c-15 0-27-12-27-27v-316l-184-184c-11-11-11-28 0-38 10-11 28-11 38 0l193 192c5 5 8 12 8 19v327c0 15-13 27-28 27z m327-327h-55c-15 0-27-12-27-27 0-15 12-27 27-27h55c15 0 27 12 27 27 0 15-12 27-27 27z m-599 0h-54c-15 0-27-12-27-27 0-15 12-27 27-27h54c15 0 27 12 27 27 0 15-12 27-27 27z m272-272c-15 0-27-12-27-27v-54c0-15 12-28 27-28 15 0 28 13 28 28v54c0 15-13 27-28 27z" horiz-adv-x="929" />

<glyph glyph-name="comments" unicode="&#xe806;" d="M493 359h-61v61c0 4-2 8-5 12-3 3-7 5-12 5h-78c-5 0-9-2-12-5-3-4-5-8-5-12v-61h-61c-5 0-9-2-12-5-3-4-5-8-5-13v-78c0-4 2-9 5-12 3-3 7-5 12-5h61v-61c0-4 2-9 5-12 3-3 7-5 12-5h78c5 0 9 2 12 5 3 3 5 8 5 12v61h61c5 0 9 2 12 5 4 3 5 8 5 12v78c0 5-1 9-5 13-3 3-7 5-12 5z m-17-79h-61c-4 0-9-1-12-5-3-3-5-7-5-12v-61h-44v61c0 5-2 9-5 12-3 4-8 5-12 5h-61v44h61c4 0 9 2 12 5 3 4 5 8 5 12v62h44v-62c0-4 2-8 5-12 3-3 8-5 12-5h61v-44z m659 457h-522c-5 0-9-2-12-5-3-3-5-8-5-12 0-5 2-9 5-12 3-3 7-5 12-5h522c5 0 9 2 12 5 4 3 5 7 5 12 0 4-1 9-5 12-3 3-7 5-12 5z m0-91h-522c-5 0-9-2-12-5-3-3-5-8-5-12 0-5 2-9 5-12 3-4 7-5 12-5h522c5 0 9 1 12 5 4 3 5 7 5 12 0 4-1 9-5 12-3 3-7 5-12 5z m0-91h-302c-5 0-9-2-12-5-4-3-5-8-5-12 0-5 1-9 5-12 3-4 7-5 12-5h302c5 0 9 1 12 5 4 3 5 7 5 12 0 4-1 9-5 12-3 3-7 5-12 5z m0-91h-302c-5 0-9-2-12-5-4-4-5-8-5-12 0-5 1-9 5-13 3-3 7-5 12-5h302c5 0 9 2 12 5 4 4 5 8 5 13 0 4-1 8-5 12-3 3-7 5-12 5z m49 371h-620c-17 0-34-7-47-20-12-12-19-29-19-46v-215h-432c-18 0-34-7-47-19-12-13-19-30-19-47v-371c0-18 7-34 19-47 13-12 29-19 47-19h153v-169c0-3 1-6 2-8 2-3 4-5 7-7 3-1 6-2 9-2 3 1 6 1 8 3l276 183h165c18 0 34 7 47 19 12 13 19 29 19 47v200l253-168c2-2 5-3 8-3 3 0 6 1 9 2 3 2 5 4 7 7 1 2 2 5 2 8v169h153c18 0 34 7 47 19 12 12 19 29 19 47v371c0 17-7 34-19 46-13 13-29 20-47 20z m-498-750h-170c-3 0-7-1-9-3l-254-168v154c0 5-2 9-5 12-3 3-8 5-12 5h-170c-8 0-17 4-22 9-6 6-10 14-10 23v371c0 8 4 16 10 22 5 6 14 10 22 10h620c9 0 17-4 23-10 5-6 9-14 9-22v-371c0-9-4-17-9-23-6-5-14-9-23-9z m530 313c0-9-3-17-9-23-6-6-14-9-23-9h-170c-4 0-9-2-12-5-3-3-5-8-5-12v-154l-245 163v130c0 17-7 34-19 47-13 12-29 19-47 19h-154v215c0 8 4 16 10 22 6 6 14 9 22 9h620c9 0 17-3 23-9 6-6 9-14 9-22v-371z" horiz-adv-x="1250" />

<glyph glyph-name="diag" unicode="&#xe807;" d="M654-150h-558c-25 0-50 10-68 28-18 18-28 42-28 67l0 757c0 25 10 49 28 67 18 18 43 28 68 28h129c4 0 8-2 11-4 2-3 4-7 4-10 0-4-2-8-4-10-3-3-7-4-11-4h-129c-18 0-35-7-47-20-13-12-20-29-20-47v-757c0-18 7-35 20-47 12-13 29-20 47-20h558c18 0 35 7 48 20 12 12 19 29 19 47v757c0 18-7 35-19 47-13 13-30 20-48 20h-136c-3 0-7 1-10 4-2 2-4 6-4 10 0 3 2 7 4 10 3 2 7 4 10 4h136c25 0 50-10 68-28 18-18 28-42 28-67v-757c0-25-10-49-28-67-18-18-43-28-68-28z m-34 57h-490c-20 0-39 8-54 22-14 14-22 33-22 52v688c0 20 8 39 22 53 15 14 34 22 54 22h93c4 0 8-1 10-4 3-3 5-6 5-10 0-4-2-7-5-10-2-3-6-4-10-4h-93c-13 0-24-5-33-14-9-8-14-20-14-33v-688c0-12 5-24 14-32 9-9 20-14 33-14h490c13 0 25 5 33 14 9 8 14 20 14 32v688c0 13-5 25-14 33-8 9-20 14-33 14h-103c-1 0-3 0-5 1-2 1-3 2-5 3-1 1-2 3-3 5 0 1-1 3-1 5 0 2 1 4 1 5 1 2 2 4 3 5 2 1 3 2 5 3 2 1 4 1 5 1h103c20 0 40-8 54-22 14-14 22-33 22-53v-688c0-19-8-38-22-52-14-14-34-22-54-22z m-406 151c-4 0-7 1-9 3l-37 29c-3 2-5 5-5 9-1 4 0 7 2 10 3 3 6 5 10 6 4 0 8-1 11-3l25-19 42 58c2 3 6 6 10 6 3 1 7 0 10-2 3-2 5-6 6-9 1-4 0-8-2-11l-52-71c-1-1-2-3-4-4-2-1-3-1-5-1-1-1-2-1-2-1z m377 39h-267c-3 0-7 1-10 4-3 3-4 6-4 10 0 4 1 7 4 10 3 2 7 4 10 4h267c4 0 7-2 10-4 3-3 4-6 4-10 0-4-1-7-4-10-3-3-6-4-10-4z m-377 185c-4 0-7 2-9 3l-37 29c-3 2-5 5-5 9-1 4 0 8 2 11 3 3 6 4 10 5 4 0 8-1 11-3l25-19 42 57c3 3 6 5 10 5 3 1 7 0 10-2 3-3 6-6 6-10 1-3 0-7-3-10l-51-69c-1-1-2-3-4-4-2 0-3-1-5-1-1-1-2-1-2-1z m377 39h-267c-3 0-7 1-10 4-3 3-4 6-4 10 0 4 1 7 4 10 3 3 7 4 10 4h267c4 0 7-1 10-4 3-3 4-6 4-10 0-4-1-7-4-10-3-3-6-4-10-4z m-377 188c-4 0-7 1-9 3l-37 28c-3 2-5 5-5 9-1 4 0 8 2 11 3 3 6 5 10 5 4 0 8-1 11-3l25-19 42 61c1 1 3 2 4 3 2 1 4 2 5 2 2 1 4 1 6 0 2 0 4-1 5-2 2-1 3-2 4-4 1-1 2-3 2-5 0-2 0-4 0-6 0-1-1-3-2-5l-52-72c-1-2-2-3-4-4-1-1-3-2-5-2-1 0-2 0-2 0z m377 40h-267c-3 0-7 1-10 4-3 3-4 6-4 10 0 4 1 7 4 10 3 3 7 4 10 4h267c4 0 7-1 10-4 3-3 4-6 4-10 0-4-1-7-4-10-3-3-6-4-10-4z m-144 159h-145c-9 0-18 4-25 10-6 7-10 16-10 25v26c0 9 4 18 10 24 7 7 16 10 25 10h17c5 39 31 60 57 60 25 0 51-19 56-60h15c10 0 18-3 25-10 6-6 10-15 10-24v-26c0-9-4-18-10-25-7-6-15-10-25-10z m-145 67c-2 0-3-1-5-2-1-1-1-2-1-4v-26c0-2 0-3 1-5 2-1 3-1 5-1h145c2 0 3 0 5 1 1 2 1 3 1 5v26c0 2 0 3-1 4-2 1-3 2-5 2h-28c-4 0-8 2-11 4-2 3-4 6-4 10 0 31-14 45-28 45-14 0-29-15-29-45 0-4-2-7-4-10-3-2-7-4-10-4h-31z" horiz-adv-x="750" />

<glyph glyph-name="doctor" unicode="&#xe808;" d="M737 230l-50 17c10 19 13 40 12 61-5 44-39 74-67 94 6 244-6 385-85 432-55 33-139 16-269-55-23 4-43-1-60-14-56-47-52-191-47-358v-4c-19-12-41-36-52-73-9-26-10-55-5-82l-51-18c-18-7-34-19-46-35-11-16-17-35-17-55v-215c0-20 8-39 22-53 14-14 34-22 54-22h324c0 0 0 0 0 0h325c20 0 39 8 53 22 14 14 22 33 22 53v215c0 20-6 39-17 55-12 16-28 28-46 35z m-106 137c25-20 37-40 39-61 1-17-2-34-10-49l-32 12c1 38 2 70 3 98z m-394 376c10 8 23 11 41 7l5-1 5 2c121 67 199 86 244 59 68-40 77-183 72-415v0c-1-33-2-69-4-116l-69 24c-18 28-23 53-27 96 76 45 69 156 64 224 0 4-1 8-1 13l-1 13h-13c-90 1-121 18-166 66l-13 14-10-17c-40-76-67-97-128-104l-13-1v-13c0-3 0-6 0-8 0-51 1-141 77-188-4-38-9-61-29-95l-69-24c0 38-1 77-2 116 0 0 0 0 0 0l0 12c-5 154-9 298 37 336z m100-362c50-16 104-6 140 6 4-41 10-67 29-98l-32-115c-21 16-46 24-72 24h-1c-26 0-52-8-73-25l-32 117c21 34 27 59 31 95 3-1 7-3 10-4h0z m-85 201c58 9 90 35 128 100 44-44 84-59 159-61 4-63 11-167-56-201-24-10-85-29-137-12-91 31-94 119-94 174z m-106-260c5 17 14 32 26 45 1-33 2-66 2-98l-33-12c-3 22-1 44 5 65z m-70-444c-13 0-25 5-34 14-8 8-13 20-13 33v215c0 14 4 27 12 39 8 11 19 19 32 24l47 17c6-22 15-44 26-64-32-41-5-77 31-127l16-21 32 22c3 2 5 6 6 9 0 4-1 7-3 10-2 3-5 6-9 6-3 1-7 0-10-2l-9-6c-40 54-51 71-27 97 3 2 7 4 11 4 4 1 8 1 12 1 26-5 51-43 65-64-3-2-6-4-8-5-2-1-3-2-4-3-2-2-3-3-3-5-1-2-1-4-1-6 0-2 1-3 2-5 1-2 2-3 4-4 1-1 3-2 5-3 1 0 3-1 5 0 2 0 4 1 6 1 8 5 16 10 23 17l9 8-7 10c-2 3-4 6-7 10-17 26-46 69-84 76-11 2-22 1-32-3-9 18-17 37-22 56l46 17h1l77 27 36-130c0 0 0 0 0 0l74-265h-305z m324 39l-63 226c8 9 18 16 29 20 11 5 23 7 35 7 12 0 24-2 35-7 11-5 21-11 29-20l-65-226z m371 8c0-13-4-24-13-33-9-9-21-14-33-14h-306l75 265c0 0 0 0 0 0l37 130 77-27h1l37-14c-10-15-21-29-34-42-13 7-28 10-43 6-14-3-27-11-36-23-9-12-13-27-11-42 1-14 8-28 19-38 11-10 25-16 40-16 15 0 30 5 41 14 12 10 19 23 21 38 2 15-1 30-10 42 16 16 29 33 41 51l53-19c13-5 25-13 32-24 8-12 12-25 12-39v-215z m-167 236c6-5 10-12 11-19 1-8-1-15-5-22-4-6-10-11-17-13-8-3-15-2-23 0-7 3-13 8-16 15-4 6-5 14-4 21 2 8 6 14 11 19 6 5 14 8 21 8 8 0 16-3 22-9v0z" horiz-adv-x="800" />

<glyph glyph-name="doctor2" unicode="&#xe809;" d="M893-99l-44 259c-5 28-25 51-52 59l-119 36c-3 29-15 56-35 78-16 18-36 30-58 37 4 5 8 9 11 13 28 36 43 76 47 103h9c24 0 44 19 44 43v22c0 16-9 31-23 38v54c0 8-6 15-14 15-8 0-15-7-15-15v-60c-6-1-12-3-19-6-1 0-2 0-2-1-2 0-4-1-5-2v118c0 33-27 59-59 59h-41c-14 0-27-5-38-14l-4-3c-7-6-17-9-26-9-9 0-19 3-26 9l-4 3c-11 9-24 14-38 14h-41c-32 0-59-26-59-59v-118c-1 1-3 2-4 2-1 1-2 1-2 1-7 3-14 5-20 6v152c0 47 39 86 86 86h216c47 0 86-39 86-86l0-92c0-8 7-15 15-15 8 0 14 7 14 15l0 92c0 63-51 115-115 115h-216c-64 0-115-52-115-115v-146c-14-7-23-22-23-38v-22c0-24 20-43 44-43h9c4-27 19-67 47-103 4-4 7-8 11-13-51-16-88-61-93-115l-119-36c-27-8-47-31-52-59l-29-173c-2-8 4-16 12-17 8-2 15 4 17 12l29 173c3 17 15 31 32 36l110 33v-29c-25-5-47-22-56-46-2-6-4-13-4-20l-11-137c-1-10 3-21 10-28 7-8 17-12 27-12h19c8 0 14 6 14 15 0 8-6 14-14 14h-19c-2 0-4 1-5 3-2 1-3 4-3 6l11 137c0 4 1 8 3 12 6 17 23 28 41 28l3 0c0 0 0 0 0 0 18 0 34-10 41-26 2-5 3-9 3-14l11-137c0-2-1-5-2-6-2-2-4-3-6-3h-18c-8 0-15-6-15-14 0-9 7-15 15-15h18c10 0 20 4 27 12 7 7 11 18 10 28l-11 137c0 8-2 16-5 23-10 23-30 39-55 43v38l51 15c4-10 13-30 31-75 18-46 41-104 62-160 1-1 1-1 1-2 14-38 28-74 40-106 2-6 8-10 14-10 6 0 12 4 14 10 12 32 26 68 40 106 0 1 0 1 1 2 21 56 44 114 62 160 18 45 27 65 32 75l50-15v-87c-35-6-61-37-61-74 0-42 34-76 75-76 42 0 76 34 76 76 0 37-26 67-61 74v78l111-33c16-5 28-19 31-36l44-259c1-4 0-8-3-12-3-3-7-5-11-5h-800c-4 0-8 2-11 5-2 4-4 8-3 12l15 86c1 8-4 15-12 17-8 1-16-4-17-12l-15-86c-2-13 2-26 10-35 8-10 20-16 33-16h800c13 0 25 6 33 16 9 9 12 22 10 35z m-249 652c8 2 14 2 14 2 3 0 5 0 8 2 0-2 1-4 1-6v-22c0-8-7-14-15-14h-8v38z m-388-38h-8c-8 0-14 6-14 14v22c0 2 0 4 1 6 2-2 4-2 7-2 0 0 6 0 14-2v-38z m29-16v38c5-1 9-1 14 1 8 3 13 10 13 19v135c0 16 13 30 29 30h41c7 0 14-3 20-7l4-4c12-10 28-15 44-15 16 0 32 5 44 15l4 4c6 4 13 7 20 7h41c16 0 30-14 30-30v-135c0-9 4-16 12-19 3-1 5-2 8-2 2 0 4 1 6 1v-38c0-22-15-63-42-98-9-12-21-24-35-35-1 0-1-1-2-1-22-16-50-29-86-29-35 0-64 13-86 29-1 0-1 1-2 1-14 11-26 23-35 35-27 35-42 76-42 98z m261-237l-96-72-96 72c10 12 15 28 15 41v24c23-12 49-20 81-20 32 0 59 8 81 20v-24c0-13 5-29 15-41z m-216 16c-8 3-17 4-25 2 0 0-1-1-1-1l-51-15c9 42 43 76 87 82v-43c0-9-4-18-10-25z m39-117c0 0 0 0 0 0 0 2-1 4-2 6 0 0 0 0 0 1-1 1-2 3-2 5 0 0 0 0-1 0-2 6-4 11-6 16 0 0 0 1 0 1-1 1-1 3-2 4 0 1 0 1-1 2 0 1-1 3-1 4 0 0-1 1-1 1-1 2-2 5-3 7 0 1 0 1 0 2-1 1-1 2-1 2-1 1-1 2-1 3-1 1-1 1-1 1 0 1 0 1 0 1-2 4-4 8-5 12l0 0c-1 2-2 4-2 5-1 1-1 2-2 3l83-61-35-15c0 0 0 0 0 0l-14-6c-1 2-2 4-3 6z m35-90c-3 8-5 15-8 23-5 12-9 23-13 33l5 3 22-26-6-33z m46-119c0 1-1 2-1 2-7 18-15 40-24 65l13 74h24l14-74c-10-26-19-49-26-67z m17 171h-34l-17 19 34 14 34-14-17-19z m37-29c-2-8-5-15-8-23l-6 33 22 26 6-3c-5-10-9-21-14-33z m57 140c-1-1-2-3-3-5 0 0 0 0 0-1-1-1-2-3-2-5 0 0 0 0 0-1-1-1-2-3-3-5 0 0 0 0 0-1 0 0 0 0-1-1 0-1 0-1 0-2-1-1-1-2-2-3 0-1 0-1 0-1-1-3-2-5-3-8 0 0-1-1-1-1 0-1-1-3-1-4-1-1-1-1-1-2-1-1-1-3-2-4 0 0 0-1 0-1-2-5-4-10-6-16 0 0 0 0-1 0 0-2-1-4-2-5 0-1 0-1 0-1-1-2-2-4-2-6l0 0c-1-2-2-4-3-6l-14 6c0 0 0 0 0 0l-35 15 83 61c-1-1-1-2-1-3z m35 45l0 0c-8 3-17 2-26-1-5 7-10 16-10 25v43c44-6 78-40 87-82l-51 15z m114-207c0-26-21-47-47-47-25 0-46 21-46 47 0 26 21 46 46 46 26 0 47-20 47-46z" horiz-adv-x="900" />

<glyph glyph-name="eye" unicode="&#xe80a;" d="M688 819c-313 0-580-195-688-469 108-274 375-469 688-469 312 0 579 195 687 469-108 274-375 469-687 469z m0-781c-173 0-313 140-313 312 0 173 140 313 313 313 172 0 312-140 312-313 0-172-140-312-312-312z m0 500c-104 0-188-84-188-188 0-104 84-187 188-187 103 0 187 83 187 187 0 104-84 188-187 188z" horiz-adv-x="1375" />

<glyph glyph-name="facebook" unicode="&#xe80b;" d="M343-67v380h128l19 149h-147v94c0 43 11 72 73 72h78v133c-38 4-76 6-114 6-113 0-191-69-191-196v-109h-127v-149h127v-380h154z" horiz-adv-x="556" />

<glyph glyph-name="fb2" unicode="&#xe80c;" d="M949 838h-898c-22 0-39-17-39-39v-898c0-22 17-39 39-39h898c22 0 39 17 39 39v898c0 22-17 39-39 39z m-39-898h-225v300h127l19 147h-146v94c0 43 12 72 73 72h78v132c-13 2-59 6-113 6-113 0-190-69-190-195v-109h-127v-147h127v-300h-443v820h820v-820z" horiz-adv-x="1000" />

<glyph glyph-name="gift" unicode="&#xe80d;" d="M1068 676h-250c12 20 19 41 20 61 1 30-10 58-32 80-24 24-54 35-86 32-34-4-68-23-102-57-24-24-46-54-62-84-17 30-39 60-63 84-34 34-68 53-102 57-32 3-62-8-86-32-22-22-33-50-32-80 2-20 8-41 21-61h-251c-23 0-43-20-43-44v-130c0-24 20-43 43-43v-565c0-24 20-43 44-43h937c24 0 44 19 44 43v565c24 0 43 19 43 43v130c0 24-19 44-43 44z m-419 85c26 27 52 42 76 44 19 2 36-4 50-18 29-29 25-69-11-111h-71l31 29c8 9 8 23 0 31-9 9-22 9-31 0l-62-60h-43c15 30 37 61 61 85z m-202-259v130h217v-130h-217z m-111 285c14 14 31 20 50 18 24-2 50-17 76-44 24-24 46-55 61-85h-43l-62 60c-8 9-22 9-31 0-8-8-8-22 1-31l30-29h-71c-36 42-40 82-11 111z m-293-155h361v-130h-339 0-22l0 130z m44-173h360v-379c0-12 10-22 22-22 12 0 21 10 21 22v379h131v-565h-131v185c0 12-9 21-21 21-12 0-22-9-22-21v-185h-360v565z m937-565h-360v565h360v-565z m44 608h-22-338v130h360v-130z" horiz-adv-x="1111" />

<glyph glyph-name="girl" unicode="&#xe80e;" d="M572-150h-553c-4 0-7 1-10 4-3 2-4 6-4 10-4 133 24 198 195 224v58c-23 13-44 28-63 47-38 37-65 83-72 120-9 1-17 4-23 10-48 41-70 232 17 365 65 98 161 162 246 162h1c43 0 79-18 101-50l0-1c16-26 26-50 31-73 74-30 109-64 114-166 28-26 39-69 36-110-4-50-27-88-59-97 0-7 0-14-1-22 0-1-1-3-2-5 0-1-2-3-3-4-2-1-3-2-5-3-2 0-4 0-5 0-2 0-4 1-6 2-1 0-3 2-4 3-1 2-2 3-3 5 0 2 0 4 0 5 1 9 1 18 0 27 0 2 0 3 0 4 0 0 0 1 0 1-8 81-77 171-155 199-21-13-45-26-69-39-89-47-180-95-185-193 0-33 26-82 66-120 46-45 101-69 151-68 55 4 75 20 123 58l2 1c3 2 6 3 10 3 4 0 7-2 9-5 3-3 4-7 3-10 0-4-2-7-5-10l-1-1c-18-14-33-26-48-35v-58c82-11 131-32 157-70 27-38 28-90 28-154 0-4-1-7-4-10-2-3-6-4-10-4z m-539 28h525c0 114-12 166-172 184-4 0-7 2-9 4-3 3-4 6-4 9v56c-20-8-42-13-63-14h-1c-28 0-55 5-81 15v-56c0-4-1-7-3-10-2-2-6-4-9-4-163-22-185-74-183-184z m273 944h-1c-62 0-154-46-222-149-81-125-57-299-23-329 1-1 2-2 4-2 9 108 110 162 199 209 26 14 50 27 72 41 61 39 84 75 77 122 0 0 0 0 0 0-4 21-13 45-29 70-21 32-53 38-77 38z m67-238c76-36 139-121 153-202 19 9 32 41 34 71 2 33-6 67-28 87-2 1-4 2-5 4-8 5-17 9-27 11-4 0-7 2-9 5-3 3-4 7-3 11 1 3 3 7 6 9 3 2 6 3 10 2 6-1 12-2 18-4-6 66-28 92-81 116-1-50-33-85-68-110z m470-733c-8 0-16 2-23 6-7 4-13 9-17 16l-117 175c-6 7-9 16-11 25-1 2-1 4-2 6-1 3-3 7-5 9-4 4-6 6-8 8l-38-22c-4-3-8-4-12-5-5 0-9 0-14 1-4 1-8 3-12 6-3 2-6 6-9 9l-58 98c-5 8-6 17-4 26 2 9 8 16 16 21l7 4-3 5c-5 8-6 17-4 26 2 8 8 16 16 20l3 2-2 3c-1 2-2 3-2 5-1 2-1 4 0 6 0 2 1 4 2 5 1 2 3 3 4 4 2 1 4 2 6 2 2 0 4 0 5-1 2 0 4-1 5-2 2-2 3-3 4-5l2-3 14 9-2 2c-1 2-2 4-2 6-1 2-1 3 0 5 0 2 1 4 2 6 1 1 3 2 4 3 2 1 4 2 6 2 2 0 4 0 5 0 2-1 4-2 5-3 2-1 3-3 4-4l2-3 14 8-2 3c-1 1-2 3-2 5-1 2-1 4 0 6 0 2 1 3 2 5 1 2 3 3 4 4 2 1 4 1 6 2 2 0 4 0 5-1 2 0 4-1 5-2 2-2 3-3 4-5l2-3 4 3c8 4 17 5 26 3 9-2 16-8 21-15l3-6 1 1c4 3 9 4 13 5 5 0 9 0 13-1 5-1 9-3 12-6 4-2 7-6 9-10l59-97c5-8 6-17 4-26-3-8-8-16-16-20l-36-21 3-9c1-4 4-9 7-12l7-6c5-4 8-9 11-14l104-188c16-27 2-54-20-67-9-6-19-9-30-9z m-181 276c3 0 6-1 8-3 6-4 12-10 18-16 6-6 10-14 12-22 1-2 1-4 2-6 1-6 4-12 7-17l118-175 0 0c8-14 24-9 32-4 3 1 19 12 10 28l0 1-104 188c-2 3-3 5-6 7l-6 6c-8 7-13 16-16 25l-6 19c0 3 0 6 1 9 1 3 3 6 6 7l45 27c1 0 1 1 2 1 0 1 0 2 1 2 0 1 0 2 0 3 0 1-1 1-1 2l-59 98c-1 1-2 2-4 2-1 1-3 0-4 0l-2-1 22-36 19-33c3-4 4-8 5-12 0-5 0-9-1-14-1-4-3-8-6-12-2-3-6-6-10-8l-107-64c-8-4-17-6-26-3-9 2-16 8-21 15l-19 33-22 36-7-4c-1-1-2-3-3-4 0-2 0-3 1-5l59-97c0-1 1-1 1-2 1 0 2-1 2-1 1 0 2 0 3 0 1 0 1 0 2 1l47 27c2 1 4 2 7 2z m-59 49l12-21c1-1 3-2 4-2 2-1 3-1 5 0l107 64c1 0 1 0 2 1 0 1 0 1 1 2 0 1 0 2 0 3 0 0-1 1-1 2l-12 20-9-5 2-4c2-3 2-7 1-10-1-4-3-7-6-8-3-2-7-3-11-2-3 1-6 3-8 6l-3 4-13-8 2-4c1-2 2-4 2-6 1-1 0-3 0-5 0-2-1-4-2-5-1-2-3-3-4-4-2-1-4-2-6-2-2 0-4 0-6 0-1 1-3 2-5 3-1 1-2 3-3 4l-3 4-13-8 2-4c1-1 2-3 2-5 1-2 0-4 0-6 0-1-1-3-2-5-1-1-3-3-4-3-2-1-4-2-6-2-2-1-4 0-6 0-1 1-3 1-5 3-1 1-2 2-3 4l-3 4-8-5z m-36 60l21-36 9 5-4 6c-2 3-2 7-1 10 1 4 3 7 6 8 3 2 7 3 10 2 4-1 7-3 9-6l4-6 13 8-3 7c-2 3-2 6-1 10 1 3 3 6 6 8 3 2 7 2 10 2 4-1 7-3 9-6l4-7 13 8-3 7c-1 1-2 3-3 5 0 2 0 4 1 6 0 2 1 3 2 5 1 1 2 3 4 4 2 1 4 1 5 2 2 0 4 0 6-1 2 0 4-1 5-3 2-1 3-2 4-4l4-6 9 5-22 36-10 17c-1 2-2 2-4 3-1 0-3 0-4-1l-4-2 4-7c2-4 2-7 1-11-1-3-3-6-6-8-3-2-7-2-10-2-4 1-7 3-9 6l-4 8-14-8 4-8c1-1 2-3 2-5 1-2 1-4 0-6 0-1-1-3-2-5-1-1-3-3-4-4-2-1-4-1-6-1-2-1-3-1-5 0-2 0-4 1-5 3-2 1-3 2-4 4l-4 7-14-8 4-7c10-16-15-29-24-14l-4 7-3-2c-2 0-3-2-3-3-1-2 0-3 0-5l11-17z" horiz-adv-x="900" />

<glyph glyph-name="girl2" unicode="&#xe80f;" d="M571-150h-552c-4 0-7 1-10 4-3 2-4 6-4 10-4 133 24 198 195 224v58c-23 13-44 28-63 47-39 37-65 83-72 120-9 1-17 4-23 10-48 41-70 232 17 365 65 98 161 162 245 162h1c44 0 80-18 101-50l1-1c16-26 25-50 30-73 74-30 109-64 114-166 28-26 39-69 36-110-4-50-27-88-59-97 0-7 0-14-1-22 0-1-1-3-2-5 0-1-2-3-3-4-2-1-3-2-5-3-2 0-4 0-5 0-2 0-4 1-6 2-1 0-3 2-4 3-1 2-2 3-3 5 0 2 0 4 0 5 1 9 1 18 0 27 0 2 0 3 0 4 0 0 0 1 0 1-8 81-77 171-155 199-21-13-44-26-69-39-88-47-180-95-184-193 0-33 26-82 66-120 45-45 100-69 150-68 56 4 75 20 124 58l1 1c3 2 6 3 10 3 4 0 7-2 10-5 2-3 3-7 3-10-1-4-3-7-6-10l-1-1c-18-14-33-26-48-35v-58c82-11 131-32 157-70 26-38 28-90 28-154 0-4-1-7-4-10-3-3-6-4-10-4z m-538 28h524c0 114-12 166-172 184-4 0-7 2-9 4-2 3-4 6-4 9v56c-20-8-41-13-63-14h0c-28 0-56 5-81 15v-56c0-4-1-7-4-10-2-2-5-4-8-4-163-22-185-74-183-184z m272 944h0c-62 0-155-46-222-149-81-125-57-299-23-329 1-1 2-2 3-2 10 108 110 162 199 209 26 14 51 27 73 41 60 39 83 75 76 122 0 0 0 0 0 0-3 21-13 45-28 70-21 32-54 38-78 38z m67-238c76-36 139-121 153-202 19 9 31 41 34 71 2 33-6 67-28 87-2 1-4 2-5 4-8 5-17 9-27 11-4 0-7 2-9 5-3 3-4 7-3 11 1 3 3 7 6 9 3 2 6 3 10 2 6-1 12-2 18-4-6 66-28 92-81 116-1-50-33-85-68-110z m522-646l-80-81c-4-5-10-7-16-7-5 0-11 2-15 6l-18 17c-4 4-6 9-6 15 0 6 2 12 6 16l30 31-13 12-61-62c-1-1-3-3-4-3-2-1-4-2-6-2-2 0-4 0-5 1-2 1-4 2-5 3-2 1-3 3-3 5-1 2-2 3-1 5 0 2 0 4 1 6 1 2 2 3 3 4l21 22-197 191c-4 4-7 9-7 15 0 6 2 12 7 16l-17 16c-4 4-7 10-9 16l-2 14c0 0 0 1-1 1l-13 13c-4 4-7 9-7 15 0 6 2 11 5 15l-51 50c-3 3-4 7-4 10 0 4 1 7 4 10 2 2 6 4 9 4 4 0 8-1 10-4l52-50c4 4 10 6 15 6 6 0 12-2 16-6l13-13c0 0 1 0 1 0l14-2c7 0 14-3 19-8l16-16c4 4 9 6 15 5 5 0 10-2 14-6l197-190 19 18c2 3 6 4 9 4 4 0 7-2 10-4 3-3 4-6 4-10 0-3-1-7-3-9l-58-60 13-12 30 30c4 5 10 7 15 7 6 0 12-2 16-6l17-17c5-4 7-10 7-15 0-6-2-12-6-16z m-96-58l71 73-8 8-72-72 9-9z m-26 96l30 31-134 130-60-62 29-28 22 23c3 3 6 4 10 4 3 0 7-2 9-4 3-3 4-6 5-9 0-4-2-8-4-10l-22-23 31-31 23 23c3 3 6 4 10 4 3 0 7-2 9-4 3-3 4-6 4-10 1-3-1-7-3-9l-22-23 33-32 30 30z m-184 119l60 61-39 38-60-62 39-37z m-44 73l31 31-16 16c0 0-1 0-1 0l-15 2c-6 0-13 3-18 8l-9 9-10-10 10-10c4-4 7-9 8-15l3-15c0 0 0 0 1-1l16-15z" horiz-adv-x="900" />

<glyph glyph-name="girl3" unicode="&#xe810;" d="M702-150h-541c-4 0-7 1-10 4-3 2-4 6-4 10-4 133 23 198 191 224v58c-29 17-56 39-78 64-1 2-2 3-2 5-1 2-1 4-1 5 0 2 0 4 1 6 1 1 2 3 3 4 2 1 3 2 5 3 2 0 4 1 5 0 2 0 4 0 6-1 1-1 3-2 4-3 47-54 107-85 163-84 0 0 0 0 0 0 24 1 47 7 68 19 1 1 3 2 5 3 52 30 85 82 85 82 1 2 2 3 4 5 1 1 3 1 5 2 2 0 3 0 5 0 2 0 4-1 5-2 2-1 3-2 4-4 1-1 2-3 3-5 0-2 0-4 0-5-1-2-2-4-3-6-2-3-35-56-90-89v-57c80-11 128-32 153-70 26-38 28-90 28-154 0-4-1-7-4-10-3-3-6-4-10-4z m-528 28h515c0 114-13 166-169 184-4 0-7 2-9 4-2 3-4 6-4 9v56c-20-9-41-13-63-14-27 0-54 5-79 16v-57c0-4-1-7-3-10-2-2-5-4-8-4-160-22-181-74-180-184z m451 547c-2 0-5 0-7 2-2 1-4 3-5 6-28 62-79 112-133 132-21-13-44-26-68-39-52-28-105-57-141-97-1-1-2-2-4-3-1-1-3-2-5-2-2 0-4 0-5 1-2 1-4 2-5 3-2 1-3 3-3 4-1 2-2 4-2 6 0 1 0 3 1 5 1 2 2 3 3 5 38 44 94 74 148 103 26 14 50 27 71 41 60 39 82 75 75 122 0 0 0 0 0 0-3 21-13 45-28 70-20 32-53 38-76 38-61 0-152-46-218-149-33-53-52-122-53-193 0-4-2-8-4-10-3-3-6-4-10-4-4 0-7 1-10 4-2 3-4 6-4 10 1 77 22 151 58 208 63 98 158 162 241 162h0c43 0 78-18 99-50l1-1c15-26 25-50 30-73 72-30 106-64 111-166 30-27 40-74 35-117-1-3-2-7-5-9-3-2-7-3-10-3-4 0-7 2-10 5-2 3-3 7-3 11 4 34-3 72-27 93-1 1-3 2-4 4-8 5-17 9-27 11-1 0-3 1-5 2-1 1-3 2-4 3-1 2-2 3-2 5 0 2 0 4 0 6 0 1 1 3 2 5 1 1 2 3 3 4 2 1 3 2 5 2 2 1 4 1 6 0 6-1 12-2 17-4-6 66-28 92-79 116-2-50-33-84-67-110 54-26 103-77 131-140 1-3 1-7 0-11-1-3-4-6-7-7-2-1-4-2-6-1v0z m-396-340c-68 0-204 75-227 158-1 4-2 8-2 12v345c0 4 2 7 4 10 3 3 6 4 10 4 4 0 7-1 10-4 2-3 4-6 4-10v-345c0-1 0-3 0-5 22-75 157-142 207-137 13 2 13 7 13 9 0 1 0 1 1 2-3 8-25 27-41 41-32 27-72 61-85 97 0 1 0 2-1 3-2 16-3 33-1 50 1 6 1 12 1 19 0 2 1 5 2 7 1 2 3 4 5 6 5 4 22 17 108-36 3-1 6 0 9 1 4 1 6 3 8 6 1 3 5 10-1 16-3 3-41 35-79 50-16 6-34 8-52 7-3 0-5 0-8 1-2 1-4 2-6 4-2 2-3 4-4 6-1 2-1 5-1 7v191c0 4 1 7 4 10 2 3 6 4 9 4 4 0 7-1 10-4 3-3 4-6 4-10v-181c19 0 37-3 54-9 43-17 85-53 87-55l0 0c15-13 17-34 6-52-5-8-13-15-23-18-9-3-20-3-29 1-1 0-1 1-2 1-28 17-59 32-74 36 0-4 0-7 0-10-2-14-2-28 0-42 11-29 47-60 76-85 33-29 55-48 51-67-1-10-7-30-38-33-3-1-6-1-9-1z m417 0c-3 0-6 0-9 1-31 3-36 23-38 33-4 19 18 38 51 67 29 25 65 56 76 85 2 14 2 28 0 41 0 4 0 7 0 11-15-4-46-19-74-36-1 0-1-1-2-1-9-4-19-4-29-1-10 3-18 10-23 18-11 18-9 39 6 52l0 0c2 2 44 38 87 55 17 6 36 9 54 9v181c0 4 1 7 4 10 3 3 6 4 10 4 3 0 7-1 10-4 2-3 4-6 4-10v-191c0-2-1-5-2-7-1-2-2-4-4-6-2-2-4-3-6-4-3-1-5-1-8-1-18 1-35-1-52-7-38-15-76-47-79-50-6-6-2-13-1-16 2-3 4-5 8-6 3-2 6-2 9-1 86 53 103 40 109 36 2-2 3-4 4-6 1-2 2-5 2-8 0-6 1-12 1-19 2-16 1-33-1-49 0-1-1-2-1-3-13-36-52-70-84-98-16-14-38-33-41-40 0-1 0-1 0-2 0-3 0-7 13-9 50-5 186 62 207 137 0 2 1 4 1 5v345c0 4 1 7 4 10 2 3 6 4 9 4 4 0 8-1 10-4 3-3 4-6 4-10v-345c0-4 0-8-1-12-24-83-159-158-228-158z" horiz-adv-x="875" />

<glyph glyph-name="herz" unicode="&#xe811;" d="M1314 427c-11 0-20-9-20-20v-23h-65c-2 6-4 12-6 17 2 2 3 4 4 7 36 115 5 240-82 326-123 122-324 122-447 0l-17-17c-13-13-35-13-48 0l-17 17c-51 50-118 82-188 89-70 8-141-8-201-44-9-5-12-17-6-26 5-10 17-13 26-7 110 66 250 50 341-40l18-17c28-28 74-28 103 0l17 17c108 107 284 107 392 0 69-69 98-166 79-260-5 6-11 12-17 17-48 42-126 110-153 133-12 11-32 11-44-1l0 0c-28-28-31-72-6-103l41-49c1-2 1-4 0-5 0-2-2-4-5-4h-228c-32 0-58-25-58-57 0-6 1-12 3-18-30-2-53-26-53-56 0-32 25-57 57-57h21c-1-6-2-12-2-18 0-30 23-55 53-57-2-6-3-12-3-18 0-31 26-57 57-57l68 0c-52-45-108-86-165-122l-88-55c-11-7-25-7-36 0l-88 55c-57 36-113 77-164 122l86 0c32 0 57 26 57 57 0 6-1 12-3 18 30 2 54 27 54 57 0 6-1 12-3 18h21c32 0 58 25 58 57 0 30-24 54-54 56 2 6 3 12 3 18 0 32-26 57-57 57h-229c-3 0-4 2-5 4-1 1 0 3 1 5l40 49c25 31 23 75-6 103l0 0c-12 12-31 12-44 1-26-23-105-91-153-133-12-11-22-23-31-37-28 99 0 207 74 280 8 8 8 20 1 28-8 7-20 8-28 0-91-90-121-225-76-343 1-3 2-5 4-7h-58v23c0 11-9 20-19 20-11 0-20-9-20-20v-292c0-11 9-19 20-19 10 0 19 8 19 19v31h92c40 0 80-10 115-27 26-13 53-20 82-23 2-1 4-4 7-6 6-6 12-12 16-15 56-49 117-94 180-134l87-55c12-8 25-11 39-11 14 0 27 3 39 11l87 55c72 45 140 97 202 153 0 1 1 1 1 2l2 0c34 0 69 8 99 23 36 17 75 27 115 27h92v-31c0-11 9-19 20-19 11 0 19 8 19 19v292c0 11-8 20-19 20z m-969-292c-28 0-56 6-81 19-41 20-87 31-133 31h-92v160h82c9 0 18 7 19 17 4 28 18 53 39 71 45 40 117 103 148 130 10-14 10-33-1-46l-40-49c-11-14-14-32-6-47 7-16 23-26 40-26h229c10 0 18-8 18-18 0-9-7-17-17-17l-202-1c-11 0-19-8-19-19 0-11 8-20 19-20 0 0 0 0 0 0l199 1c1 0 1 0 2 0h50c10 0 19-8 19-18 0-10-9-18-19-18h-167l-84 0c-11 0-20-9-20-20 0-11 9-19 20-19h176c10 0 18-8 18-18 0-10-8-18-18-18l-176 0c-11 0-19-9-19-20 0-11 8-19 19-19 0 0 0 0 0 0l125 0c10 0 18-8 18-18 0-10-8-18-18-18l-128 0z m949 50h-92c-45 0-91-11-132-31-25-13-54-19-82-19l-128 0c-10 0-18 8-18 18 0 10 8 18 18 18h41l84 0c0 0 0 0 0 0 11 0 20 8 20 19 0 11-9 20-20 20l-175 0c-10 0-18 8-18 18 0 10 8 18 18 18h176c11 0 20 8 20 19 0 11-9 20-20 20l-85 0h-167c-10 0-18 8-18 18 0 10 8 18 18 18h49c1-1 1-1 1-1l201 0c0 0 0 0 0 0 11 0 20 9 20 20 0 11-9 19-20 19l-199 1c-1 0-1 0-1 0-10 0-19 8-19 17 0 10 9 18 19 18h228c18 0 33 10 41 26 7 15 5 33-6 47l-40 49c-11 13-11 32-1 46 30-27 103-90 148-130 21-18 34-43 38-71 2-10 10-17 20-17h81v-160z" horiz-adv-x="1333" />

<glyph glyph-name="insta" unicode="&#xe812;" d="M500 600c-139 0-250-111-250-250 0-138 111-250 250-250 139 0 250 112 250 250 0 139-111 250-250 250z m0-413c-90 0-163 73-163 163 0 90 73 163 163 163 90 0 163-73 163-163 0-90-73-163-163-163z m261 482c-33 0-59-26-59-58 0-33 26-59 59-59 32 0 58 26 58 59 0 7-1 15-4 22-3 7-8 14-13 19-5 5-12 10-19 13-7 3-15 4-22 4z m227-319c0 67 1 134-3 201-4 79-22 148-79 205-57 57-126 75-204 79-68 4-135 3-202 3-67 0-134 1-201-3-78-4-148-22-205-79-57-57-75-126-79-205-3-67-3-134-3-201 0-67 0-134 3-201 4-78 22-148 79-205 57-57 127-75 205-79 67-4 134-3 201-3 68 0 134-1 202 3 78 4 147 22 204 79 57 57 75 127 79 205 4 67 3 134 3 201z m-107-288c-9-22-20-39-37-56-17-17-34-28-56-37-64-25-217-19-288-19-71 0-224-6-288 19-22 9-39 20-56 37-17 17-28 34-37 56-25 64-19 217-19 288 0 71-6 224 19 288 9 22 20 39 37 56 17 17 34 28 56 37 64 25 217 19 288 19 71 0 224 6 288-19 22-9 39-20 56-37 17-17 28-34 37-56 25-64 19-217 19-288 0-71 6-224-19-288z" horiz-adv-x="1000" />

<glyph glyph-name="knife" unicode="&#xe813;" d="M542 295c-25 0-51 2-76 6-3 0-5 2-7 3-2 2-4 4-5 7-1 3-1 5 0 8 0 3 2 5 4 7l195 195c-3 0-5 2-6 4-2 2-3 4-4 6 0 3 0 5 1 8 0 2 2 4 3 6l113 112 42 41c0 1 1 1 1 2 1 0 2 1 2 1l131 130c29 29 69 22 92 0 24-22 29-54 10-76l-1-1c-1-1-72-76-138-144-1-3-4-6-7-8-14-14-27-27-39-39-14-15-26-27-35-36-3-3-5-4-8-6-3-1-6-1-9-1h-40c-16-15-30-32-32-39 2-2 4-4 6-7 6-7 20-24 6-41-10-12-99-118-143-132-18-4-37-7-56-6z m-41 32c31-3 68-3 88 3 23 8 82 67 127 120-1 2-3 4-5 5-5 7-12 15-12 26 0 12 10 26 20 39h-24l-194-193z m254 223h43c7 6 15 14 24 23l-51 52-76-75h60z m37 96l51-51 21 22-50 51-22-22z m43 43l50-50c61 62 125 129 130 135 10 12 3 26-7 35-10 9-32 19-51 0l-122-120z m172-839h-970c-10 0-19 4-26 10-7 7-11 17-11 26v447c0 9 4 19 11 26 7 6 16 10 26 10h380c4 0 8-1 10-4 3-3 5-7 5-11 0-4-2-8-5-10-2-3-6-5-10-5h-380c-2 0-4 0-5-2-1-1-2-3-2-4v-101c13-6 39-15 65-7 15 5 30 10 44 17 36 15 52 33 91 26 17-3 33-9 48-19 20-11 40-23 94-23 43 0 59 10 76 20 17 10 38 23 83 23 48 0 69-14 88-25 16-10 29-18 58-18 29 0 39 7 52 17 16 12 34 26 84 26 53 0 75-16 93-28 13-9 22-15 41-15 24-1 47 6 67 20v87c0 2-1 3-2 5-1 1-3 1-5 1h-269c-4 0-8 2-11 5-3 3-4 6-4 10 0 4 1 8 4 11 3 3 7 4 11 4h269c10 0 19-3 26-10 7-7 11-16 11-26v-447c0-4-1-9-3-14-2-4-4-8-8-11-3-4-7-7-12-8-4-2-9-3-14-3z m-977 350v-314c0 0 0-1 1-2 0-1 0-2 1-2 1-1 1-1 2-2 1 0 2 0 3 0h970c2 0 4 0 5 2 1 1 2 3 2 4v324c-21-10-44-15-67-15-29 0-44 11-58 21-16 11-32 22-76 22-40 0-53-9-66-20-14-10-31-23-70-23-38 0-57 12-74 23-17 10-33 20-72 20-37 0-51-8-67-18-19-12-41-25-92-25-62 0-87 15-109 28-12 7-22 13-38 16-30 5-40-10-74-25-15-7-31-13-48-18-24-6-49-5-73 4z m63-134c-6 0-12 2-17 5-5 3-9 8-11 14-2 5-3 11-2 17 2 6 4 11 9 15 4 5 9 7 15 9 6 1 12 0 18-2 5-2 10-6 13-11 3-5 5-11 5-17 0-8-3-16-9-21-5-6-13-9-21-9z m132-123c-6 0-12 1-17 5-5 3-9 8-11 13-3 6-3 12-2 17 1 6 4 12 8 16 4 4 10 7 16 8 6 1 12 1 17-2 6-2 10-6 14-11 3-5 5-10 5-16 0-8-3-16-9-22-6-5-13-8-21-8z m124 138c-6 0-12 2-17 5-5 3-9 8-11 14-2 5-3 11-2 17 1 6 4 11 8 15 5 4 10 7 16 9 6 1 12 0 17-2 6-2 10-6 14-11 3-5 5-11 5-17 0-8-3-16-9-21-6-6-13-9-21-9z m135-138c-6 0-12 1-17 5-5 3-9 8-11 13-3 6-3 12-2 17 1 6 4 12 8 16 4 4 10 7 16 8 6 1 12 1 17-2 6-2 10-6 14-11 3-5 5-10 5-16 0-8-3-16-9-22-6-5-13-8-21-8z m120 138c-6 0-11 2-16 5-5 3-9 8-11 14-3 5-3 11-2 17 1 6 4 11 8 15 4 4 10 7 16 9 5 1 11 0 17-2 5-2 10-6 14-11 3-5 5-11 5-17 0-8-4-16-9-21-6-6-14-9-22-9z m151-138c-6 0-12 1-17 5-5 3-9 8-11 13-2 6-3 12-2 17 2 6 5 12 9 16 4 4 9 7 15 8 6 1 12 1 18-2 5-2 10-6 13-11 3-5 5-10 5-16 0-8-3-16-9-22-5-5-13-8-21-8z m156 138c-6 0-12 2-17 5-5 3-8 8-11 14-2 5-3 11-1 17 1 6 4 11 8 15 4 4 9 7 15 9 6 1 12 0 18-2 5-2 10-6 13-11 4-5 5-11 5-17 0-8-3-16-9-21-5-6-13-9-21-9z" horiz-adv-x="1050" />

<glyph glyph-name="laser" unicode="&#xe814;" d="M986-23h0c-68 2-92 27-113 78-27-4-55 2-64 26-1 1-1 1-1 2l-10 38c0 0 0 0 0 0l-29 117c-13-2-31-3-46 6-9 5-20 16-23 38-3 20 4 32 11 38 9 9 21 14 33 15-1 4-4 7-7 9-3 3-6 4-10 4h-200c-12 0-24 5-33 13-8 9-13 21-13 33v14h-30c-9 0-18 4-24 10-7 7-10 15-10 25v94c0 9 3 18 10 24 6 7 15 10 24 10h30c0 10 4 20 10 27 6 8 15 13 24 15 1 1 2 1 2 1l283 22c1 0 2 0 2 0 7 0 15-2 21-5 54-28 88-60 135-127 6-8 8-18 8-27 0-10-4-20-10-28l-66-84c-2-2-3-5-3-7-1-3-1-5 0-8l22-108c0 0 0 0 0 0l26-123c6-23-8-44-35-56 17-42 35-56 86-58 4 0 8-1 10-4 3-3 4-6 4-10 0-4-1-7-4-10-3-3-6-4-10-4l0 0z m-151 114c4-9 23-12 43-6h0c17 5 33 15 30 28l-17 82c-18-34-36-54-63-76l7-28z m-43 168l28-110c24 22 40 43 61 91l-22 104c-1 7-1 14 0 20 2 7 5 13 9 18l66 85c3 3 4 7 4 10 0 4-1 8-3 11-44 63-75 93-124 118-3 1-6 2-9 2l-281-22c-3-1-6-4-9-7-2-3-3-6-3-10v-175c0-5 2-9 5-13 4-3 8-5 13-5h200c10 0 20-3 28-10 8-6 14-15 16-25l4-15c0-1 0-1 0-1l17-66c0 0 0 0 0 0z m-41 49c-7-1-16-2-20-7-2-1-5-5-4-16 2-13 8-16 10-17 7-4 17-4 25-3l-11 43z m-300 235c-2 0-3 0-4-2-1-1-2-2-2-4v-94c0-2 1-4 2-5 1-1 2-2 4-2h30v107h-30z m337-107c-3 0-6 1-8 3-3 2-5 4-6 7l-34 94c0 2-1 4-1 6 0 2 1 4 2 5 0 2 2 4 3 5 1 1 3 2 5 3 1 0 3 1 5 1 2 0 4-1 6-2 1-1 3-2 4-3 1-2 2-3 3-5l34-95c1-2 1-4 1-6-1-3-2-5-3-7-1-1-3-3-5-4-2-1-4-2-6-2z m-81 0c-2 0-5 1-8 3-2 2-4 4-5 7l-34 94c0 2-1 4-1 6 0 2 1 4 1 5 1 2 2 4 4 5 1 1 3 2 4 3 2 0 4 1 6 1 2 0 4-1 5-2 2-1 4-2 5-3 1-2 2-3 3-5l34-95c0-2 1-4 0-6 0-3-1-5-2-7-1-1-3-3-5-4-2-1-4-2-7-2z m-148-586c-2 0-5 0-7 1-8 2-29 9-63 22-34 12-78 28-94 32-29 8-113 22-139 26-21 4-58 9-64 57-4 37 11 76 18 89 3 4 5 7 8 10 2 4 2 4 2 5 0 9-15 93-27 144-11 45-45 110-59 133-13 22-42 85-42 130 0 19 2 39 5 58l-74-57c-2-1-4-2-5-3-2 0-4 0-6 0-2 0-3 1-5 2-2 1-3 2-4 3-1 2-2 3-2 5-1 2-1 4-1 6 0 2 1 3 2 5 1 2 2 3 4 4l102 79c2 1 5 2 8 3 2 0 5-1 8-3 2-1 4-3 5-6 1-3 2-6 1-8-6-29-9-59-10-88 0-37 25-93 38-116 15-24 50-92 62-141 12-47 29-137 29-150 0-8-4-17-10-23-2-2-3-4-4-6-5-8-18-42-15-72 3-22 13-28 41-32 27-5 111-18 141-27 18-4 60-20 97-33 26-9 53-19 60-21h0c3 4 4 9 4 14-1 5-15 17-26 27-6 5-11 10-17 16-15 13-62 49-100 78-37 28-56 42-61 47-18 19-29 45-32 71 0 9-1 28-1 55-2 64-4 160-11 212-10 73-33 241-42 298-8 57-21 91-64 119-29 19-119-3-189-33-4-2-8-2-11 0-4 1-6 4-8 7-1 4-1 8 0 11 1 4 4 6 8 8 16 7 160 66 215 31 57-37 69-87 77-139 8-57 32-225 42-298 7-54 9-151 10-216 1-25 1-45 2-53 2-20 10-38 24-53 4-4 32-25 57-44 41-31 87-66 103-81 6-5 11-10 16-14 22-20 36-33 36-48 0-12-4-28-15-37-5-4-11-6-17-6z" horiz-adv-x="1000" />

<glyph glyph-name="offer" unicode="&#xe815;" d="M296 416l0 0c-2-44 22-84 62-103l0-1c14-6 26-17 33-31l0-1c20-38 62-61 106-59l1 0c16 1 32-3 46-11 37-24 85-24 122 0 14 8 30 12 46 11l1 0c44-2 85 21 106 60l0 0c7 14 19 25 33 31l0 1c40 19 64 59 62 103l0 0c-1 15 3 30 12 43 24 36 24 84 0 120-9 13-13 28-12 43l0 0c2 44-22 84-62 103l0 1c-14 6-26 17-33 31l0 1c-21 38-62 61-106 59l-1 0c-16-1-32 3-46 12h0c-37 23-85 23-122 0-14-9-30-13-46-12l-1 0c-44 2-86-21-106-59l0-1c-7-14-19-25-33-31l0-1c-40-19-64-59-62-103l0 0c1-15-3-30-12-43-25-36-25-84 0-120 9-13 13-28 12-43z m19 142c13 19 20 43 18 66l0 1c-1 28 15 55 41 67l0 0c22 10 39 27 50 48l0 0c14 26 42 41 71 39l1 0c24-1 47 5 67 18 26 16 58 16 83 0 21-13 44-19 68-18l1 0c29 2 57-13 71-39l0 0c11-21 28-38 49-48l1 0c26-13 42-39 40-67l0-1c-1-24 6-47 19-66 16-24 16-54 0-78-13-19-20-42-19-66l0-1c2-28-14-54-40-67l-1 0c-21-10-38-27-49-48l0 0c-14-26-42-41-71-39l-1 0c-24 1-47-5-68-18-25-16-57-16-83 0-18 12-39 18-61 18-2 0-4 0-6 0l-1 0c-29-2-57 13-71 39l0 0c-11 21-28 38-50 48l0 0c-26 13-42 39-41 67l0 1c2 24-5 47-18 66-16 24-16 54 0 78v0z m170-231c8-6 20-3 25 5l221 354c4 5 4 13 1 19-3 5-9 9-16 9-7 1-13-3-17-8l-220-354c-6-9-3-20 6-25z m20 191c45 0 82 42 82 94 0 52-37 94-82 94-46 0-83-42-83-94 0-52 37-94 83-94z m0 150c24 0 45-25 45-56 0-31-21-57-45-57-25 0-45 26-45 57 0 31 20 56 45 56z m118-242c0-52 37-94 82-94 46 0 82 42 82 94 0 52-36 94-82 94-45 0-82-42-82-94z m127 0c0-31-20-56-45-56-25 0-45 25-45 56 0 31 20 57 45 57 25 0 45-26 45-57z m248-309c-25 44-80 60-125 38l-145-69c-21 37-59 61-102 62l-134 4c-22 1-43 6-62 16l-13 7c-70 37-154 37-224 0l1 31c0 10-8 19-18 19l-148 4c-10 0-19-8-19-18l-9-324c0-10 8-19 18-19l148-4h0c10 0 19 8 19 18l0 15 39 21c15 8 32 10 49 5l229-64c0 0 1 0 1 0 17-4 33-6 50-6 36 0 72 8 104 23 1 0 2 1 2 1l333 215c8 6 10 16 6 25z m-960-213l8 287 110-3-8-287-110 3z m602 5c-40-18-85-23-129-14l-228 64c-26 7-53 4-77-8l-19-11 5 191c62 41 142 45 208 11l13-7c24-12 51-19 78-20l134-4c38-1 70-28 78-65l-201 6c-10 0-18-8-19-18 0-11 8-19 18-20l222-6h0c10 0 19 8 19 18 0 9-1 17-2 25l150 70 0 0c21 11 47 8 64-9l-314-203z" horiz-adv-x="1000" />

<glyph glyph-name="obesity" unicode="&#xe816;" d="M525-60h-389c-36 0-71 14-96 40-26 25-40 59-40 95l0 640c0 36 14 70 40 96 25 25 60 39 96 39l623 0c36 0 71-14 96-39 26-26 40-60 40-96v-391c0-4-2-8-5-11-3-4-8-5-12-5-5 0-9 1-12 5-3 3-5 7-5 11v391c0 14-3 27-8 39-5 12-12 23-22 33-9 9-21 17-33 22-13 5-26 7-39 7h-623c-27 0-53-10-72-29-19-19-30-45-30-72v-640c0-27 11-53 30-72 19-19 45-29 72-29h389c5 0 9-2 12-5 4-3 5-8 5-12 0-5-1-9-5-12-3-3-7-5-12-5z m-77 395c-45 0-88 13-125 37-37 25-65 59-82 100-17 40-22 85-13 128 9 43 30 82 61 113 32 31 71 52 115 61 43 8 88 4 129-13 41-17 76-45 101-82 24-36 37-79 37-123 0-58-23-115-65-156-42-42-99-65-158-65z m0 409c-38 0-75-11-106-32-31-20-55-49-70-84-14-34-18-72-11-108 8-37 26-70 52-96 27-27 61-45 98-52 36-7 74-3 109 11 35 14 64 38 85 69 21 31 32 67 32 104 0 50-20 98-55 133-36 35-84 55-134 55z m53-732h-306c-30 0-59 12-80 33-20 21-32 49-32 78 0 84 0 205 0 280 0 9 3 17 8 24 6 7 14 11 22 13 76 12 120-30 163-71l2-1c40-38 85-81 167-81 81 0 126 43 170 86l1 0c22 21 45 44 72 57 30 16 65 20 97 11 8-3 15-7 20-14 5-6 7-14 7-22v-70c0-4-1-8-5-11-3-4-7-5-12-5-4 0-9 1-12 5-3 3-5 7-5 11v70c0 1 0 3-1 3-25 7-51 4-73-7-22-12-43-31-64-52l-1-1c-47-44-100-95-194-95-95 0-148 50-191 90l-2 2c-42 39-75 71-133 61-1 0-2-1-2-3 0-75 0-196 0-280 0-20 8-40 23-54 14-15 34-23 55-23h306c5 0 9-2 12-5 3-3 5-7 5-12 0-4-2-9-5-12-3-3-7-5-12-5l0 0z m-39 609v53c0 5-2 9-5 12-3 4-7 5-12 5-4 0-9-1-12-5-3-3-5-7-5-12v-53c-15-4-29-13-38-26-8-13-12-29-10-45 2-15 10-30 22-40 12-11 27-16 43-16 16 0 31 5 43 16 12 10 20 25 22 40 2 16-1 32-10 45-9 13-23 22-38 26z m-17-93c-6 0-12 1-17 5-6 3-10 8-12 14-3 6-3 12-2 18 1 6 4 12 9 16 4 4 10 7 16 8 6 2 12 1 18-1 6-3 11-7 14-12 4-5 6-11 6-17 0-8-4-16-10-22-6-6-14-9-22-9z m329-678c-44 0-88 13-125 38-37 24-66 59-83 100-17 41-22 86-13 129 9 43 30 83 62 114 31 32 72 53 115 62 44 8 90 4 131-13 41-17 76-46 101-83 25-36 38-79 38-124 0-59-24-116-66-158-42-41-100-65-160-65z m0 413c-37 0-75-11-106-32-32-21-56-50-71-85-14-35-18-73-11-110 8-36 26-70 53-97 27-26 61-44 98-52 37-7 76-3 111 11 35 14 65 39 86 70 21 31 32 68 32 105 0 51-20 99-56 134-36 36-85 56-136 56z m0-264c-4 0-8 2-12 6-3 3-5 7-5 11v186c0 5 2 9 5 12 4 3 8 5 12 5 5 0 9-2 12-5 4-3 5-7 5-12v-186c0-4-1-8-5-11-3-4-7-6-12-6z m0-71c12 0 21 9 21 20 0 11-9 21-21 21-11 0-20-10-20-21 0-11 9-20 20-20z" horiz-adv-x="1000" />

<glyph glyph-name="osteoporosis" unicode="&#xe817;" d="M91 406c-3 0-6 0-8 2l-46 30c-2 1-3 2-4 4-1 2-2 4-2 6 0 2 0 4 1 6 0 2 1 4 3 5 25 27 47 38 96 22 2-1 4-2 6-3 1-2 2-4 3-6 1-2 1-4 0-7 0-2-1-4-2-6l-36-48c-1-2-3-3-5-4-2-1-4-1-6-1z m-24 46l20-13 16 20c-16 3-26 1-36-7z m-40-161c-1 0-2 1-3 1-2 0-4 1-6 3-2 1-3 3-4 5-19 40-22 66 10 105 1 1 3 2 4 3 2 1 4 1 6 2 2 0 4-1 6-1 1-1 3-2 4-3l46-44c2-2 3-3 4-5 0-2 1-4 1-6 0-2-1-4-2-5-1-2-2-4-3-5l-54-46c-3-2-6-4-9-4z m10 84c-11-16-11-28-5-46l28 23-23 23z m50-171c-21 0-36 11-53 30-1 2-2 3-2 5-1 2-1 4-1 6 0 2 1 4 2 5 1 2 2 4 4 5l45 34c3 2 7 3 11 2 3 0 7-2 9-5l36-48c1-2 2-4 2-6 1-2 1-4 0-6 0-2-1-4-2-5-2-2-3-3-5-4-19-9-33-13-46-13z m-21 38c11-10 21-13 39-7l-17 23-22-16z m595-37c-14 0-27 5-42 10l-3 1c-3 1-4 2-6 4-1 1-3 3-3 5-1 2-1 4-1 6 0 2 1 4 2 6l36 54c1 2 3 3 5 4 1 2 3 2 5 2 2 1 4 1 6 0 2-1 4-2 5-3l44-40c3-2 4-6 5-9 0-4-1-7-3-10-17-23-34-30-50-30z m-19 32c17-5 27-6 38 5l-21 20-17-25z m78 54c-4 0-7 2-9 4l-52 46c-2 1-3 3-4 5-1 2-1 4-1 6 0 2 0 4 1 6 1 1 2 3 4 4l52 44c1 2 3 3 5 3 2 1 4 1 7 0 2 0 4-1 5-2 2-1 3-3 4-5 24-47 24-71-1-105-1-1-3-3-4-4-2-1-4-1-6-1l-1-1z m-31 60l28-24c7 12 7 24-2 46l-26-22z m-33 47h0c-2 0-4 0-6 1-2 1-4 2-5 4l-40 52c-1 2-2 3-2 5-1 2-1 4-1 6 1 2 1 3 2 5 1 2 3 3 4 4 37 25 61 21 98 1 2-1 4-2 5-4 1-2 2-4 3-6 0-2 0-4-1-6 0-2-1-4-2-5l-44-52c-2-2-3-3-5-4-2-1-4-1-6-1z m-19 62l20-26 21 25c-16 7-27 7-41 1z m-80-39c12 24 14 55 7 93-7 36-35 71-95 117-3 35-1 139 1 205 0 3-1 7-4 10-2 2-6 4-9 4-4 0-8-1-10-4-3-2-5-6-5-9 0-8-6-176 0-215 1-4 3-7 6-9 71-55 85-83 88-104 8-40 4-69-12-88-11-14-27-23-49-30-53-10-75 5-96 20l-1 0c-2 2-4 2-7 3-3 0-5-1-8-2 0-1-67-40-116-19-23 10-39 33-47 68-13 69 43 117 77 146 17 15 25 22 25 33v196c0 4-1 7-4 10-2 3-6 4-9 4-4 0-8-1-10-4-3-3-4-6-4-10v-193c-3-3-10-9-16-15-36-30-102-87-86-173v-1c3-13 7-26 13-38-10-1-21-5-30-12-9-6-16-14-22-23-6-11-9-24-9-37 1-13 5-25 12-36 5-8 12-14 21-19 8-5 17-8 27-9-5-11-9-23-12-35v0c-16-86 50-143 86-174 6-5 13-11 16-14v-193c0-4 1-7 4-10 2-3 6-4 10-4 3 0 7 1 10 4 2 3 4 6 4 10v196c0 11-9 18-26 33-33 28-89 77-76 146 8 35 24 58 46 67 49 22 116-17 116-18 3-1 5-2 8-2 3 1 5 1 8 3l0 0c21 15 43 30 96 20 56-17 74-52 62-118-4-21-18-49-89-104-3-2-5-5-5-9-7-38-1-207 0-215 0-3 1-7 4-9 2-3 6-4 10-4h0c2 0 4 0 5 1 2 1 4 2 5 3 1 2 2 3 3 5 0 2 1 4 1 5-3 66-4 171-1 205 59 46 88 81 94 117 8 41 5 75-10 100 40 8 60 35 62 61 1 29-18 61-59 74z m30-72c-1-17-16-37-56-37-14 11-31 19-49 24l-1 0c-59 12-90-4-112-19-21 11-82 37-133 15-13-5-24-14-34-24-19-2-34 4-42 16-4 6-7 14-7 21 0 8 2 15 6 22 8 15 24 23 46 23 8-10 19-17 31-22 14-6 29-9 44-9 38 0 74 16 90 24 21-14 52-31 111-19l1 0c25 7 44 18 58 33 34-7 49-29 47-48h0z" horiz-adv-x="750" />

<glyph glyph-name="pencil" unicode="&#xe818;" d="M137 191l204-204 521 521-204 204-521-521z m-136-317c-4-18 5-27 23-23l272 91-204 204-91-272z m952 929c-90 91-181 23-181 23-15-12-68-68-68-68l204-204c0 0 56 53 68 68 0 0 68 90-23 181z" horiz-adv-x="1000" />

<glyph glyph-name="phone" unicode="&#xe819;" d="M924 164c-66 0-130 11-189 31-19 6-39 1-54-13l-117-117c-150 77-273 199-349 350l116 117c15 14 20 34 14 53-20 59-31 123-31 189 0 29-23 53-53 53h-185c-29 0-53-24-53-53 0-498 403-901 901-901 29 0 53 24 53 53v185c0 30-24 53-53 53z m-53 186h106c0 264-213 477-477 477v-106c205 0 371-166 371-371z m-212 0h106c0 146-119 265-265 265v-106c88 0 159-71 159-159z" horiz-adv-x="1000" />

<glyph glyph-name="phone-btn" unicode="&#xe81a;" d="M516 850c124-17 236-73 325-162 84-84 139-190 159-307l-77-13c-17 101-65 192-137 265-77 76-174 125-281 140l11 77z m244-661c-32 32-73 32-106 0-24-25-49-50-73-75-7-6-13-8-21-3-6 3-13 6-19 10l0 0c-10 4-20 9-29 15-72 45-132 103-186 169-26 32-49 67-66 106-3 8-3 13 4 20 21 20 42 41 63 62l0 0 10 11c34 34 34 74 0 108-10 10-19 19-29 29l0 0 0 0c-10 10-20 19-29 29-7 7-14 14-20 20-13 14-27 27-40 40-33 32-74 32-106 0-10-10-20-20-30-30-14-15-29-29-44-44-24-22-36-49-38-81-4-52 9-101 26-149 37-98 93-186 160-266 92-109 201-195 328-257 58-28 117-49 182-53 45-2 83 9 114 44 14 15 29 30 44 45 8 7 16 15 24 23 33 34 33 74 0 108-39 39-79 79-119 119z m-39 165l76 13c-12 71-45 135-96 186-53 53-121 87-195 97l-11-77c58-8 110-34 151-75 40-40 65-89 75-144z" horiz-adv-x="1000" />

<glyph glyph-name="pin" unicode="&#xe81b;" d="M631 187l-261-337-261 337c-47 49-79 107-96 174-17 66-17 133 0 200 17 66 49 125 96 174 47 50 102 84 166 101 63 18 126 18 190 0 63-17 118-51 165-101 47-49 79-108 96-174 17-67 17-134 0-200-17-67-49-125-95-174z m-261 536c-68 0-126-24-174-73-48-49-72-108-72-177 0-68 24-127 72-176 48-48 106-72 174-72 68 0 126 24 174 72 48 49 72 108 72 176 0 69-24 128-72 177-48 49-106 73-174 73z" horiz-adv-x="750" />

<glyph glyph-name="pregnancy" unicode="&#xe81c;" d="M404 114c-11 0-23 1-34 4-57 13-79 37-99 57-14 15-26 28-50 37-16 7-32 12-46 16-42 14-81 26-74 64 7 40 40 37 60 36 5-1 11-1 17-1 10 2 21 4 31 8 18 6 36 11 55 13 8 1 16 1 24 0-11 11-22 23-31 35-6 2-13 4-17 5-6 2-11 4-16 7-12 5-31 14-46 16-13 1-16-3-18-12-1-6 1-14 22-28 3-2 6-5 7-9 0-4 0-8-2-11-2-3-6-5-9-6-4-1-8 0-11 2-12 7-42 26-35 58 5 25 23 37 48 35 20-2 42-12 56-19l6-3c-3 15-4 31 4 43 5 6 15 15 35 12 28-5 48-21 62-33 6-5 12-9 18-12 4-2 9-5 14-7 9-5 27-14 33-13 2 2 4 4 5 7 2 3 2 6 2 9-2 1-6 1-9 1-14 2-38 5-47 28-1 3-2 6-2 10-11 10-20 21-27 33-1 0-1 1-1 2-2 4-5 7-9 9-4 3-8 4-12 5-3 0-5-1-7-2 0-1-1-3-1-10 1-4 0-8-3-11-2-3-6-5-10-5-3-1-7 0-10 3-3 2-5 6-6 10-1 8-1 21 7 31 4 4 8 7 13 9 4 2 10 4 15 4h1c10 0 20-3 28-9 9-5 16-13 20-22 2-3 4-5 6-8 0 0 0 0 0 0 1 3 3 5 6 6-6 7-10 16-11 25 0 3 0 7 1 10 2 3 4 6 6 8 5 5 10 8 17 11 3 1 3 1 5 5 1 3 1 7 2 10 5 25 16 76 76 90 65 15 148-12 168-76 19-62 0-100-21-129-9-12-20-23-32-31-12-8-16-12-17-18 0-4 0-15 0-28 0-48 1-130-20-167l-1-1c-21-37-59-103-136-103z m-259 185c-12 0-14-3-16-12-2-12 15-18 54-31 15-5 32-10 49-17 29-12 44-28 59-43 19-20 37-39 85-50 80-18 114 42 139 86l1 1c17 30 16 109 16 152 0 14 0 25 0 31 2 19 16 29 28 38 10 7 19 15 27 25 20 28 31 57 16 103-13 44-76 70-134 57-42-10-49-45-54-68-1-5-2-10-3-14-2-6-5-10-9-14-3-4-8-7-13-9-2 0-3-1-5-2 2-3 5-7 8-9 2-2 3-4 4-6l9-23c1-3 1-5 0-8 0-3-2-5-4-7-2-2-4-3-7-4-2-1-5-1-8 0l-3 1c0-1 0-2 0-4 1-3 2-6 3-9 2-6 10-7 22-9 10-1 19-2 26-9 3-3 5-7 7-11 1-4 2-9 1-13 0-7-2-14-5-20-3-7-7-12-13-17-17-14-42-1-64 11-4 2-9 4-13 6-8 4-16 10-23 16-14 11-29 23-50 26-4 1-6 0-6 0-3-3 0-24 9-40 6-11 42-49 74-80 3-2 4-6 4-10 0-3-1-7-3-9-2-3-5-5-9-6-4 0-7 1-10 3-9 6-39 21-67 18-17-2-34-6-50-12-12-4-24-7-37-9-7 0-14 0-22 1-5 0-9 0-13 0z m540-449c-4 0-7 1-10 4-3 3-4 7-4 10 0 33 33 86 68 143 16 26 32 51 43 72 28 53 53 126 29 262-13 73-36 109-62 148-18 28-36 57-51 99-34 103 45 248 49 255 1 1 2 3 3 4 2 1 4 2 5 2 2 1 4 1 6 1 2 0 4-1 5-2 2-1 4-2 5-3 1-2 2-4 2-5 1-2 1-4 1-6 0-2-1-4-2-6-31-56-69-163-46-231 13-38 30-64 48-92 25-39 52-80 66-159 20-115 10-199-33-281-12-22-27-47-43-73-29-46-65-104-65-128 0-3-1-7-4-10-2-2-6-4-10-4z m-330 0c-4 0-8 1-10 4-3 3-5 7-5 10 0 6 1 12 2 17 2 16 3 27-23 54-8 9-19 14-36 21-32 13-81 34-165 105-153 129-127 297-87 428 36 146 231 261 295 299 8 5 16 10 18 12-1 4-10 14-23 23-1 1-2 3-4 4-1 2-1 4-2 6 0 2 0 4 0 5 1 2 2 4 3 6 1 1 2 3 4 4 1 1 3 1 5 2 2 0 4 0 6 0 2-1 3-1 5-2 8-6 35-26 35-48 0-5-1-10-3-14-2-4-5-7-9-10-4-3-10-6-21-13-61-36-249-147-281-282 0 0 0 0-1 0-56-185-33-304 78-398 82-68 128-88 158-100 19-8 33-14 46-28 33-34 33-55 30-77 0-5-1-9-1-13 0-2 0-4-1-6-1-2-2-3-3-5-1-1-3-2-5-3-1-1-3-1-5-1z m16 198c-55 1-110 14-159 38-104 50-157 155-138 275 16 107 60 242 249 338 143 73 249 30 285-2 30-27 96-99 72-193-8-33-21-64-37-94-13-27-24-50-31-85-2-11-3-23-5-35-9-69-21-154-96-203-39-26-88-39-140-39z m-35 625c-178-90-218-217-234-317-16-106 31-200 122-244 76-36 187-55 271-1 65 42 75 117 84 183 1 12 3 24 5 36 7 40 20 66 34 93 12 25 25 50 34 89 20 78-38 141-63 164-31 27-124 63-253-3v0z" horiz-adv-x="850" />

<glyph glyph-name="prodoc" unicode="&#xe81d;" d="M135 843c-53 0-95-43-95-95v-398-253h100v203h322v-348c0-53 42-95 95-95h416c52 0 95 42 95 95v398 253h-100v-203h-322v348c0 52-43 95-95 95h-416z m411-443h-406v343h406v-343z m16-100h406v-343h-406v343z m203-267v190m95-95h-190m-327 539v-190m-95 95h190" horiz-adv-x="1091" />

<glyph glyph-name="search" unicode="&#xe81e;" d="M1007-96l-304 305c61 73 91 156 91 250 0 71-17 137-52 197-35 60-83 107-143 142-60 35-125 52-196 52-71 0-136-17-196-52-60-35-107-82-142-142-35-60-52-126-52-197 0-71 17-136 52-196 35-60 82-107 142-142 60-35 125-52 196-52 97 0 183 32 256 96l303-305c6-7 14-10 22-10 9 0 16 3 22 9 7 6 10 14 10 23 0 8-3 16-9 22z m-604 226c-60 0-115 15-165 45-51 29-90 69-120 120-29 50-44 105-44 164 0 60 15 115 44 165 30 50 69 90 120 120 50 30 105 45 165 45 59 0 114-15 165-45 50-30 90-70 120-120 29-50 43-105 43-165 0-25-2-50-8-75-6-25-14-48-25-69-11-22-24-42-39-61-15-19-32-36-51-51-18-15-39-28-60-39-22-11-45-19-69-25-25-6-50-9-76-9z" horiz-adv-x="1056" />

<glyph glyph-name="syringe" unicode="&#xe81f;" d="M984 735l-99 99c-10 10-24 16-38 16-15 0-29-6-39-16l-4-4c-11-11-16-25-16-39 0-14 5-28 16-38l15-16-82-82-85 85c-11 11-24 16-39 16-14 0-28-5-38-16l-5-4c-5-5-9-11-12-18-2-6-4-14-4-21 0-7 2-14 4-21 3-6 7-12 12-17l5-5-351-351c-10-10-16-23-16-37 0-14 6-28 16-37l20-21-137-137c-3-3-4-6-4-10 0-3 1-7 4-9l37-38-140-141c-1-1-2-2-3-4-1-2-1-4-1-5 0-2 0-4 1-6 1-1 2-3 3-4 1-1 3-3 4-3 2-1 4-1 6-1 1 0 3 0 5 1 2 1 3 2 4 3l141 140 38-38c1-1 2-2 4-3 2 0 3-1 5-1 2 0 4 1 5 1 2 1 4 2 5 3l137 138 21-20c9-10 23-16 37-16 14 0 27 6 37 16l42 41 187 188 122 122 5-5c10-10 24-16 38-16 15 0 29 6 39 16l4 5c10 10 16 24 16 38 0 15-6 28-16 39l-85 85 82 82 16-15c10-11 24-16 38-16 14 0 28 5 38 16l5 4c10 10 16 24 16 39 0 14-6 28-16 38z m-645-622l-128-128-38 38-37 38 127 128 38-38 38-38z m396 281l-53 53c-1 2-3 3-4 3-2 1-4 1-5 1-2 1-4 0-6-1-1 0-3-1-4-3-2-1-3-2-3-4-1-2-1-3-1-5 0-2 0-4 1-6 1-1 2-3 3-4l53-53-43-43-31 30c-3 3-6 4-10 4-3 0-7-1-9-4-3-2-4-6-4-9 0-4 1-7 4-10l30-31-43-43-53 53c-1 1-3 2-4 3-2 1-4 1-6 1-1 0-3 0-5-1-2-1-3-2-4-3-2-1-3-3-3-4-1-2-1-4-1-6 0-1 0-3 1-5 0-1 1-3 3-4l53-53-44-43-30 30c-1 1-3 2-5 3-1 1-3 1-5 1-2 0-3 0-5-1-2-1-3-2-5-3-1-1-2-3-2-4-1-2-2-4-2-5 0-2 1-4 2-6 0-1 1-3 2-4l31-31-43-43-53 53c-3 2-6 4-10 4-3 0-7-2-9-4-3-3-4-6-4-10 0-3 1-7 4-9l53-53-32-32c-5-5-11-8-18-8-7 0-13 3-18 8l-155 155c-5 5-8 11-8 18 0 7 3 13 8 18l351 351 191-191-50-50z m136 50l-5-5c-5-5-12-7-19-7-7 0-14 2-19 7l-239 239c-2 3-4 6-5 9-2 3-2 7-2 10 0 4 0 7 2 11 1 3 3 6 5 8l5 5c5 5 12 8 19 8 7 0 14-3 19-8l95-95 49-49 95-95c5-5 8-12 8-19 0-7-3-14-8-19z m-85 162l-30 30 82 82 30-30-82-82z m179 72l-5-5c-5-5-12-8-19-8-7 0-14 3-19 8l-25 25-49 49-25 25c-5 5-8 12-8 19 0 7 3 14 8 19l5 5c5 5 11 8 19 8 7 0 14-3 19-8l99-99c5-5 8-12 8-19 0-7-3-14-8-19z" horiz-adv-x="1000" />

<glyph glyph-name="star" unicode="&#xe820;" d="M526 46l326-196-87 370 288 249-379 32-148 349-148-349-378-32 287-249-86-370 325 196z" horiz-adv-x="1053" />

<glyph glyph-name="telegram" unicode="&#xe821;" d="M965 825c-12-1-25-4-37-9h0c-11-4-65-27-146-61l-292-123c-210-88-416-175-416-175l2 1c0 0-14-5-29-15-9-6-17-13-23-22-7-11-13-27-11-44 4-29 22-46 35-56 14-9 27-14 27-14h0l193-65c9-28 59-193 71-231 7-23 14-37 23-48 4-5 9-10 15-14 3-1 6-3 10-4l-2 1c0 0 1-1 1-1 2 0 3-1 5-1 31-9 55 10 55 10l1 1 115 104 191-147 4-2c40-17 80-8 102 10 21 17 30 39 30 39l1 4 148 757c4 19 5 36 0 53-4 17-15 32-30 42-13 7-28 11-43 10z m-4-81c0-2 1-2 0-7v0l-147-750c-1-1-2-3-5-6-3-2-5-4-18 2l-234 179-141-129 29 190 383 356c15 15 10 18 10 18 1 18-24 5-24 5l-482-298 0 0-231 78v0l0 0c0 0 0 1 1 1l1 0 1 1c0 0 207 87 416 175 105 44 211 89 292 123 82 34 142 59 145 61 4 1 2 1 4 1v0z" horiz-adv-x="1067" />

<glyph glyph-name="thyroid" unicode="&#xe822;" d="M858 605l-17 165c23 17 46 36 67 57l-23 23c-103-101-240-157-385-157-145 0-282 56-385 157l-23-23c21-21 44-40 67-57l-17-165c-8-79-60-145-134-173l12-30c85 32 145 109 154 200l16 148c92-58 199-90 310-90 111 0 218 32 310 90l16-148c10-91 69-168 154-200l12 30c-74 28-126 94-134 173z m-171-219l-24 96c15 66 29 88 29 88l-27 19c0-1-2-4-5-10-24-1-48-10-65-27l-51-52c-12-11-28-18-44-18-16 0-32 7-44 18l-51 52c-17 17-41 26-65 27-2 6-4 9-5 10l-27-19c1 0 15-22 30-88l-24-96c-5-18-13-34-23-48-22-29-34-65-34-101v-16c0-45 17-87 49-119l6-6c9-9 16-18 22-29l53-92v-125h32v32h162v-32h33v125l52 92c6 11 13 20 22 29l6 6c32 32 49 74 49 119v16c0 36-12 72-33 101-11 14-19 30-23 48z m-305 143l51-52c18-17 42-27 67-27 25 0 49 10 67 27l51 52c8 7 18 12 28 15-5-14-10-32-15-56l-71-118c-13-21-36-34-60-34-24 0-47 13-60 34l-71 118c-5 24-10 42-15 56 11-3 20-8 28-15z m199-614h-162v32h162v-32z m-27 162l9-33h-126l9 33h108z m-99 32c7 19 25 33 45 33 21 0 38-14 45-33h-90z m117-97l9-32h-161l8 32h144z m139 209c0-36-14-70-40-96l-6-6c-11-11-20-23-27-35l-35-62-26 93c-9 35-41 59-77 59-36 0-68-24-77-59l-25-93-36 62c-7 12-16 24-27 35l-6 6c-25 26-40 60-40 96v16c0 29 10 58 27 81 14 18 24 38 29 60l15 62 53-87c18-30 51-49 87-49 36 0 69 19 88 49l52 87 15-62c6-22 15-42 29-60 17-23 27-52 27-81v-16z m-260 67c-13 0-26-6-35-16 2 5 3 10 3 16 0 26-22 48-49 48-26 0-48-22-48-48 0-27 22-49 48-49 14 0 27 6 35 15-1-5-2-10-2-15 0-5 1-10 2-15-8 9-21 15-35 15-26 0-48-22-48-49 0-26 22-48 48-48 27 0 49 22 49 48 0 6-1 11-3 15 9-9 22-15 35-15 27 0 49 22 49 49 0 27-22 49-49 49z m-81-17c-9 0-16 8-16 17 0 8 7 16 16 16 9 0 17-8 17-16 0-9-8-17-17-17z m0-97c-9 0-16 7-16 16 0 9 7 17 16 17 9 0 17-8 17-17 0-9-8-16-17-16z m81 49c-8 0-16 7-16 16 0 9 8 16 16 16 9 0 17-7 17-16 0-9-8-16-17-16z m227 65c0 26-21 48-48 48-27 0-49-22-49-48 0-6 1-11 3-16-9 10-22 16-35 16-27 0-49-22-49-49 0-27 22-49 49-49 13 0 26 6 35 15-2-4-3-9-3-15 0-26 22-48 49-48 27 0 48 22 48 48 0 27-21 49-48 49-14 0-26-6-35-15 1 5 2 10 2 15 0 5-1 10-2 15 9-9 21-15 35-15 27 0 48 22 48 49z m-129-65c-9 0-17 7-17 16 0 9 8 16 17 16 9 0 16-7 16-16 0-9-7-16-16-16z m81-16c9 0 16-8 16-17 0-9-7-16-16-16-9 0-17 7-17 16 0 9 8 17 17 17z m0 64c-9 0-17 8-17 17 0 8 8 16 17 16 9 0 16-8 16-16 0-9-7-17-16-17z" horiz-adv-x="1000" />

<glyph glyph-name="vk" unicode="&#xe823;" d="M805-70h88c0 0 26 4 40 18 13 13 13 39 13 39 0 0 0 115 53 133 53 17 123-115 194-163 53-40 92-31 92-31l194 4c0 0 102 4 53 88-4 5-26 58-145 168-124 115-106 93 40 291 88 119 123 190 114 225-9 31-75 22-75 22h-220c0 0-18 4-27-5-13-8-17-22-17-22 0 0-36-92-80-172-97-163-136-172-150-163-35 22-26 97-26 146 0 159 26 225-49 242-22 5-39 9-101 9-79 0-146 0-181-17-26-14-44-40-31-40 14 0 49-9 66-31 18-40 18-106 18-106 0 0 13-189-31-212-31-17-70 18-158 168-45 75-80 163-80 163 0 0-4 18-18 27-13 8-35 13-35 13h-207c0 0-31 0-44-13-9-14 0-36 0-36 0 0 163-379 348-573 172-185 362-172 362-172v0z" horiz-adv-x="1636" />

<glyph glyph-name="vk2" unicode="&#xe824;" d="M205 819c-46 0-90-19-123-51-32-33-51-77-51-123v-590c0-46 19-90 51-123 33-32 77-51 123-51h590c46 0 90 19 123 51 32 33 51 77 51 123v590c0 46-19 90-51 123-33 32-77 51-123 51h-590z m0-85h590c49 0 89-40 89-89v-590c0-49-40-89-89-89h-590c-11 0-23 3-34 7-11 4-20 11-29 19-8 9-14 18-19 29-4 11-7 23-6 34v590c0 49 39 89 88 89z m283-223c-31 0-58 0-73-8-10-4-17-15-13-16 6-1 19-4 26-13 9-12 9-40 9-40 0 0 5-75-12-85-12-6-28 7-63 67-18 31-32 65-32 65 0 0-2 6-7 10-5 4-13 5-13 5l-84 0c0 0-12-1-17-6-4-5 0-15 0-15 0 0 65-153 139-229 68-71 145-66 145-66h35c0 0 10 1 16 6 5 6 5 16 5 16 0 0-1 47 20 53 22 7 49-45 78-65 23-15 39-12 39-12l78 2c0 0 41 2 22 34-2 3-12 24-58 67-49 45-43 38 16 116 36 48 50 77 46 90-4 12-31 9-31 9l-87-1c0 0-7 1-12-2-3-2-6-6-7-9 0 0-14-37-33-69-39-66-55-70-61-65-15 9-11 38-11 59 0 64 10 91-19 98-10 2-17 3-41 4h0z" horiz-adv-x="1000" />

<glyph glyph-name="whatsapp" unicode="&#xe825;" d="M832 682c-43 43-94 78-151 101-57 24-118 36-179 36-257 0-467-210-467-467 0-82 21-162 62-233l-66-242 248 65c68-37 145-57 223-57h0c257 0 467 209 467 467 0 125-49 242-137 330v0z m-330-718h0c-70 0-138 19-198 54l-14 8-147-38 39 143-9 15c-39 62-59 133-59 206 0 214 174 388 388 388 51 0 102-10 149-29 47-20 89-49 125-85 36-36 65-79 85-126 19-47 29-97 29-148 0-214-174-388-388-388h0z m213 291c-12 5-69 34-80 37-11 4-18 6-26-5-8-12-30-38-37-46-7-8-14-9-25-3-12 6-50 18-94 58-35 31-58 69-65 81-7 11-1 18 5 23 5 6 12 14 18 21 5 7 7 11 11 19 4 8 2 15-1 21-3 5-26 63-36 86-9 23-19 20-26 20-7 1-14 1-22 1-8 0-21-3-31-15-11-12-41-40-41-97 0-58 42-113 48-121 5-8 82-125 199-176 28-12 49-19 66-24 28-9 54-8 74-5 22 3 69 28 78 55 10 28 10 51 7 56-3 5-11 8-22 14z" horiz-adv-x="1000" />

<glyph glyph-name="youtube" unicode="&#xe826;" d="M1268 354c0 3 0 7 0 11 0 11-1 24-1 37-1 39-3 78-6 114-4 51-10 93-19 124-9 33-26 63-50 87-24 24-54 42-87 51-39 10-117 17-225 21-52 2-108 3-163 4-19 0-37 0-54 0h-41c-16 0-34 0-53 0-56-1-111-2-163-4-109-4-186-11-225-21-33-9-63-27-87-51-24-24-42-54-50-87-9-31-15-73-19-124-3-36-5-75-6-114-1-13-1-26-1-37 0-4 0-8 0-11v-8c0-3 0-6 0-10 0-12 0-24 1-38 1-39 3-78 6-114 4-51 10-93 19-124 17-67 70-120 137-138 39-10 116-17 225-21 52-2 107-3 163-4 19 0 37 0 53 0h41c17 0 35 0 54 0 55 1 111 2 163 4 108 4 186 11 225 21 67 18 119 71 137 138 9 31 15 73 19 124 3 36 5 75 6 114 0 14 1 26 1 38 0 4 0 7 0 10v8z m-101-7c0-3 0-6 0-10 0-11 0-23 0-36-1-37-3-74-6-109-4-45-9-81-16-106-9-32-34-58-66-66-29-8-103-15-203-18-51-2-106-4-160-4-20-1-37-1-53-1h-40l-53 1c-54 0-109 2-160 4-100 4-174 10-203 18-32 8-58 34-66 66-7 25-12 61-16 106-3 35-5 72-6 109 0 13 0 25-1 36 0 4 0 7 0 10v6c0 3 0 7 0 10 1 11 1 23 1 36 1 37 3 74 6 109 4 45 9 82 16 106 8 33 34 58 66 67 29 7 103 14 203 17 51 2 106 4 160 4 19 1 37 1 53 1h40l53-1c54 0 109-2 160-4 100-4 174-10 203-17 32-9 57-34 66-67 7-24 12-61 16-106 3-35 5-72 6-109 0-13 0-25 0-36 0-3 0-7 0-10v-6z m-648-184l323 188-323 186v-374z" horiz-adv-x="1286" />

<glyph glyph-name="menu" unicode="&#xe827;" d="M958 447h-916c-23 0-42 19-42 42s19 42 42 42h916c23 0 42-19 42-42s-19-42-42-42z m0 0m0 320h-916c-23 0-42 18-42 41s19 42 42 42h916c23 0 42-19 42-42s-19-41-42-41z m0 0m0-639h-916c-23 0-42 18-42 41s19 42 42 42h916c23 0 42-19 42-42s-19-41-42-41z m0 0" horiz-adv-x="1000" />

<glyph glyph-name="close" unicode="&#xe828;" d="M592 349l390 390c25 25 25 66 0 92-26 25-66 25-92 0l-390-390-389 390c-26 25-67 25-92 0-25-26-25-67 0-92l390-390-390-390c-25-25-25-66 0-91 13-13 29-19 46-19 17 0 33 6 46 19l389 390 390-390c13-13 29-19 46-19 17 0 33 6 46 19 25 25 25 66 0 91z m0 0" horiz-adv-x="1000" />
</font>
</defs>
</svg>
